<?xml version="1.0" encoding="UTF-8" standalone="no"?>
<!-- Created with Inkscape (http://www.inkscape.org/) -->

<svg
   xmlns:dc="http://purl.org/dc/elements/1.1/"
   xmlns:cc="http://creativecommons.org/ns#"
   xmlns:rdf="http://www.w3.org/1999/02/22-rdf-syntax-ns#"
   xmlns:svg="http://www.w3.org/2000/svg"
   xmlns="http://www.w3.org/2000/svg"
   xmlns:xlink="http://www.w3.org/1999/xlink"
   xmlns:sodipodi="http://sodipodi.sourceforge.net/DTD/sodipodi-0.dtd"
   xmlns:inkscape="http://www.inkscape.org/namespaces/inkscape"
   width="31.27627mm"
   height="31.27627mm"
   viewBox="0 0 110.82143 110.82143"
   id="svg8912"
   version="1.1"
   inkscape:version="0.91 r13725"
   sodipodi:docname="matchID-logo.svg"
   inkscape:export-filename="./matchID-logo.png"
   inkscape:export-xdpi="600.44678"
   inkscape:export-ydpi="600.44678">
  <defs
     id="defs8914">
    <linearGradient
       inkscape:collect="always"
       xlink:href="#linearGradient6928"
       id="linearGradient6120"
       gradientUnits="userSpaceOnUse"
       gradientTransform="matrix(0.43641325,0,0,0.43641325,-749.59581,-1232.7404)"
       x1="1342.1211"
       y1="1866.8776"
       x2="808.50244"
       y2="1866.8776" />
    <linearGradient
       id="linearGradient6928">
      <stop
         style="stop-color:#174791;stop-opacity:1;"
         offset="0"
         id="stop6930" />
      <stop
         style="stop-color:#c2001f;stop-opacity:0.31123918"
         offset="1"
         id="stop6934" />
    </linearGradient>
    <linearGradient
       inkscape:collect="always"
       xlink:href="#linearGradient6928"
       id="linearGradient9286"
       gradientUnits="userSpaceOnUse"
       gradientTransform="matrix(0.43641325,0,0,0.43641325,-749.59581,-1232.7404)"
       x1="1342.1211"
       y1="1866.8776"
       x2="808.50244"
       y2="1866.8776" />
    <linearGradient
       inkscape:collect="always"
       xlink:href="#linearGradient6928"
       id="linearGradient9288"
       gradientUnits="userSpaceOnUse"
       gradientTransform="matrix(0.43641325,0,0,0.43641325,-749.59581,-1232.7404)"
       x1="1342.1211"
       y1="1866.8776"
       x2="808.50244"
       y2="1866.8776" />
    <linearGradient
       inkscape:collect="always"
       xlink:href="#linearGradient6928"
       id="linearGradient9290"
       gradientUnits="userSpaceOnUse"
       gradientTransform="matrix(0.43641325,0,0,0.43641325,-749.59581,-1232.7404)"
       x1="1342.1211"
       y1="1866.8776"
       x2="808.50244"
       y2="1866.8776" />
    <linearGradient
       inkscape:collect="always"
       xlink:href="#linearGradient6928"
       id="linearGradient9292"
       gradientUnits="userSpaceOnUse"
       gradientTransform="matrix(0.43641325,0,0,0.43641325,-749.59581,-1232.7404)"
       x1="1342.1211"
       y1="1866.8776"
       x2="808.50244"
       y2="1866.8776" />
    <linearGradient
       inkscape:collect="always"
       xlink:href="#linearGradient6928"
       id="linearGradient9294"
       gradientUnits="userSpaceOnUse"
       gradientTransform="matrix(0.43641325,0,0,0.43641325,-749.59581,-1232.7404)"
       x1="1342.1211"
       y1="1866.8776"
       x2="808.50244"
       y2="1866.8776" />
    <linearGradient
       inkscape:collect="always"
       xlink:href="#linearGradient6928"
       id="linearGradient9296"
       gradientUnits="userSpaceOnUse"
       gradientTransform="matrix(0.43641325,0,0,0.43641325,-749.59581,-1232.7404)"
       x1="1342.1211"
       y1="1866.8776"
       x2="808.50244"
       y2="1866.8776" />
    <linearGradient
       inkscape:collect="always"
       xlink:href="#linearGradient6928"
       id="linearGradient9298"
       gradientUnits="userSpaceOnUse"
       gradientTransform="matrix(0.43641325,0,0,0.43641325,-749.59581,-1232.7404)"
       x1="1342.1211"
       y1="1866.8776"
       x2="808.50244"
       y2="1866.8776" />
    <linearGradient
       inkscape:collect="always"
       xlink:href="#linearGradient6928"
       id="linearGradient9300"
       gradientUnits="userSpaceOnUse"
       gradientTransform="matrix(0.43641325,0,0,0.43641325,-749.59581,-1232.7404)"
       x1="1342.1211"
       y1="1866.8776"
       x2="808.50244"
       y2="1866.8776" />
    <linearGradient
       inkscape:collect="always"
       xlink:href="#linearGradient6928"
       id="linearGradient9302"
       gradientUnits="userSpaceOnUse"
       gradientTransform="matrix(0.43641325,0,0,0.43641325,-749.59581,-1232.7404)"
       x1="1342.1211"
       y1="1866.8776"
       x2="808.50244"
       y2="1866.8776" />
    <linearGradient
       inkscape:collect="always"
       xlink:href="#linearGradient6928"
       id="linearGradient9304"
       gradientUnits="userSpaceOnUse"
       gradientTransform="matrix(0.43641325,0,0,0.43641325,-749.59581,-1232.7404)"
       x1="1342.1211"
       y1="1866.8776"
       x2="808.50244"
       y2="1866.8776" />
    <linearGradient
       inkscape:collect="always"
       xlink:href="#linearGradient6928"
       id="linearGradient9306"
       gradientUnits="userSpaceOnUse"
       gradientTransform="matrix(0.43641325,0,0,0.43641325,-749.59581,-1232.7404)"
       x1="1342.1211"
       y1="1866.8776"
       x2="808.50244"
       y2="1866.8776" />
    <linearGradient
       inkscape:collect="always"
       xlink:href="#linearGradient6928"
       id="linearGradient9308"
       gradientUnits="userSpaceOnUse"
       gradientTransform="matrix(0.43641325,0,0,0.43641325,-749.59581,-1232.7404)"
       x1="1342.1211"
       y1="1866.8776"
       x2="808.50244"
       y2="1866.8776" />
    <linearGradient
       inkscape:collect="always"
       xlink:href="#linearGradient6928"
       id="linearGradient9310"
       gradientUnits="userSpaceOnUse"
       gradientTransform="matrix(0.43641325,0,0,0.43641325,-749.59581,-1232.7404)"
       x1="1342.1211"
       y1="1866.8776"
       x2="808.50244"
       y2="1866.8776" />
    <linearGradient
       inkscape:collect="always"
       xlink:href="#linearGradient6928"
       id="linearGradient9312"
       gradientUnits="userSpaceOnUse"
       gradientTransform="matrix(0.43641325,0,0,0.43641325,-749.59581,-1232.7404)"
       x1="1342.1211"
       y1="1866.8776"
       x2="808.50244"
       y2="1866.8776" />
    <linearGradient
       inkscape:collect="always"
       xlink:href="#linearGradient6928"
       id="linearGradient9314"
       gradientUnits="userSpaceOnUse"
       gradientTransform="matrix(0.43641325,0,0,0.43641325,-749.59581,-1232.7404)"
       x1="1342.1211"
       y1="1866.8776"
       x2="808.50244"
       y2="1866.8776" />
    <linearGradient
       inkscape:collect="always"
       xlink:href="#linearGradient6928"
       id="linearGradient9316"
       gradientUnits="userSpaceOnUse"
       gradientTransform="matrix(0.43641325,0,0,0.43641325,-749.59581,-1232.7404)"
       x1="1342.1211"
       y1="1866.8776"
       x2="808.50244"
       y2="1866.8776" />
    <linearGradient
       inkscape:collect="always"
       xlink:href="#linearGradient6928"
       id="linearGradient9318"
       gradientUnits="userSpaceOnUse"
       gradientTransform="matrix(0.43641325,0,0,0.43641325,-749.59581,-1232.7404)"
       x1="1342.1211"
       y1="1866.8776"
       x2="808.50244"
       y2="1866.8776" />
    <linearGradient
       inkscape:collect="always"
       xlink:href="#linearGradient6928"
       id="linearGradient9320"
       gradientUnits="userSpaceOnUse"
       gradientTransform="matrix(0.43641325,0,0,0.43641325,-749.59581,-1232.7404)"
       x1="1342.1211"
       y1="1866.8776"
       x2="808.50244"
       y2="1866.8776" />
    <linearGradient
       inkscape:collect="always"
       xlink:href="#linearGradient6928"
       id="linearGradient9322"
       gradientUnits="userSpaceOnUse"
       gradientTransform="matrix(0.43641325,0,0,0.43641325,-749.59581,-1232.7404)"
       x1="1342.1211"
       y1="1866.8776"
       x2="808.50244"
       y2="1866.8776" />
    <linearGradient
       inkscape:collect="always"
       xlink:href="#linearGradient6928"
       id="linearGradient9324"
       gradientUnits="userSpaceOnUse"
       gradientTransform="matrix(0.43641325,0,0,0.43641325,-749.59581,-1232.7404)"
       x1="1342.1211"
       y1="1866.8776"
       x2="808.50244"
       y2="1866.8776" />
    <linearGradient
       inkscape:collect="always"
       xlink:href="#linearGradient6928"
       id="linearGradient9326"
       gradientUnits="userSpaceOnUse"
       gradientTransform="matrix(0.43641325,0,0,0.43641325,-749.59581,-1232.7404)"
       x1="1342.1211"
       y1="1866.8776"
       x2="808.50244"
       y2="1866.8776" />
    <linearGradient
       inkscape:collect="always"
       xlink:href="#linearGradient6928"
       id="linearGradient9328"
       gradientUnits="userSpaceOnUse"
       gradientTransform="matrix(0.43641325,0,0,0.43641325,-749.59581,-1232.7404)"
       x1="1342.1211"
       y1="1866.8776"
       x2="808.50244"
       y2="1866.8776" />
    <linearGradient
       inkscape:collect="always"
       xlink:href="#linearGradient6928"
       id="linearGradient9330"
       gradientUnits="userSpaceOnUse"
       gradientTransform="matrix(0.43641325,0,0,0.43641325,-749.59581,-1232.7404)"
       x1="1342.1211"
       y1="1866.8776"
       x2="808.50244"
       y2="1866.8776" />
    <linearGradient
       inkscape:collect="always"
       xlink:href="#linearGradient6928"
       id="linearGradient9332"
       gradientUnits="userSpaceOnUse"
       gradientTransform="matrix(0.43641325,0,0,0.43641325,-749.59581,-1232.7404)"
       x1="1342.1211"
       y1="1866.8776"
       x2="808.50244"
       y2="1866.8776" />
    <linearGradient
       inkscape:collect="always"
       xlink:href="#linearGradient6928"
       id="linearGradient9334"
       gradientUnits="userSpaceOnUse"
       gradientTransform="matrix(0.43641325,0,0,0.43641325,-749.59581,-1232.7404)"
       x1="1342.1211"
       y1="1866.8776"
       x2="808.50244"
       y2="1866.8776" />
    <linearGradient
       inkscape:collect="always"
       xlink:href="#linearGradient6928"
       id="linearGradient9336"
       gradientUnits="userSpaceOnUse"
       gradientTransform="matrix(0.43641325,0,0,0.43641325,-749.59581,-1232.7404)"
       x1="1342.1211"
       y1="1866.8776"
       x2="808.50244"
       y2="1866.8776" />
    <linearGradient
       inkscape:collect="always"
       xlink:href="#linearGradient6928"
       id="linearGradient9338"
       gradientUnits="userSpaceOnUse"
       gradientTransform="matrix(0.43641325,0,0,0.43641325,-749.59581,-1232.7404)"
       x1="1342.1211"
       y1="1866.8776"
       x2="808.50244"
       y2="1866.8776" />
    <linearGradient
       inkscape:collect="always"
       xlink:href="#linearGradient6928"
       id="linearGradient9340"
       gradientUnits="userSpaceOnUse"
       gradientTransform="matrix(0.43641325,0,0,0.43641325,-749.59581,-1232.7404)"
       x1="1342.1211"
       y1="1866.8776"
       x2="808.50244"
       y2="1866.8776" />
    <linearGradient
       inkscape:collect="always"
       xlink:href="#linearGradient6928"
       id="linearGradient9342"
       gradientUnits="userSpaceOnUse"
       gradientTransform="matrix(0.43641325,0,0,0.43641325,-749.59581,-1232.7404)"
       x1="1342.1211"
       y1="1866.8776"
       x2="808.50244"
       y2="1866.8776" />
    <linearGradient
       inkscape:collect="always"
       xlink:href="#linearGradient6928"
       id="linearGradient9344"
       gradientUnits="userSpaceOnUse"
       gradientTransform="matrix(0.43641325,0,0,0.43641325,-749.59581,-1232.7404)"
       x1="1342.1211"
       y1="1866.8776"
       x2="808.50244"
       y2="1866.8776" />
    <linearGradient
       inkscape:collect="always"
       xlink:href="#linearGradient6928"
       id="linearGradient9346"
       gradientUnits="userSpaceOnUse"
       gradientTransform="matrix(0.43641325,0,0,0.43641325,-749.59581,-1232.7404)"
       x1="1342.1211"
       y1="1866.8776"
       x2="808.50244"
       y2="1866.8776" />
    <linearGradient
       inkscape:collect="always"
       xlink:href="#linearGradient6928"
       id="linearGradient9348"
       gradientUnits="userSpaceOnUse"
       gradientTransform="matrix(0.43641325,0,0,0.43641325,-749.59581,-1232.7404)"
       x1="1342.1211"
       y1="1866.8776"
       x2="808.50244"
       y2="1866.8776" />
    <linearGradient
       inkscape:collect="always"
       xlink:href="#linearGradient6928"
       id="linearGradient9350"
       gradientUnits="userSpaceOnUse"
       gradientTransform="matrix(0.43641325,0,0,0.43641325,-749.59581,-1232.7404)"
       x1="1342.1211"
       y1="1866.8776"
       x2="808.50244"
       y2="1866.8776" />
    <linearGradient
       inkscape:collect="always"
       xlink:href="#linearGradient6928"
       id="linearGradient9352"
       gradientUnits="userSpaceOnUse"
       gradientTransform="matrix(0.43641325,0,0,0.43641325,-749.59581,-1232.7404)"
       x1="1342.1211"
       y1="1866.8776"
       x2="808.50244"
       y2="1866.8776" />
    <linearGradient
       inkscape:collect="always"
       xlink:href="#linearGradient6928"
       id="linearGradient9354"
       gradientUnits="userSpaceOnUse"
       gradientTransform="matrix(0.43641325,0,0,0.43641325,-749.59581,-1232.7404)"
       x1="1342.1211"
       y1="1866.8776"
       x2="808.50244"
       y2="1866.8776" />
    <linearGradient
       inkscape:collect="always"
       xlink:href="#linearGradient6928"
       id="linearGradient9356"
       gradientUnits="userSpaceOnUse"
       gradientTransform="matrix(0.43641325,0,0,0.43641325,-749.59581,-1232.7404)"
       x1="1342.1211"
       y1="1866.8776"
       x2="808.50244"
       y2="1866.8776" />
    <linearGradient
       inkscape:collect="always"
       xlink:href="#linearGradient6928"
       id="linearGradient9358"
       gradientUnits="userSpaceOnUse"
       gradientTransform="matrix(0.43641325,0,0,0.43641325,-749.59581,-1232.7404)"
       x1="1342.1211"
       y1="1866.8776"
       x2="808.50244"
       y2="1866.8776" />
    <linearGradient
       inkscape:collect="always"
       xlink:href="#linearGradient6928"
       id="linearGradient9360"
       gradientUnits="userSpaceOnUse"
       gradientTransform="matrix(0.43641325,0,0,0.43641325,-749.59581,-1232.7404)"
       x1="1342.1211"
       y1="1866.8776"
       x2="808.50244"
       y2="1866.8776" />
    <linearGradient
       inkscape:collect="always"
       xlink:href="#linearGradient6928"
       id="linearGradient9362"
       gradientUnits="userSpaceOnUse"
       gradientTransform="matrix(0.43641325,0,0,0.43641325,-749.59581,-1232.7404)"
       x1="1342.1211"
       y1="1866.8776"
       x2="808.50244"
       y2="1866.8776" />
    <linearGradient
       inkscape:collect="always"
       xlink:href="#linearGradient6928"
       id="linearGradient9364"
       gradientUnits="userSpaceOnUse"
       gradientTransform="matrix(0.43641325,0,0,0.43641325,-749.59581,-1232.7404)"
       x1="1342.1211"
       y1="1866.8776"
       x2="808.50244"
       y2="1866.8776" />
    <linearGradient
       inkscape:collect="always"
       xlink:href="#linearGradient6928"
       id="linearGradient9366"
       gradientUnits="userSpaceOnUse"
       gradientTransform="matrix(0.43641325,0,0,0.43641325,-749.59581,-1232.7404)"
       x1="1342.1211"
       y1="1866.8776"
       x2="808.50244"
       y2="1866.8776" />
    <linearGradient
       inkscape:collect="always"
       xlink:href="#linearGradient6928"
       id="linearGradient9368"
       gradientUnits="userSpaceOnUse"
       gradientTransform="matrix(0.43641325,0,0,0.43641325,-749.59581,-1232.7404)"
       x1="1342.1211"
       y1="1866.8776"
       x2="808.50244"
       y2="1866.8776" />
    <linearGradient
       inkscape:collect="always"
       xlink:href="#linearGradient6928"
       id="linearGradient9370"
       gradientUnits="userSpaceOnUse"
       gradientTransform="matrix(0.43641325,0,0,0.43641325,-749.59581,-1232.7404)"
       x1="1342.1211"
       y1="1866.8776"
       x2="808.50244"
       y2="1866.8776" />
    <linearGradient
       inkscape:collect="always"
       xlink:href="#linearGradient6928"
       id="linearGradient9372"
       gradientUnits="userSpaceOnUse"
       gradientTransform="matrix(0.43641325,0,0,0.43641325,-749.59581,-1232.7404)"
       x1="1342.1211"
       y1="1866.8776"
       x2="808.50244"
       y2="1866.8776" />
    <linearGradient
       inkscape:collect="always"
       xlink:href="#linearGradient6928"
       id="linearGradient9374"
       gradientUnits="userSpaceOnUse"
       gradientTransform="matrix(0.43641325,0,0,0.43641325,-749.59581,-1232.7404)"
       x1="1342.1211"
       y1="1866.8776"
       x2="808.50244"
       y2="1866.8776" />
    <linearGradient
       inkscape:collect="always"
       xlink:href="#linearGradient6928"
       id="linearGradient9376"
       gradientUnits="userSpaceOnUse"
       gradientTransform="matrix(0.43641325,0,0,0.43641325,-749.59581,-1232.7404)"
       x1="1342.1211"
       y1="1866.8776"
       x2="808.50244"
       y2="1866.8776" />
    <linearGradient
       inkscape:collect="always"
       xlink:href="#linearGradient6928"
       id="linearGradient9378"
       gradientUnits="userSpaceOnUse"
       gradientTransform="matrix(0.43641325,0,0,0.43641325,-749.59581,-1232.7404)"
       x1="1342.1211"
       y1="1866.8776"
       x2="808.50244"
       y2="1866.8776" />
    <linearGradient
       inkscape:collect="always"
       xlink:href="#linearGradient6928"
       id="linearGradient9380"
       gradientUnits="userSpaceOnUse"
       gradientTransform="matrix(0.43641325,0,0,0.43641325,-749.59581,-1232.7404)"
       x1="1342.1211"
       y1="1866.8776"
       x2="808.50244"
       y2="1866.8776" />
    <linearGradient
       inkscape:collect="always"
       xlink:href="#linearGradient6928"
       id="linearGradient9382"
       gradientUnits="userSpaceOnUse"
       gradientTransform="matrix(0.43641325,0,0,0.43641325,-749.59581,-1232.7404)"
       x1="1342.1211"
       y1="1866.8776"
       x2="808.50244"
       y2="1866.8776" />
    <linearGradient
       inkscape:collect="always"
       xlink:href="#linearGradient6928"
       id="linearGradient9384"
       gradientUnits="userSpaceOnUse"
       gradientTransform="matrix(0.43641325,0,0,0.43641325,-749.59581,-1232.7404)"
       x1="1342.1211"
       y1="1866.8776"
       x2="808.50244"
       y2="1866.8776" />
  </defs>
  <sodipodi:namedview
     id="base"
     pagecolor="#ffffff"
     bordercolor="#666666"
     borderopacity="1.0"
     inkscape:pageopacity="0.0"
     inkscape:pageshadow="2"
     inkscape:zoom="2.8"
     inkscape:cx="71.355524"
     inkscape:cy="7.0851623"
     inkscape:document-units="px"
     inkscape:current-layer="layer1"
     showgrid="false"
     inkscape:window-width="1920"
     inkscape:window-height="1050"
     inkscape:window-x="0"
     inkscape:window-y="30"
     inkscape:window-maximized="1"
     fit-margin-top="0"
     fit-margin-left="0"
     fit-margin-right="0"
     fit-margin-bottom="0" />
  <metadata
     id="metadata8917">
    <rdf:RDF>
      <cc:Work
         rdf:about="">
        <dc:format>image/svg+xml</dc:format>
        <dc:type
           rdf:resource="http://purl.org/dc/dcmitype/StillImage" />
        <dc:title />
      </cc:Work>
    </rdf:RDF>
  </metadata>
  <g
     inkscape:label="Calque 1"
     inkscape:groupmode="layer"
     id="layer1"
     transform="translate(338.85706,474.35964)">
    <g
       id="g4313">
      <circle
         r="54.167526"
         cy="-418.94891"
         cx="-283.44635"
         id="path3520-2"
         style="color:#000000;clip-rule:nonzero;display:inline;overflow:visible;visibility:visible;opacity:1;isolation:auto;mix-blend-mode:normal;color-interpolation:sRGB;color-interpolation-filters:linearRGB;solid-color:#000000;solid-opacity:1;fill:#ffffff;fill-opacity:1;fill-rule:nonzero;stroke:#e2011c;stroke-width:2.48637819;stroke-linecap:butt;stroke-linejoin:miter;stroke-miterlimit:4;stroke-dasharray:none;stroke-dashoffset:0;stroke-opacity:1;color-rendering:auto;image-rendering:auto;shape-rendering:auto;text-rendering:auto;enable-background:accumulate" />
      <path
         inkscape:connector-curvature="0"
         id="path8193"
         d="m -267.97562,-387.92367 c -0.34239,0 -0.63275,0.11391 -0.86644,0.34747 -0.22827,0.23371 -0.34297,0.52765 -0.34297,0.87548 0,0.35327 0.1183,0.65611 0.35198,0.91156 0.23914,0.24999 0.5259,0.37455 0.85743,0.37455 0.33696,0 0.62279,-0.12453 0.86191,-0.37455 0.23913,-0.25545 0.36101,-0.55829 0.36101,-0.91156 0,-0.3424 -0.12199,-0.63276 -0.36101,-0.86644 -0.23369,-0.23914 -0.51952,-0.35651 -0.86191,-0.35651 z"
         style="font-style:normal;font-variant:normal;font-weight:normal;font-stretch:normal;font-size:medium;line-height:125%;font-family:'Andale Mono';-inkscape-font-specification:'Andale Mono, Normal';text-align:start;letter-spacing:0px;word-spacing:0px;writing-mode:lr-tb;text-anchor:start;fill:url(#linearGradient9286);fill-opacity:1;stroke:none;stroke-width:1px;stroke-linecap:butt;stroke-linejoin:miter;stroke-opacity:1" />
      <path
         inkscape:connector-curvature="0"
         id="path8151"
         d="m -267.94404,-392.67554 c -1.25,0 -2.19716,0.53493 -2.83849,1.61102 -0.63585,1.07066 -0.95218,2.52683 -0.95218,4.3638 0,1.8913 0.33068,3.35639 0.98829,4.39986 0.65762,1.04349 1.59044,1.56591 2.80238,1.56591 1.25546,0 2.20263,-0.53587 2.83848,-1.60653 0.63589,-1.07609 0.95217,-2.52771 0.95217,-4.35924 0,-1.89131 -0.33065,-3.36093 -0.98826,-4.40439 -0.65219,-1.04892 -1.58498,-1.57043 -2.80239,-1.57043 z m 10.00915,0 c -1.25,0 -2.19266,0.53493 -2.83396,1.61102 -0.6359,1.07066 -0.95671,2.52683 -0.95671,4.3638 0,1.8913 0.33068,3.35639 0.98829,4.39986 0.65762,1.04349 1.59041,1.56591 2.80238,1.56591 1.25544,0 2.2026,-0.53587 2.8385,-1.60653 0.63585,-1.07609 0.95216,-2.52771 0.95216,-4.35924 0,-1.89131 -0.32615,-3.36093 -0.98377,-4.40439 -0.65216,-1.04892 -1.58951,-1.57043 -2.80689,-1.57043 z m -10.00915,1.18684 c 0.80436,0 1.40116,0.38084 1.78704,1.14171 0.3913,0.75544 0.58663,1.97236 0.58663,3.64627 0,1.66848 -0.19547,2.88445 -0.58663,3.65075 -0.38588,0.76087 -0.98268,1.14171 -1.78704,1.14171 -0.7989,0 -1.39572,-0.38443 -1.78703,-1.15073 -0.38587,-0.77175 -0.57762,-1.98411 -0.57762,-3.64173 0,-1.63588 0.19547,-2.84201 0.58666,-3.61919 0.3913,-0.77719 0.98452,-1.16879 1.77799,-1.16879 z m 10.00915,0 c 0.80436,0 1.40116,0.38084 1.78704,1.14171 0.3913,0.75544 0.58663,1.97236 0.58663,3.64627 0,1.66848 -0.19523,2.88445 -0.58663,3.65075 -0.38588,0.76087 -0.98268,1.14171 -1.78704,1.14171 -0.79892,0 -1.39119,-0.38443 -1.7825,-1.15073 -0.38588,-0.77175 -0.58215,-1.98411 -0.58215,-3.64173 0,-1.63588 0.19986,-2.84201 0.59116,-3.61919 0.39131,-0.77719 0.98,-1.16879 1.77349,-1.16879 z m -0.0317,3.56503 c -0.34239,0 -0.62822,0.11391 -0.86193,0.34747 -0.22828,0.23371 -0.34297,0.52765 -0.34297,0.87548 0,0.35327 0.11368,0.65611 0.3475,0.91156 0.23913,0.24999 0.52589,0.37455 0.8574,0.37455 0.33696,0 0.6273,-0.12453 0.86644,-0.37455 0.23911,-0.25545 0.35651,-0.55829 0.35651,-0.91156 0,-0.3424 -0.11738,-0.63276 -0.35651,-0.86644 -0.23371,-0.23914 -0.52405,-0.35651 -0.86644,-0.35651 z"
         style="font-style:normal;font-variant:normal;font-weight:normal;font-stretch:normal;font-size:medium;line-height:125%;font-family:'Andale Mono';-inkscape-font-specification:'Andale Mono, Normal';text-align:start;letter-spacing:0px;word-spacing:0px;writing-mode:lr-tb;text-anchor:start;fill:url(#linearGradient9288);fill-opacity:1;stroke:none;stroke-width:1px;stroke-linecap:butt;stroke-linejoin:miter;stroke-opacity:1" />
      <path
         inkscape:connector-curvature="0"
         id="path7855"
         d="m -328.008,-392.67554 c -0.91019,0 -1.4789,0.6036 -2.06681,1.1733 a 54.167526,54.167526 0 0 0 0.57312,0.9928 c 0.38288,-0.54831 0.82765,-0.97926 1.49369,-0.97926 0.80438,0 1.39665,0.38084 1.78253,1.14171 0.39131,0.75544 0.58666,1.97236 0.58666,3.64627 0,0.6538 -0.17005,0.91551 -0.23013,1.43052 a 54.167526,54.167526 0 0 0 1.06951,1.21842 c 0.23565,-0.8334 0.58213,-1.53593 0.58213,-2.64894 0,-1.89131 -0.33068,-3.36093 -0.98829,-4.40439 -0.65216,-1.04892 -1.58498,-1.57043 -2.80238,-1.57043 z m 10.00918,0 c -1.25003,0 -2.19719,0.53493 -2.8385,1.61102 -0.63587,1.07066 -0.95218,2.52683 -0.95218,4.3638 0,1.8913 0.33068,3.35639 0.9883,4.39986 0.65761,1.04349 1.59041,1.56591 2.80238,1.56591 1.25543,0 2.2026,-0.53587 2.83847,-1.60653 0.63587,-1.07609 0.95218,-2.52771 0.95218,-4.35924 0,-1.89131 -0.33066,-3.36093 -0.98827,-4.40439 -0.65219,-1.04892 -1.585,-1.57043 -2.80238,-1.57043 z m 0,1.18684 c 0.80433,0 1.40115,0.38084 1.78701,1.14171 0.3913,0.75544 0.58666,1.97236 0.58666,3.64627 0,1.66848 -0.19524,2.88445 -0.58666,3.65075 -0.38586,0.76087 -0.98268,1.14171 -1.78701,1.14171 -0.79893,0 -1.39573,-0.38443 -1.78703,-1.15073 -0.38588,-0.77175 -0.57763,-1.98411 -0.57763,-3.64173 0,-1.63588 0.19524,-2.84201 0.58664,-3.61919 0.3913,-0.77719 0.98452,-1.16879 1.77802,-1.16879 z m -0.0317,3.56503 c -0.34239,0 -0.63275,0.11391 -0.86643,0.34747 -0.22828,0.23371 -0.34297,0.52765 -0.34297,0.87548 0,0.35327 0.11829,0.65611 0.35198,0.91156 0.23913,0.24999 0.52591,0.37455 0.85742,0.37455 0.33697,0 0.62278,-0.12453 0.86191,-0.37455 0.23914,-0.25545 0.36102,-0.55829 0.36102,-0.91156 0,-0.3424 -0.122,-0.63276 -0.36102,-0.86644 -0.23368,-0.23914 -0.51951,-0.35651 -0.86191,-0.35651 z"
         style="font-style:normal;font-variant:normal;font-weight:normal;font-stretch:normal;font-size:medium;line-height:125%;font-family:'Andale Mono';-inkscape-font-specification:'Andale Mono, Normal';text-align:start;letter-spacing:0px;word-spacing:0px;writing-mode:lr-tb;text-anchor:start;fill:url(#linearGradient9290);fill-opacity:1;stroke:none;stroke-width:1px;stroke-linecap:butt;stroke-linejoin:miter;stroke-opacity:1" />
      <path
         inkscape:connector-curvature="0"
         id="path8163"
         d="m -288.07969,-392.52212 -2.48649,1.28161 0,1.33577 2.29696,-1.15074 0,8.93513 -2.43683,0 0,1.16427 6.05152,0 0,-1.16427 -2.27441,0 0,-10.40177 -1.15075,0 z m 10.00918,0 -2.48652,1.28161 0,1.33577 2.30149,-1.15074 0,8.93513 -2.43686,0 0,1.16427 6.04702,0 0,-1.16427 -2.27441,0 0,-10.40177 -1.15072,0 z"
         style="font-style:normal;font-variant:normal;font-weight:normal;font-stretch:normal;font-size:medium;line-height:125%;font-family:'Andale Mono';-inkscape-font-specification:'Andale Mono, Normal';text-align:start;letter-spacing:0px;word-spacing:0px;writing-mode:lr-tb;text-anchor:start;fill:url(#linearGradient9292);fill-opacity:1;stroke:none;stroke-width:1px;stroke-linecap:butt;stroke-linejoin:miter;stroke-opacity:1" />
      <path
         inkscape:connector-curvature="0"
         id="path8161"
         d="m -308.10249,-392.52212 -2.48649,1.28161 0,1.33577 2.30146,-1.15074 0,8.93513 -2.44136,0 0,1.16427 6.05152,0 0,-1.16427 -2.27439,0 0,-10.40177 -1.15074,0 z m 10.00915,0 -2.48199,1.28161 0,1.33577 2.29696,-1.15074 0,8.93513 -2.43686,0 0,1.16427 6.04702,0 0,-1.16427 -2.27439,0 0,-10.40177 -1.15074,0 z"
         style="font-style:normal;font-variant:normal;font-weight:normal;font-stretch:normal;font-size:medium;line-height:125%;font-family:'Andale Mono';-inkscape-font-specification:'Andale Mono, Normal';text-align:start;letter-spacing:0px;word-spacing:0px;writing-mode:lr-tb;text-anchor:start;fill:url(#linearGradient9294);fill-opacity:1;stroke:none;stroke-width:1px;stroke-linecap:butt;stroke-linejoin:miter;stroke-opacity:1" />
      <path
         inkscape:connector-curvature="0"
         id="path8135"
         d="m -237.94366,-408.79487 c -0.3424,0 -0.63273,0.1183 -0.86644,0.35198 -0.22828,0.23371 -0.33844,0.52312 -0.33844,0.87094 0,0.35328 0.11367,0.65614 0.34747,0.91156 0.23914,0.25 0.5259,0.37909 0.85741,0.37909 0.33696,0 0.62279,-0.12916 0.86193,-0.37909 0.23914,-0.25542 0.36101,-0.55828 0.36101,-0.91156 0,-0.34239 -0.12199,-0.62822 -0.36101,-0.8619 -0.23371,-0.23914 -0.51954,-0.36102 -0.86193,-0.36102 z"
         style="font-style:normal;font-variant:normal;font-weight:normal;font-stretch:normal;font-size:medium;line-height:125%;font-family:'Andale Mono';-inkscape-font-specification:'Andale Mono, Normal';text-align:start;letter-spacing:0px;word-spacing:0px;writing-mode:lr-tb;text-anchor:start;fill:url(#linearGradient9296);fill-opacity:1;stroke:none;stroke-width:1px;stroke-linecap:butt;stroke-linejoin:miter;stroke-opacity:1" />
      <path
         inkscape:connector-curvature="0"
         id="path8133"
         d="m -267.97562,-408.79487 c -0.34239,0 -0.63275,0.1183 -0.86644,0.35198 -0.22827,0.23371 -0.34297,0.52312 -0.34297,0.87094 0,0.35328 0.1183,0.65614 0.35198,0.91156 0.23914,0.25 0.5259,0.37909 0.85743,0.37909 0.33696,0 0.62279,-0.12916 0.86191,-0.37909 0.23913,-0.25542 0.36101,-0.55828 0.36101,-0.91156 0,-0.34239 -0.12199,-0.62822 -0.36101,-0.8619 -0.23369,-0.23914 -0.51952,-0.36102 -0.86191,-0.36102 z"
         style="font-style:normal;font-variant:normal;font-weight:normal;font-stretch:normal;font-size:medium;line-height:125%;font-family:'Andale Mono';-inkscape-font-specification:'Andale Mono, Normal';text-align:start;letter-spacing:0px;word-spacing:0px;writing-mode:lr-tb;text-anchor:start;fill:url(#linearGradient9298);fill-opacity:1;stroke:none;stroke-width:1px;stroke-linecap:butt;stroke-linejoin:miter;stroke-opacity:1" />
      <path
         inkscape:connector-curvature="0"
         id="path8131"
         d="m -318.03043,-408.79487 c -0.34237,0 -0.63273,0.1183 -0.86644,0.35198 -0.22827,0.23371 -0.34294,0.52312 -0.34294,0.87094 0,0.35328 0.11829,0.65614 0.35198,0.91156 0.23913,0.25 0.52589,0.37909 0.8574,0.37909 0.33696,0 0.62279,-0.12916 0.86193,-0.37909 0.23911,-0.25542 0.36102,-0.55828 0.36102,-0.91156 0,-0.34239 -0.122,-0.62822 -0.36102,-0.8619 -0.23371,-0.23914 -0.51951,-0.36102 -0.86193,-0.36102 z"
         style="font-style:normal;font-variant:normal;font-weight:normal;font-stretch:normal;font-size:medium;line-height:125%;font-family:'Andale Mono';-inkscape-font-specification:'Andale Mono, Normal';text-align:start;letter-spacing:0px;word-spacing:0px;writing-mode:lr-tb;text-anchor:start;fill:url(#linearGradient9300);fill-opacity:1;stroke:none;stroke-width:1px;stroke-linecap:butt;stroke-linejoin:miter;stroke-opacity:1" />
      <path
         inkscape:connector-curvature="0"
         id="path8095"
         d="m -267.94404,-413.54673 c -1.25,0 -2.19716,0.53943 -2.83849,1.61552 -0.63585,1.07066 -0.95218,2.5223 -0.95218,4.35926 0,1.89133 0.33068,3.36092 0.98829,4.40439 0.65762,1.04349 1.59044,1.56139 2.80238,1.56139 1.25546,0 2.20263,-0.53134 2.83848,-1.60201 0.63589,-1.07609 0.95217,-2.53223 0.95217,-4.36377 0,-1.8913 -0.33065,-3.35639 -0.98826,-4.39986 -0.65219,-1.04892 -1.58498,-1.57492 -2.80239,-1.57492 z m 20.02281,0 c -1.24998,0 -2.19717,0.53943 -2.83847,1.61552 -0.6359,1.07066 -0.95218,2.5223 -0.95218,4.35926 0,1.89133 0.32615,3.36092 0.98376,4.40439 0.65762,1.04349 1.59494,1.56139 2.80689,1.56139 1.25546,0 2.19812,-0.53134 2.83399,-1.60201 0.63587,-1.07609 0.95668,-2.53223 0.95668,-4.36377 0,-1.8913 -0.33067,-3.35639 -0.98829,-4.39986 -0.65216,-1.04892 -1.58498,-1.57492 -2.80238,-1.57492 z m -10.12648,0.15341 -2.48649,1.28159 0,1.33577 2.29696,-1.15075 0,8.93514 -2.43686,0 0,1.16879 6.05152,0 0,-1.16879 -2.27438,0 0,-10.40175 -1.15075,0 z m -9.89633,1.0379 c 0.80436,0 1.40116,0.38086 1.78704,1.14173 0.3913,0.75542 0.58663,1.96781 0.58663,3.64174 0,1.66846 -0.19547,2.88445 -0.58663,3.65078 -0.38588,0.76084 -0.98268,1.14171 -1.78704,1.14171 -0.7989,0 -1.39572,-0.37994 -1.78703,-1.14624 -0.38587,-0.77173 -0.57762,-1.98865 -0.57762,-3.64625 0,-1.63588 0.19547,-2.842 0.58666,-3.61918 0.3913,-0.77719 0.98452,-1.16429 1.77799,-1.16429 z m 20.02281,0 c 0.80438,0 1.39665,0.38086 1.78253,1.14173 0.3913,0.75542 0.58663,1.96781 0.58663,3.64174 0,1.66846 -0.19523,2.88445 -0.58663,3.65078 -0.38588,0.76084 -0.97815,1.14171 -1.78253,1.14171 -0.7989,0 -1.3957,-0.37994 -1.78701,-1.14624 -0.38587,-0.77173 -0.57762,-1.98865 -0.57762,-3.64625 0,-1.63588 0.19523,-2.842 0.58663,-3.61918 0.39131,-0.77719 0.98453,-1.16429 1.778,-1.16429 z m -0.0316,3.56053 c -0.34237,0 -0.63273,0.11829 -0.86644,0.35198 -0.22828,0.23371 -0.34297,0.52312 -0.34297,0.87096 0,0.35326 0.1183,0.65612 0.352,0.91156 0.23912,0.25 0.5259,0.37907 0.85741,0.37907 0.33696,0 0.62282,-0.12916 0.86193,-0.37907 0.23914,-0.25544 0.35651,-0.5583 0.35651,-0.91156 0,-0.34241 -0.11737,-0.62822 -0.35651,-0.86193 -0.23369,-0.23911 -0.51952,-0.36101 -0.86193,-0.36101 z"
         style="font-style:normal;font-variant:normal;font-weight:normal;font-stretch:normal;font-size:medium;line-height:125%;font-family:'Andale Mono';-inkscape-font-specification:'Andale Mono, Normal';text-align:start;letter-spacing:0px;word-spacing:0px;writing-mode:lr-tb;text-anchor:start;fill:url(#linearGradient9302);fill-opacity:1;stroke:none;stroke-width:1px;stroke-linecap:butt;stroke-linejoin:miter;stroke-opacity:1" />
      <path
         inkscape:connector-curvature="0"
         id="path8093"
         d="m -317.99882,-413.54673 c -1.25003,0 -2.19719,0.53943 -2.8385,1.61552 -0.63587,1.07066 -0.95218,2.5223 -0.95218,4.35926 0,1.89133 0.33068,3.36092 0.9883,4.40439 0.65761,1.04349 1.59041,1.56139 2.80238,1.56139 1.25543,0 2.2026,-0.53134 2.83847,-1.60201 0.63587,-1.07609 0.95218,-2.53223 0.95218,-4.36377 0,-1.8913 -0.33066,-3.35639 -0.98827,-4.39986 -0.65219,-1.04892 -1.585,-1.57492 -2.80238,-1.57492 z m 40.04563,0 c -1.25002,0 -2.19719,0.53943 -2.83849,1.61552 -0.63585,1.07066 -0.95218,2.5223 -0.95218,4.35926 0,1.89133 0.32617,3.36092 0.98376,4.40439 0.65762,1.04349 1.59494,1.56139 2.80691,1.56139 1.25544,0 2.1981,-0.53134 2.83397,-1.60201 0.63587,-1.07609 0.95668,-2.53223 0.95668,-4.36377 0,-1.8913 -0.33067,-3.35639 -0.98827,-4.39986 -0.65218,-1.04892 -1.58497,-1.57492 -2.80238,-1.57492 z m -30.1493,0.15341 -2.48649,1.28159 0,1.33577 2.30146,-1.15075 0,8.93514 -2.44136,0 0,1.16879 6.05152,0 0,-1.16879 -2.27439,0 0,-10.40175 -1.15074,0 z m -9.89633,1.0379 c 0.80433,0 1.40115,0.38086 1.78701,1.14173 0.3913,0.75542 0.58666,1.96781 0.58666,3.64174 0,1.66846 -0.19524,2.88445 -0.58666,3.65078 -0.38586,0.76084 -0.98268,1.14171 -1.78701,1.14171 -0.79893,0 -1.39573,-0.37994 -1.78703,-1.14624 -0.38588,-0.77173 -0.57763,-1.98865 -0.57763,-3.64625 0,-1.63588 0.19524,-2.842 0.58664,-3.61918 0.3913,-0.77719 0.98452,-1.16429 1.77802,-1.16429 z m 40.04563,0 c 0.80433,0 1.39665,0.38086 1.78251,1.14173 0.3913,0.75542 0.58666,1.96781 0.58666,3.64174 0,1.66846 -0.19547,2.88445 -0.58666,3.65078 -0.38586,0.76084 -0.97818,1.14171 -1.78251,1.14171 -0.79892,0 -1.39572,-0.37994 -1.78703,-1.14624 -0.38587,-0.77173 -0.57762,-1.98865 -0.57762,-3.64625 0,-1.63588 0.19523,-2.842 0.58666,-3.61918 0.3913,-0.77719 0.9845,-1.16429 1.77799,-1.16429 z m -0.036,3.56053 c -0.34242,0 -0.62822,0.11829 -0.86193,0.35198 -0.22828,0.23371 -0.34297,0.52312 -0.34297,0.87096 0,0.35326 0.1183,0.65612 0.352,0.91156 0.23914,0.25 0.52137,0.37907 0.8529,0.37907 0.33694,0 0.6273,-0.12916 0.86644,-0.37907 0.23913,-0.25544 0.35648,-0.5583 0.35648,-0.91156 0,-0.34241 -0.11737,-0.62822 -0.35648,-0.86193 -0.23371,-0.23911 -0.52407,-0.36101 -0.86644,-0.36101 z"
         style="font-style:normal;font-variant:normal;font-weight:normal;font-stretch:normal;font-size:medium;line-height:125%;font-family:'Andale Mono';-inkscape-font-specification:'Andale Mono, Normal';text-align:start;letter-spacing:0px;word-spacing:0px;writing-mode:lr-tb;text-anchor:start;fill:url(#linearGradient9304);fill-opacity:1;stroke:none;stroke-width:1px;stroke-linecap:butt;stroke-linejoin:miter;stroke-opacity:1" />
      <path
         inkscape:connector-curvature="0"
         id="path8113"
         d="m -298.09334,-413.39332 -2.48199,1.28161 0,1.33575 2.29696,-1.15072 0,8.93511 -2.43686,0 0,1.16879 6.04702,0 0,-1.16879 -2.27439,0 0,-10.40175 -1.15074,0 z m 10.01365,0 -2.48649,1.28161 0,1.33575 2.29696,-1.15072 0,8.93511 -2.43683,0 0,1.16879 6.05152,0 0,-1.16879 -2.27441,0 0,-10.40175 -1.15075,0 z"
         style="font-style:normal;font-variant:normal;font-weight:normal;font-stretch:normal;font-size:medium;line-height:125%;font-family:'Andale Mono';-inkscape-font-specification:'Andale Mono, Normal';text-align:start;letter-spacing:0px;word-spacing:0px;writing-mode:lr-tb;text-anchor:start;fill:url(#linearGradient9306);fill-opacity:1;stroke:none;stroke-width:1px;stroke-linecap:butt;stroke-linejoin:miter;stroke-opacity:1" />
      <path
         inkscape:connector-curvature="0"
         id="path8111"
         d="m -328.12532,-413.39332 -2.48649,1.28161 0,1.33575 2.30149,-1.15072 0,8.93511 -2.43687,0 0,1.16879 6.04702,0 0,-1.16879 -2.27441,0 0,-10.40175 -1.15074,0 z"
         style="font-style:normal;font-variant:normal;font-weight:normal;font-stretch:normal;font-size:medium;line-height:125%;font-family:'Andale Mono';-inkscape-font-specification:'Andale Mono, Normal';text-align:start;letter-spacing:0px;word-spacing:0px;writing-mode:lr-tb;text-anchor:start;fill:url(#linearGradient9308);fill-opacity:1;stroke:none;stroke-width:1px;stroke-linecap:butt;stroke-linejoin:miter;stroke-opacity:1" />
      <path
         inkscape:connector-curvature="0"
         id="path8097"
         d="m -237.91206,-413.54673 c -1.25002,0 -2.19719,0.53943 -2.83849,1.61552 -0.63587,1.07066 -0.95218,2.5223 -0.95218,4.35926 0,1.89133 0.33066,3.36092 0.98827,4.40439 0.65761,1.04349 1.59043,1.56139 2.8024,1.56139 1.25544,0 2.2026,-0.53134 2.83848,-1.60201 0.63587,-1.07609 0.95218,-2.53223 0.95218,-4.36377 0,-1.8913 -0.32615,-3.35639 -0.98377,-4.39986 -0.65218,-1.04892 -1.58951,-1.57492 -2.80689,-1.57492 z m 0,1.19133 c 0.80434,0 1.40116,0.38084 1.78701,1.14171 0.39131,0.75545 0.58666,1.96783 0.58666,3.64174 0,1.66848 -0.19523,2.88445 -0.58666,3.65078 -0.38585,0.76087 -0.98267,1.14171 -1.78701,1.14171 -0.79892,0 -1.39572,-0.37992 -1.78703,-1.14622 -0.38587,-0.77175 -0.57762,-1.98865 -0.57762,-3.64627 0,-1.63588 0.19523,-2.842 0.58663,-3.61916 0.39131,-0.77718 0.98453,-1.16429 1.77802,-1.16429 z"
         style="font-style:normal;font-variant:normal;font-weight:normal;font-stretch:normal;font-size:medium;line-height:125%;font-family:'Andale Mono';-inkscape-font-specification:'Andale Mono, Normal';text-align:start;letter-spacing:0px;word-spacing:0px;writing-mode:lr-tb;text-anchor:start;fill:url(#linearGradient9310);fill-opacity:1;stroke:none;stroke-width:1px;stroke-linecap:butt;stroke-linejoin:miter;stroke-opacity:1" />
      <path
         inkscape:connector-curvature="0"
         id="path8083"
         d="m -267.97562,-429.66609 c -0.34239,0 -0.63275,0.1183 -0.86644,0.352 -0.22827,0.23369 -0.34297,0.5231 -0.34297,0.87095 0,0.35325 0.1183,0.66064 0.35198,0.91606 0.23914,0.25 0.5259,0.37456 0.85743,0.37456 0.33696,0 0.62279,-0.12454 0.86191,-0.37456 0.23913,-0.25542 0.36101,-0.56281 0.36101,-0.91606 0,-0.3424 -0.12199,-0.62823 -0.36101,-0.86194 -0.23369,-0.23911 -0.51952,-0.36101 -0.86191,-0.36101 z"
         style="font-style:normal;font-variant:normal;font-weight:normal;font-stretch:normal;font-size:medium;line-height:125%;font-family:'Andale Mono';-inkscape-font-specification:'Andale Mono, Normal';text-align:start;letter-spacing:0px;word-spacing:0px;writing-mode:lr-tb;text-anchor:start;fill:url(#linearGradient9312);fill-opacity:1;stroke:none;stroke-width:1px;stroke-linecap:butt;stroke-linejoin:miter;stroke-opacity:1" />
      <path
         inkscape:connector-curvature="0"
         id="path8081"
         d="m -318.03043,-429.66609 c -0.34237,0 -0.63273,0.1183 -0.86644,0.352 -0.22827,0.23369 -0.34294,0.5231 -0.34294,0.87095 0,0.35325 0.11829,0.66064 0.35198,0.91606 0.23913,0.25 0.52589,0.37456 0.8574,0.37456 0.33696,0 0.62279,-0.12454 0.86193,-0.37456 0.23911,-0.25542 0.36102,-0.56281 0.36102,-0.91606 0,-0.3424 -0.122,-0.62823 -0.36102,-0.86194 -0.23371,-0.23911 -0.51951,-0.36101 -0.86193,-0.36101 z"
         style="font-style:normal;font-variant:normal;font-weight:normal;font-stretch:normal;font-size:medium;line-height:125%;font-family:'Andale Mono';-inkscape-font-specification:'Andale Mono, Normal';text-align:start;letter-spacing:0px;word-spacing:0px;writing-mode:lr-tb;text-anchor:start;fill:url(#linearGradient9314);fill-opacity:1;stroke:none;stroke-width:1px;stroke-linecap:butt;stroke-linejoin:miter;stroke-opacity:1" />
      <path
         inkscape:connector-curvature="0"
         id="path8043"
         d="m -267.94404,-434.41796 c -1.25,0 -2.19716,0.53946 -2.83849,1.61555 -0.63585,1.07066 -0.95218,2.5223 -0.95218,4.35927 0,1.8913 0.33068,3.36089 0.98829,4.40438 0.65762,1.04349 1.59044,1.5659 2.80238,1.5659 1.25546,0 2.20263,-0.53585 2.83848,-1.60651 0.63589,-1.0761 0.95217,-2.53227 0.95217,-4.36377 0,-1.89131 -0.33065,-3.3564 -0.98826,-4.39989 -0.65219,-1.04892 -1.58498,-1.57493 -2.80239,-1.57493 z m 30.03198,0 c -1.25002,0 -2.19719,0.53946 -2.83849,1.61555 -0.63587,1.07066 -0.95218,2.5223 -0.95218,4.35927 0,1.8913 0.33066,3.36089 0.98827,4.40438 0.65761,1.04349 1.59043,1.5659 2.8024,1.5659 1.25544,0 2.2026,-0.53585 2.83848,-1.60651 0.63587,-1.0761 0.95218,-2.53227 0.95218,-4.36377 0,-1.89131 -0.32615,-3.3564 -0.98377,-4.39989 -0.65218,-1.04892 -1.58951,-1.57493 -2.80689,-1.57493 z m -20.13565,0.15804 -2.48649,1.27711 0,1.34025 2.29696,-1.15072 0,8.93511 -2.43686,0 0,1.16429 6.05152,0 0,-1.16429 -2.27438,0 0,-10.40175 -1.15075,0 z m -9.89633,1.03342 c 0.80436,0 1.40116,0.38084 1.78704,1.14171 0.3913,0.75544 0.58663,1.9678 0.58663,3.64174 0,1.66848 -0.19547,2.88895 -0.58663,3.65528 -0.38588,0.76087 -0.98268,1.14171 -1.78704,1.14171 -0.7989,0 -1.39572,-0.38442 -1.78703,-1.15075 -0.38587,-0.77173 -0.57762,-1.98862 -0.57762,-3.64624 0,-1.63588 0.19547,-2.84201 0.58666,-3.61919 0.3913,-0.77716 0.98452,-1.16426 1.77799,-1.16426 z m 30.03198,0 c 0.80434,0 1.40116,0.38084 1.78701,1.14171 0.39131,0.75544 0.58666,1.9678 0.58666,3.64174 0,1.66848 -0.19523,2.88895 -0.58666,3.65528 -0.38585,0.76087 -0.98267,1.14171 -1.78701,1.14171 -0.79892,0 -1.39572,-0.38442 -1.78703,-1.15075 -0.38587,-0.77173 -0.57762,-1.98862 -0.57762,-3.64624 0,-1.63588 0.19523,-2.84201 0.58663,-3.61919 0.39131,-0.77716 0.98453,-1.16426 1.77802,-1.16426 z m -0.0317,3.5605 c -0.34239,0 -0.63273,0.1183 -0.86644,0.352 -0.22827,0.23369 -0.33844,0.5231 -0.33844,0.87095 0,0.35325 0.11368,0.66064 0.34748,0.91606 0.23913,0.25 0.52589,0.37456 0.8574,0.37456 0.33696,0 0.6228,-0.12454 0.86193,-0.37456 0.23914,-0.25542 0.36102,-0.56281 0.36102,-0.91606 0,-0.3424 -0.122,-0.62823 -0.36102,-0.86193 -0.2337,-0.23912 -0.51954,-0.36102 -0.86193,-0.36102 z"
         style="font-style:normal;font-variant:normal;font-weight:normal;font-stretch:normal;font-size:medium;line-height:125%;font-family:'Andale Mono';-inkscape-font-specification:'Andale Mono, Normal';text-align:start;letter-spacing:0px;word-spacing:0px;writing-mode:lr-tb;text-anchor:start;fill:url(#linearGradient9316);fill-opacity:1;stroke:none;stroke-width:1px;stroke-linecap:butt;stroke-linejoin:miter;stroke-opacity:1" />
      <path
         inkscape:connector-curvature="0"
         id="path8041"
         d="m -317.99882,-434.41796 c -1.25003,0 -2.19719,0.53946 -2.8385,1.61555 -0.63587,1.07066 -0.95218,2.5223 -0.95218,4.35927 0,1.8913 0.33068,3.36089 0.9883,4.40438 0.65761,1.04349 1.59041,1.5659 2.80238,1.5659 1.25543,0 2.2026,-0.53585 2.83847,-1.60651 0.63587,-1.0761 0.95218,-2.53227 0.95218,-4.36377 0,-1.89131 -0.33066,-3.3564 -0.98827,-4.39989 -0.65219,-1.04892 -1.585,-1.57493 -2.80238,-1.57493 z m 20.0228,0 c -1.25,0 -2.19716,0.53946 -2.83847,1.61555 -0.63589,1.07066 -0.95218,2.5223 -0.95218,4.35927 0,1.8913 0.32615,3.36089 0.98377,4.40438 0.65761,1.04349 1.59493,1.5659 2.80688,1.5659 1.25544,0 2.1981,-0.53585 2.83397,-1.60651 0.63587,-1.0761 0.95671,-2.53227 0.95671,-4.36377 0,-1.89131 -0.33068,-3.3564 -0.98829,-4.39989 -0.65217,-1.04892 -1.58498,-1.57493 -2.80239,-1.57493 z m -10.12647,0.15804 -2.48649,1.27711 0,1.34025 2.30146,-1.15072 0,8.93511 -2.44136,0 0,1.16429 6.05152,0 0,-1.16429 -2.27439,0 0,-10.40175 -1.15074,0 z m -9.89633,1.03342 c 0.80433,0 1.40115,0.38084 1.78701,1.14171 0.3913,0.75544 0.58666,1.9678 0.58666,3.64174 0,1.66848 -0.19524,2.88895 -0.58666,3.65528 -0.38586,0.76087 -0.98268,1.14171 -1.78701,1.14171 -0.79893,0 -1.39573,-0.38442 -1.78703,-1.15075 -0.38588,-0.77173 -0.57763,-1.98862 -0.57763,-3.64624 0,-1.63588 0.19524,-2.84201 0.58664,-3.61919 0.3913,-0.77716 0.98452,-1.16426 1.77802,-1.16426 z m 20.0228,0 c 0.80436,0 1.39665,0.38084 1.78253,1.14171 0.39131,0.75544 0.58664,1.9678 0.58664,3.64174 0,1.66848 -0.19547,2.88895 -0.58664,3.65528 -0.38588,0.76087 -0.97817,1.14171 -1.78253,1.14171 -0.79892,0 -1.39572,-0.38442 -1.78703,-1.15075 -0.38585,-0.77173 -0.57762,-1.98862 -0.57762,-3.64624 0,-1.63588 0.19523,-2.84201 0.58666,-3.61919 0.3913,-0.77716 0.98452,-1.16426 1.77799,-1.16426 z m -0.0317,3.5605 c -0.34239,0 -0.63273,0.1183 -0.86644,0.352 -0.22827,0.23369 -0.34297,0.5231 -0.34297,0.87095 0,0.35325 0.1183,0.66064 0.35201,0.91606 0.23913,0.25 0.52589,0.37456 0.8574,0.37456 0.33696,0 0.6228,-0.12454 0.86193,-0.37456 0.23914,-0.25542 0.36102,-0.56281 0.36102,-0.91606 0,-0.3424 -0.122,-0.62823 -0.36102,-0.86193 -0.23371,-0.23912 -0.51954,-0.36102 -0.86193,-0.36102 z"
         style="font-style:normal;font-variant:normal;font-weight:normal;font-stretch:normal;font-size:medium;line-height:125%;font-family:'Andale Mono';-inkscape-font-specification:'Andale Mono, Normal';text-align:start;letter-spacing:0px;word-spacing:0px;writing-mode:lr-tb;text-anchor:start;fill:url(#linearGradient9318);fill-opacity:1;stroke:none;stroke-width:1px;stroke-linecap:butt;stroke-linejoin:miter;stroke-opacity:1" />
      <path
         inkscape:connector-curvature="0"
         id="path8057"
         d="m -248.03856,-434.26001 -2.48649,1.2771 0,1.34026 2.30147,-1.15073 0,8.93512 -2.43684,0 0,1.16428 6.04699,0 0,-1.16428 -2.27438,0 0,-10.40175 -1.15075,0 z"
         style="font-style:normal;font-variant:normal;font-weight:normal;font-stretch:normal;font-size:medium;line-height:125%;font-family:'Andale Mono';-inkscape-font-specification:'Andale Mono, Normal';text-align:start;letter-spacing:0px;word-spacing:0px;writing-mode:lr-tb;text-anchor:start;fill:url(#linearGradient9320);fill-opacity:1;stroke:none;stroke-width:1px;stroke-linecap:butt;stroke-linejoin:miter;stroke-opacity:1" />
      <path
         inkscape:connector-curvature="0"
         id="path8055"
         d="m -288.07969,-434.26001 -2.48649,1.2771 0,1.34026 2.29696,-1.15073 0,8.93512 -2.43683,0 0,1.16428 6.05152,0 0,-1.16428 -2.27441,0 0,-10.40175 -1.15075,0 z m 10.00918,0 -2.48652,1.2771 0,1.34026 2.30149,-1.15073 0,8.93512 -2.43686,0 0,1.16428 6.04702,0 0,-1.16428 -2.27441,0 0,-10.40175 -1.15072,0 z"
         style="font-style:normal;font-variant:normal;font-weight:normal;font-stretch:normal;font-size:medium;line-height:125%;font-family:'Andale Mono';-inkscape-font-specification:'Andale Mono, Normal';text-align:start;letter-spacing:0px;word-spacing:0px;writing-mode:lr-tb;text-anchor:start;fill:url(#linearGradient9322);fill-opacity:1;stroke:none;stroke-width:1px;stroke-linecap:butt;stroke-linejoin:miter;stroke-opacity:1" />
      <path
         inkscape:connector-curvature="0"
         id="path8053"
         d="m -328.12532,-434.26001 -2.48649,1.2771 0,1.34026 2.30149,-1.15073 0,8.93512 -2.43687,0 0,1.16428 6.04702,0 0,-1.16428 -2.27441,0 0,-10.40175 -1.15074,0 z"
         style="font-style:normal;font-variant:normal;font-weight:normal;font-stretch:normal;font-size:medium;line-height:125%;font-family:'Andale Mono';-inkscape-font-specification:'Andale Mono, Normal';text-align:start;letter-spacing:0px;word-spacing:0px;writing-mode:lr-tb;text-anchor:start;fill:url(#linearGradient9324);fill-opacity:1;stroke:none;stroke-width:1px;stroke-linecap:butt;stroke-linejoin:miter;stroke-opacity:1" />
      <path
         inkscape:connector-curvature="0"
         id="path8029"
         d="m -257.96647,-450.53279 c -0.34239,0 -0.62822,0.1183 -0.86193,0.35201 -0.22828,0.23368 -0.34297,0.5231 -0.34297,0.87094 0,0.35325 0.11367,0.65614 0.34747,0.91156 0.23914,0.25 0.52592,0.37456 0.85743,0.37456 0.33696,0 0.6273,-0.12454 0.86644,-0.37456 0.23911,-0.25542 0.35648,-0.55831 0.35648,-0.91156 0,-0.34239 -0.11737,-0.63273 -0.35648,-0.86644 -0.23371,-0.23911 -0.52405,-0.35651 -0.86644,-0.35651 z"
         style="font-style:normal;font-variant:normal;font-weight:normal;font-stretch:normal;font-size:medium;line-height:125%;font-family:'Andale Mono';-inkscape-font-specification:'Andale Mono, Normal';text-align:start;letter-spacing:0px;word-spacing:0px;writing-mode:lr-tb;text-anchor:start;fill:url(#linearGradient9326);fill-opacity:1;stroke:none;stroke-width:1px;stroke-linecap:butt;stroke-linejoin:miter;stroke-opacity:1" />
      <path
         inkscape:connector-curvature="0"
         id="path8027"
         d="m -287.99845,-450.53279 c -0.34239,0 -0.63275,0.1183 -0.86644,0.35201 -0.22827,0.23368 -0.33844,0.5231 -0.33844,0.87094 0,0.35325 0.11391,0.65614 0.34748,0.91156 0.23913,0.25 0.52587,0.37456 0.8574,0.37456 0.33696,0 0.6228,-0.12454 0.86193,-0.37456 0.23914,-0.25542 0.36102,-0.55831 0.36102,-0.91156 0,-0.34239 -0.122,-0.63273 -0.36102,-0.86644 -0.23371,-0.23911 -0.51954,-0.35651 -0.86193,-0.35651 z"
         style="font-style:normal;font-variant:normal;font-weight:normal;font-stretch:normal;font-size:medium;line-height:125%;font-family:'Andale Mono';-inkscape-font-specification:'Andale Mono, Normal';text-align:start;letter-spacing:0px;word-spacing:0px;writing-mode:lr-tb;text-anchor:start;fill:url(#linearGradient9328);fill-opacity:1;stroke:none;stroke-width:1px;stroke-linecap:butt;stroke-linejoin:miter;stroke-opacity:1" />
      <path
         inkscape:connector-curvature="0"
         id="path8025"
         d="m -318.03043,-450.53279 c -0.34237,0 -0.63273,0.1183 -0.86644,0.35201 -0.22827,0.23368 -0.34294,0.5231 -0.34294,0.87094 0,0.35325 0.11829,0.65614 0.35198,0.91156 0.23913,0.25 0.52589,0.37456 0.8574,0.37456 0.33696,0 0.62279,-0.12454 0.86193,-0.37456 0.23911,-0.25542 0.36102,-0.55831 0.36102,-0.91156 0,-0.34239 -0.122,-0.63273 -0.36102,-0.86644 -0.23371,-0.23911 -0.51951,-0.35651 -0.86193,-0.35651 z"
         style="font-style:normal;font-variant:normal;font-weight:normal;font-stretch:normal;font-size:medium;line-height:125%;font-family:'Andale Mono';-inkscape-font-specification:'Andale Mono, Normal';text-align:start;letter-spacing:0px;word-spacing:0px;writing-mode:lr-tb;text-anchor:start;fill:url(#linearGradient9330);fill-opacity:1;stroke:none;stroke-width:1px;stroke-linecap:butt;stroke-linejoin:miter;stroke-opacity:1" />
      <path
         inkscape:connector-curvature="0"
         id="path7983"
         d="m -287.96687,-455.28465 c -1.24998,0 -2.19264,0.53495 -2.83396,1.61104 -0.63587,1.07066 -0.95669,2.52681 -0.95669,4.36377 0,1.89131 0.33066,3.35639 0.98827,4.39988 0.65762,1.04347 1.59044,1.5659 2.80238,1.5659 1.25546,0 2.20263,-0.53587 2.8385,-1.60651 0.63587,-1.0761 0.95218,-2.52774 0.95218,-4.35927 0,-1.8913 -0.32615,-3.3609 -0.98377,-4.40439 -0.65218,-1.04892 -1.5895,-1.57042 -2.80691,-1.57042 z m 10.01368,0 c -1.25002,0 -2.19719,0.53495 -2.83849,1.61104 -0.63585,1.07066 -0.95218,2.52681 -0.95218,4.36377 0,1.89131 0.32617,3.35639 0.98376,4.39988 0.65762,1.04347 1.59494,1.5659 2.80691,1.5659 1.25544,0 2.1981,-0.53587 2.83397,-1.60651 0.63587,-1.0761 0.95668,-2.52774 0.95668,-4.35927 0,-1.8913 -0.33067,-3.3609 -0.98827,-4.40439 -0.65218,-1.04892 -1.58497,-1.57042 -2.80238,-1.57042 z m -10.01368,1.18683 c 0.80438,0 1.40116,0.38087 1.78704,1.14171 0.3913,0.75544 0.58666,1.97234 0.58666,3.64627 0,1.66848 -0.19524,2.88447 -0.58666,3.65077 -0.38588,0.76088 -0.98266,1.14171 -1.78704,1.14171 -0.7989,0 -1.39119,-0.38442 -1.7825,-1.15074 -0.38588,-0.77173 -0.58213,-1.98412 -0.58213,-3.64174 0,-1.63588 0.19524,-2.842 0.58664,-3.61919 0.3913,-0.77716 0.98452,-1.16879 1.77799,-1.16879 z m 10.01368,0 c 0.80433,0 1.39665,0.38087 1.78251,1.14171 0.3913,0.75544 0.58666,1.97234 0.58666,3.64627 0,1.66848 -0.19547,2.88447 -0.58666,3.65077 -0.38586,0.76088 -0.97818,1.14171 -1.78251,1.14171 -0.79892,0 -1.39572,-0.38442 -1.78703,-1.15074 -0.38587,-0.77173 -0.57762,-1.98412 -0.57762,-3.64174 0,-1.63588 0.19523,-2.842 0.58666,-3.61919 0.3913,-0.77716 0.9845,-1.16879 1.77799,-1.16879 z m -0.036,3.56503 c -0.34242,0 -0.62822,0.1183 -0.86193,0.35201 -0.22828,0.23368 -0.34297,0.5231 -0.34297,0.87094 0,0.35325 0.1183,0.65614 0.352,0.91156 0.23914,0.25 0.52137,0.37456 0.8529,0.37456 0.33694,0 0.6273,-0.12454 0.86644,-0.37456 0.23913,-0.25542 0.35648,-0.55831 0.35648,-0.91156 0,-0.34239 -0.11737,-0.63273 -0.35648,-0.86644 -0.23371,-0.23911 -0.52407,-0.35651 -0.86644,-0.35651 z"
         style="font-style:normal;font-variant:normal;font-weight:normal;font-stretch:normal;font-size:medium;line-height:125%;font-family:'Andale Mono';-inkscape-font-specification:'Andale Mono, Normal';text-align:start;letter-spacing:0px;word-spacing:0px;writing-mode:lr-tb;text-anchor:start;fill:url(#linearGradient9332);fill-opacity:1;stroke:none;stroke-width:1px;stroke-linecap:butt;stroke-linejoin:miter;stroke-opacity:1" />
      <path
         inkscape:connector-curvature="0"
         id="path7981"
         d="m -317.99882,-455.28465 c -1.25003,0 -2.19719,0.53495 -2.8385,1.61104 -0.63587,1.07066 -0.95218,2.52681 -0.95218,4.36377 0,1.89131 0.33068,3.35639 0.9883,4.39988 0.65761,1.04347 1.59041,1.5659 2.80238,1.5659 1.25543,0 2.2026,-0.53587 2.83847,-1.60651 0.63587,-1.0761 0.95218,-2.52774 0.95218,-4.35927 0,-1.8913 -0.33066,-3.3609 -0.98827,-4.40439 -0.65219,-1.04892 -1.585,-1.57042 -2.80238,-1.57042 z m 10.00915,0 c -1.25003,0 -2.19269,0.53495 -2.83399,1.61104 -0.63587,1.07066 -0.95669,2.52681 -0.95669,4.36377 0,1.89131 0.33068,3.35639 0.9883,4.39988 0.65761,1.04347 1.59041,1.5659 2.80238,1.5659 1.25543,0 2.2026,-0.53587 2.83847,-1.60651 0.63587,-1.0761 0.95218,-2.52774 0.95218,-4.35927 0,-1.8913 -0.32615,-3.3609 -0.98377,-4.40439 -0.65218,-1.04892 -1.5895,-1.57042 -2.80688,-1.57042 z m -10.00915,1.18683 c 0.80433,0 1.40115,0.38087 1.78701,1.14171 0.3913,0.75544 0.58666,1.97234 0.58666,3.64627 0,1.66848 -0.19524,2.88447 -0.58666,3.65077 -0.38586,0.76088 -0.98268,1.14171 -1.78701,1.14171 -0.79893,0 -1.39573,-0.38442 -1.78703,-1.15074 -0.38588,-0.77173 -0.57763,-1.98412 -0.57763,-3.64174 0,-1.63588 0.19524,-2.842 0.58664,-3.61919 0.3913,-0.77716 0.98452,-1.16879 1.77802,-1.16879 z m 10.00915,0 c 0.80433,0 1.40115,0.38087 1.78701,1.14171 0.3913,0.75544 0.58666,1.97234 0.58666,3.64627 0,1.66848 -0.19524,2.88447 -0.58666,3.65077 -0.38586,0.76088 -0.98268,1.14171 -1.78701,1.14171 -0.79893,0 -1.39122,-0.38442 -1.78253,-1.15074 -0.38585,-0.77173 -0.57762,-1.98412 -0.57762,-3.64174 0,-1.63588 0.19523,-2.842 0.58666,-3.61919 0.3913,-0.77716 0.97999,-1.16879 1.77349,-1.16879 z m -0.0317,3.56503 c -0.34241,0 -0.62822,0.1183 -0.86193,0.35201 -0.22827,0.23368 -0.34297,0.5231 -0.34297,0.87094 0,0.35325 0.11368,0.65614 0.34748,0.91156 0.23913,0.25 0.52589,0.37456 0.85742,0.37456 0.33694,0 0.6273,-0.12454 0.86644,-0.37456 0.23911,-0.25542 0.35649,-0.55831 0.35649,-0.91156 0,-0.34239 -0.11738,-0.63273 -0.35649,-0.86644 -0.23371,-0.23911 -0.52407,-0.35651 -0.86644,-0.35651 z"
         style="font-style:normal;font-variant:normal;font-weight:normal;font-stretch:normal;font-size:medium;line-height:125%;font-family:'Andale Mono';-inkscape-font-specification:'Andale Mono, Normal';text-align:start;letter-spacing:0px;word-spacing:0px;writing-mode:lr-tb;text-anchor:start;fill:url(#linearGradient9334);fill-opacity:1;stroke:none;stroke-width:1px;stroke-linecap:butt;stroke-linejoin:miter;stroke-opacity:1" />
      <path
         inkscape:connector-curvature="0"
         id="path7997"
         d="m -268.05686,-455.13121 -2.48649,1.28161 0,1.33575 2.29696,-1.15075 0,8.93514 -2.43686,0 0,1.16428 6.04702,0 0,-1.16428 -2.27441,0 0,-10.40175 -1.14622,0 z"
         style="font-style:normal;font-variant:normal;font-weight:normal;font-stretch:normal;font-size:medium;line-height:125%;font-family:'Andale Mono';-inkscape-font-specification:'Andale Mono, Normal';text-align:start;letter-spacing:0px;word-spacing:0px;writing-mode:lr-tb;text-anchor:start;fill:url(#linearGradient9336);fill-opacity:1;stroke:none;stroke-width:1px;stroke-linecap:butt;stroke-linejoin:miter;stroke-opacity:1" />
      <path
         inkscape:connector-curvature="0"
         id="path7995"
         d="m -298.09334,-455.13121 -2.48199,1.28161 0,1.33575 2.29696,-1.15075 0,8.93514 -2.43686,0 0,1.16428 6.04702,0 0,-1.16428 -2.27439,0 0,-10.40175 -1.15074,0 z"
         style="font-style:normal;font-variant:normal;font-weight:normal;font-stretch:normal;font-size:medium;line-height:125%;font-family:'Andale Mono';-inkscape-font-specification:'Andale Mono, Normal';text-align:start;letter-spacing:0px;word-spacing:0px;writing-mode:lr-tb;text-anchor:start;fill:url(#linearGradient9338);fill-opacity:1;stroke:none;stroke-width:1px;stroke-linecap:butt;stroke-linejoin:miter;stroke-opacity:1" />
      <path
         inkscape:connector-curvature="0"
         id="path7985"
         d="m -257.93489,-455.28465 c -1.25,0 -2.19266,0.53495 -2.83396,1.61104 -0.6359,1.07066 -0.95671,2.52681 -0.95671,4.36377 0,1.89131 0.33068,3.35639 0.98829,4.39988 0.65762,1.04347 1.59041,1.5659 2.80238,1.5659 1.25544,0 2.2026,-0.53587 2.8385,-1.60651 0.63585,-1.0761 0.95216,-2.52774 0.95216,-4.35927 0,-1.8913 -0.32615,-3.3609 -0.98377,-4.40439 -0.65216,-1.04892 -1.58951,-1.57042 -2.80689,-1.57042 z m 9.89633,0.15342 -2.48649,1.28161 0,1.33574 2.30147,-1.15072 0,8.93512 -2.43684,0 0,1.16428 6.04699,0 0,-1.16428 -2.27438,0 0,-10.40175 -1.15075,0 z m -9.89633,1.03341 c 0.80436,0 1.40116,0.38084 1.78704,1.14171 0.3913,0.75544 0.58663,1.97234 0.58663,3.64625 0,1.6685 -0.19523,2.88447 -0.58663,3.65077 -0.38588,0.76087 -0.98268,1.14171 -1.78704,1.14171 -0.79892,0 -1.39119,-0.38442 -1.7825,-1.15074 -0.38588,-0.77173 -0.58215,-1.98412 -0.58215,-3.64174 0,-1.63588 0.19986,-2.84201 0.59116,-3.61917 0.39131,-0.77718 0.98,-1.16879 1.77349,-1.16879 z"
         style="font-style:normal;font-variant:normal;font-weight:normal;font-stretch:normal;font-size:medium;line-height:125%;font-family:'Andale Mono';-inkscape-font-specification:'Andale Mono, Normal';text-align:start;letter-spacing:0px;word-spacing:0px;writing-mode:lr-tb;text-anchor:start;fill:url(#linearGradient9340);fill-opacity:1;stroke:none;stroke-width:1px;stroke-linecap:butt;stroke-linejoin:miter;stroke-opacity:1" />
      <path
         inkscape:connector-curvature="0"
         id="path7923"
         d="m -266.91064,-470.50146 a 54.167526,54.167526 0 0 0 -0.52797,-0.19408 54.167526,54.167526 0 0 0 -0.80778,-0.20748 l 0,5.30241 -2.43686,0 0,1.16879 6.04702,0 0,-1.16879 -2.27441,0 0,-4.9008 z"
         style="font-style:normal;font-variant:normal;font-weight:normal;font-stretch:normal;font-size:medium;line-height:125%;font-family:'Andale Mono';-inkscape-font-specification:'Andale Mono, Normal';text-align:start;letter-spacing:0px;word-spacing:0px;writing-mode:lr-tb;text-anchor:start;fill:url(#linearGradient9342);fill-opacity:1;stroke:none;stroke-width:1px;stroke-linecap:butt;stroke-linejoin:miter;stroke-opacity:1" />
      <path
         inkscape:connector-curvature="0"
         id="path7919"
         d="m -255.76879,-465.43821 a 54.167526,54.167526 0 0 0 -1.065,-0.65433 c -0.33727,0.28909 -0.60538,0.70399 -1.1011,0.70399 -0.79892,0 -1.39119,-0.37992 -1.7825,-1.14624 -0.11853,-0.23692 -0.098,-0.79842 -0.18045,-1.11914 a 54.167526,54.167526 0 0 0 -1.41248,-0.68594 c 0.16058,0.89486 0.19039,1.95605 0.5731,2.56322 0.65761,1.04347 1.59043,1.5659 2.80238,1.5659 0.95833,0 1.56837,-0.60344 2.16609,-1.22746 z"
         style="font-style:normal;font-variant:normal;font-weight:normal;font-stretch:normal;font-size:medium;line-height:125%;font-family:'Andale Mono';-inkscape-font-specification:'Andale Mono, Normal';text-align:start;letter-spacing:0px;word-spacing:0px;writing-mode:lr-tb;text-anchor:start;fill:url(#linearGradient9344);fill-opacity:1;stroke:none;stroke-width:1px;stroke-linecap:butt;stroke-linejoin:miter;stroke-opacity:1" />
      <path
         inkscape:connector-curvature="0"
         id="path7915"
         d="m -237.79473,-448.08689 a 54.167526,54.167526 0 0 0 -0.0721,-0.13078 54.167526,54.167526 0 0 0 -1.10562,-1.54787 c -0.0615,0.15042 -0.17606,0.27391 -0.17606,0.45579 0,0.35326 0.11368,0.65614 0.34748,0.91157 0.23914,0.24999 0.52589,0.37455 0.8574,0.37455 0.058,0 0.094,-0.0559 0.14903,-0.0631 z"
         style="font-style:normal;font-variant:normal;font-weight:normal;font-stretch:normal;font-size:medium;line-height:125%;font-family:'Andale Mono';-inkscape-font-specification:'Andale Mono, Normal';text-align:start;letter-spacing:0px;word-spacing:0px;writing-mode:lr-tb;text-anchor:start;fill:url(#linearGradient9346);fill-opacity:1;stroke:none;stroke-width:1px;stroke-linecap:butt;stroke-linejoin:miter;stroke-opacity:1" />
      <path
         inkscape:connector-curvature="0"
         id="path7911"
         d="m -235.76854,-444.55797 a 54.167526,54.167526 0 0 0 -0.55958,-0.97473 c -0.38451,0.59899 -0.87031,1.01534 -1.58394,1.01534 -0.79892,0 -1.39572,-0.38442 -1.78703,-1.15074 -0.38587,-0.77173 -0.57762,-1.98412 -0.57762,-3.64174 0,-0.83846 0.19962,-1.24194 0.30235,-1.8547 a 54.167526,54.167526 0 0 0 -1.01537,-1.41701 c -0.35693,0.94714 -0.713,1.89454 -0.713,3.27171 0,1.89131 0.33066,3.35639 0.98827,4.39988 0.65761,1.04347 1.59043,1.5659 2.8024,1.5659 0.94819,0 1.54832,-0.60302 2.14352,-1.21391 z"
         style="font-style:normal;font-variant:normal;font-weight:normal;font-stretch:normal;font-size:medium;line-height:125%;font-family:'Andale Mono';-inkscape-font-specification:'Andale Mono, Normal';text-align:start;letter-spacing:0px;word-spacing:0px;writing-mode:lr-tb;text-anchor:start;fill:url(#linearGradient9348);fill-opacity:1;stroke:none;stroke-width:1px;stroke-linecap:butt;stroke-linejoin:miter;stroke-opacity:1" />
      <path
         inkscape:connector-curvature="0"
         id="path7899"
         d="m -238.21441,-389.21429 a 54.167526,54.167526 0 0 0 1.34025,-2.18867 l 0,-1.11916 -1.15072,0 -2.48649,1.28161 0,1.33577 2.29696,-1.15074 0,1.84119 z"
         style="font-style:normal;font-variant:normal;font-weight:normal;font-stretch:normal;font-size:medium;line-height:125%;font-family:'Andale Mono';-inkscape-font-specification:'Andale Mono, Normal';text-align:start;letter-spacing:0px;word-spacing:0px;writing-mode:lr-tb;text-anchor:start;fill:url(#linearGradient9350);fill-opacity:1;stroke:none;stroke-width:1px;stroke-linecap:butt;stroke-linejoin:miter;stroke-opacity:1" />
      <path
         inkscape:connector-curvature="0"
         id="path7897"
         d="m -244.89771,-380.95608 0.28428,0 0,-0.30686 a 54.167526,54.167526 0 0 1 -0.28428,0.30686 z"
         style="font-style:normal;font-variant:normal;font-weight:normal;font-stretch:normal;font-size:medium;line-height:125%;font-family:'Andale Mono';-inkscape-font-specification:'Andale Mono, Normal';text-align:start;letter-spacing:0px;word-spacing:0px;writing-mode:lr-tb;text-anchor:start;fill:url(#linearGradient9352);fill-opacity:1;stroke:none;stroke-width:1px;stroke-linecap:butt;stroke-linejoin:miter;stroke-opacity:1" />
      <path
         inkscape:connector-curvature="0"
         id="path7895"
         d="m -244.89771,-380.95608 a 54.167526,54.167526 0 0 0 0.28428,-0.30686 l 0,-0.85741 -2.27438,0 0,-10.40177 -1.15075,0 -2.48649,1.28161 0,1.33577 2.30147,-1.15074 0,8.93513 -2.43684,0 0,1.16427 5.76271,0 z"
         style="font-style:normal;font-variant:normal;font-weight:normal;font-stretch:normal;font-size:medium;line-height:125%;font-family:'Andale Mono';-inkscape-font-specification:'Andale Mono, Normal';text-align:start;letter-spacing:0px;word-spacing:0px;writing-mode:lr-tb;text-anchor:start;fill:url(#linearGradient9354);fill-opacity:1;stroke:none;stroke-width:1px;stroke-linecap:butt;stroke-linejoin:miter;stroke-opacity:1" />
      <path
         inkscape:connector-curvature="0"
         id="path7891"
         d="m -260.85912,-369.78716 a 54.167526,54.167526 0 0 0 1.98109,-0.88901 54.167526,54.167526 0 0 0 1.46661,-0.83935 c -0.20748,-0.0365 -0.2965,-0.29332 -0.52347,-0.29332 -1.25,0 -2.19266,0.53945 -2.83396,1.61554 -0.0594,0.0998 -0.0365,0.2997 -0.0903,0.40614 z"
         style="font-style:normal;font-variant:normal;font-weight:normal;font-stretch:normal;font-size:medium;line-height:125%;font-family:'Andale Mono';-inkscape-font-specification:'Andale Mono, Normal';text-align:start;letter-spacing:0px;word-spacing:0px;writing-mode:lr-tb;text-anchor:start;fill:url(#linearGradient9356);fill-opacity:1;stroke:none;stroke-width:1px;stroke-linecap:butt;stroke-linejoin:miter;stroke-opacity:1" />
      <path
         inkscape:connector-curvature="0"
         id="path7887"
         d="m -268.24639,-366.98928 a 54.167526,54.167526 0 0 0 1.33575,-0.44225 l 0,-4.21937 -1.14622,0 -2.48649,1.27708 0,1.33577 2.29696,-1.14623 0,3.195 z"
         style="font-style:normal;font-variant:normal;font-weight:normal;font-stretch:normal;font-size:medium;line-height:125%;font-family:'Andale Mono';-inkscape-font-specification:'Andale Mono, Normal';text-align:start;letter-spacing:0px;word-spacing:0px;writing-mode:lr-tb;text-anchor:start;fill:url(#linearGradient9358);fill-opacity:1;stroke:none;stroke-width:1px;stroke-linecap:butt;stroke-linejoin:miter;stroke-opacity:1" />
      <path
         inkscape:connector-curvature="0"
         id="path7883"
         d="m -278.25554,-365.08042 a 54.167526,54.167526 0 0 0 1.33575,-0.16242 l 0,-6.40803 -1.15072,0 -2.48652,1.27708 0,1.33577 2.30149,-1.14622 0,5.10385 z"
         style="font-style:normal;font-variant:normal;font-weight:normal;font-stretch:normal;font-size:medium;line-height:125%;font-family:'Andale Mono';-inkscape-font-specification:'Andale Mono, Normal';text-align:start;letter-spacing:0px;word-spacing:0px;writing-mode:lr-tb;text-anchor:start;fill:url(#linearGradient9360);fill-opacity:1;stroke:none;stroke-width:1px;stroke-linecap:butt;stroke-linejoin:miter;stroke-opacity:1" />
      <path
         inkscape:connector-curvature="0"
         id="path7879"
         d="m -288.91001,-365.06237 a 54.167526,54.167526 0 0 0 0.0541,0.009 54.167526,54.167526 0 0 0 1.73738,0.0857 c 0.21442,-0.24699 0.34297,-0.53211 0.34297,-0.86644 0,-0.34239 -0.12199,-0.62822 -0.36101,-0.86193 -0.23371,-0.23913 -0.51954,-0.36101 -0.86193,-0.36101 -0.3424,0 -0.63276,0.11829 -0.86644,0.35198 -0.22828,0.2337 -0.33844,0.52314 -0.33844,0.87096 0,0.29767 0.128,0.54279 0.29332,0.77166 z"
         style="font-style:normal;font-variant:normal;font-weight:normal;font-stretch:normal;font-size:medium;line-height:125%;font-family:'Andale Mono';-inkscape-font-specification:'Andale Mono, Normal';text-align:start;letter-spacing:0px;word-spacing:0px;writing-mode:lr-tb;text-anchor:start;fill:url(#linearGradient9362);fill-opacity:1;stroke:none;stroke-width:1px;stroke-linecap:butt;stroke-linejoin:miter;stroke-opacity:1" />
      <path
         inkscape:connector-curvature="0"
         id="path7875"
         d="m -291.6763,-365.47754 a 54.167526,54.167526 0 0 0 1.43505,0.21649 c -0.009,-0.23868 -0.0903,-0.31266 -0.0903,-0.5731 0,-1.63588 0.19524,-2.842 0.58663,-3.61919 0.39131,-0.77718 0.98455,-1.16428 1.77803,-1.16428 0.80435,0 1.40115,0.38084 1.787,1.14171 0.39131,0.75544 0.58666,1.96785 0.58666,3.64176 0,0.42832 -0.12315,0.56947 -0.14879,0.93864 a 54.167526,54.167526 0 0 0 1.34478,0.0631 c 0.0335,-0.38105 0.22111,-0.58114 0.22111,-1.00183 0,-1.89131 -0.32615,-3.35639 -0.98376,-4.39986 -0.65219,-1.04892 -1.58951,-1.57493 -2.80691,-1.57493 -1.24998,0 -2.19264,0.53943 -2.83397,1.61552 -0.63585,1.07067 -0.95668,2.52233 -0.95668,4.35927 0,0.15318 0.0769,0.20887 0.0813,0.35651 z"
         style="font-style:normal;font-variant:normal;font-weight:normal;font-stretch:normal;font-size:medium;line-height:125%;font-family:'Andale Mono';-inkscape-font-specification:'Andale Mono, Normal';text-align:start;letter-spacing:0px;word-spacing:0px;writing-mode:lr-tb;text-anchor:start;fill:url(#linearGradient9364);fill-opacity:1;stroke:none;stroke-width:1px;stroke-linecap:butt;stroke-linejoin:miter;stroke-opacity:1" />
      <path
         inkscape:connector-curvature="0"
         id="path7871"
         d="m -298.35057,-366.91708 a 54.167526,54.167526 0 0 0 1.2455,0.31587 c -0.0236,-0.027 -0.0139,-0.0691 -0.0407,-0.0947 -0.23368,-0.23916 -0.51954,-0.36102 -0.86191,-0.36102 -0.13562,0 -0.22388,0.10282 -0.34297,0.13979 z"
         style="font-style:normal;font-variant:normal;font-weight:normal;font-stretch:normal;font-size:medium;line-height:125%;font-family:'Andale Mono';-inkscape-font-specification:'Andale Mono, Normal';text-align:start;letter-spacing:0px;word-spacing:0px;writing-mode:lr-tb;text-anchor:start;fill:url(#linearGradient9366);fill-opacity:1;stroke:none;stroke-width:1px;stroke-linecap:butt;stroke-linejoin:miter;stroke-opacity:1" />
      <path
         inkscape:connector-curvature="0"
         id="path7867"
         d="m -301.31991,-367.8828 a 54.167526,54.167526 0 0 0 1.23646,0.45127 c 0.0964,-0.70209 0.11091,-1.5875 0.32944,-2.02169 0.3913,-0.77718 0.98452,-1.16428 1.77799,-1.16428 0.80436,0 1.39665,0.38084 1.78253,1.14171 0.34817,0.67219 0.48514,1.84119 0.52347,3.24012 a 54.167526,54.167526 0 0 0 1.4621,0.37456 54.167526,54.167526 0 0 0 0.0185,0.005 c -0.005,-1.87735 -0.3295,-3.33916 -0.98377,-4.37731 -0.65216,-1.04892 -1.58498,-1.57493 -2.80238,-1.57493 -1.25,0 -2.19719,0.53943 -2.83849,1.61553 -0.33703,0.56752 -0.34745,1.52828 -0.50542,2.3105 z"
         style="font-style:normal;font-variant:normal;font-weight:normal;font-stretch:normal;font-size:medium;line-height:125%;font-family:'Andale Mono';-inkscape-font-specification:'Andale Mono, Normal';text-align:start;letter-spacing:0px;word-spacing:0px;writing-mode:lr-tb;text-anchor:start;fill:url(#linearGradient9368);fill-opacity:1;stroke:none;stroke-width:1px;stroke-linecap:butt;stroke-linejoin:miter;stroke-opacity:1" />
      <path
         inkscape:connector-curvature="0"
         id="path7863"
         d="m -308.97796,-371.19963 a 54.167526,54.167526 0 0 0 2.02621,0.97926 l 0,-1.43053 -1.15074,0 -0.87547,0.45127 z"
         style="font-style:normal;font-variant:normal;font-weight:normal;font-stretch:normal;font-size:medium;line-height:125%;font-family:'Andale Mono';-inkscape-font-specification:'Andale Mono, Normal';text-align:start;letter-spacing:0px;word-spacing:0px;writing-mode:lr-tb;text-anchor:start;fill:url(#linearGradient9370);fill-opacity:1;stroke:none;stroke-width:1px;stroke-linecap:butt;stroke-linejoin:miter;stroke-opacity:1" />
      <path
         inkscape:connector-curvature="0"
         id="path7859"
         d="m -327.65599,-387.76122 a 54.167526,54.167526 0 0 0 0.80777,1.12817 c 0.001,-0.0259 0.027,-0.0414 0.027,-0.0677 0,-0.34237 -0.11737,-0.63273 -0.35651,-0.86643 -0.12869,-0.1317 -0.31596,-0.1354 -0.47834,-0.19409 z"
         style="font-style:normal;font-variant:normal;font-weight:normal;font-stretch:normal;font-size:medium;line-height:125%;font-family:'Andale Mono';-inkscape-font-specification:'Andale Mono, Normal';text-align:start;letter-spacing:0px;word-spacing:0px;writing-mode:lr-tb;text-anchor:start;fill:url(#linearGradient9372);fill-opacity:1;stroke:none;stroke-width:1px;stroke-linecap:butt;stroke-linejoin:miter;stroke-opacity:1" />
      <path
         inkscape:connector-curvature="0"
         id="path7851"
         d="m -337.23645,-413.10451 a 54.167526,54.167526 0 0 0 0.16705,1.35832 c 0.27183,0.18946 0.65468,0.17722 0.83485,0.5325 0.39131,0.75545 0.58666,1.96783 0.58666,3.64174 0,0.81884 -0.19455,1.19035 -0.28881,1.79154 a 54.167526,54.167526 0 0 0 0.29782,1.32223 54.167526,54.167526 0 0 0 0.41968,1.26807 c 0.007,-0.0139 0.0282,-0.005 0.036,-0.0185 0.63587,-1.07609 0.95218,-2.53226 0.95218,-4.36377 0,-1.89133 -0.32615,-3.35639 -0.98376,-4.39989 -0.46957,-0.75523 -1.25837,-0.92078 -2.02169,-1.13269 z"
         style="font-style:normal;font-variant:normal;font-weight:normal;font-stretch:normal;font-size:medium;line-height:125%;font-family:'Andale Mono';-inkscape-font-specification:'Andale Mono, Normal';text-align:start;letter-spacing:0px;word-spacing:0px;writing-mode:lr-tb;text-anchor:start;fill:url(#linearGradient9374);fill-opacity:1;stroke:none;stroke-width:1px;stroke-linecap:butt;stroke-linejoin:miter;stroke-opacity:1" />
      <path
         inkscape:connector-curvature="0"
         id="path7847"
         d="m -336.98373,-426.73735 a 54.167526,54.167526 0 0 0 -0.36102,2.3827 54.167526,54.167526 0 0 0 -0.0813,1.66067 l 2.71663,0 0,-1.16428 -2.27438,0 0,-2.87909 z"
         style="font-style:normal;font-variant:normal;font-weight:normal;font-stretch:normal;font-size:medium;line-height:125%;font-family:'Andale Mono';-inkscape-font-specification:'Andale Mono, Normal';text-align:start;letter-spacing:0px;word-spacing:0px;writing-mode:lr-tb;text-anchor:start;fill:url(#linearGradient9376);fill-opacity:1;stroke:none;stroke-width:1px;stroke-linecap:butt;stroke-linejoin:miter;stroke-opacity:1" />
      <path
         inkscape:connector-curvature="0"
         id="path7843"
         d="m -326.97458,-451.08333 a 54.167526,54.167526 0 0 0 -1.17782,1.54785 54.167526,54.167526 0 0 0 -0.15804,0.25723 l 0,4.54879 -2.43684,0 0,1.16428 6.04699,0 0,-1.16428 -2.27438,0 0,-6.35387 z"
         style="font-style:normal;font-variant:normal;font-weight:normal;font-stretch:normal;font-size:medium;line-height:125%;font-family:'Andale Mono';-inkscape-font-specification:'Andale Mono, Normal';text-align:start;letter-spacing:0px;word-spacing:0px;writing-mode:lr-tb;text-anchor:start;fill:url(#linearGradient9378);fill-opacity:1;stroke:none;stroke-width:1px;stroke-linecap:butt;stroke-linejoin:miter;stroke-opacity:1" />
      <path
         inkscape:connector-curvature="0"
         id="path7839"
         d="m -306.95175,-467.70358 a 54.167526,54.167526 0 0 0 -1.065,0.47834 54.167526,54.167526 0 0 0 -0.27077,0.15342 l 0,1.47114 -2.44136,0 0,1.16879 6.05152,0 0,-1.16879 -2.27439,0 0,-2.1029 z"
         style="font-style:normal;font-variant:normal;font-weight:normal;font-stretch:normal;font-size:medium;line-height:125%;font-family:'Andale Mono';-inkscape-font-specification:'Andale Mono, Normal';text-align:start;letter-spacing:0px;word-spacing:0px;writing-mode:lr-tb;text-anchor:start;fill:url(#linearGradient9380);fill-opacity:1;stroke:none;stroke-width:1px;stroke-linecap:butt;stroke-linejoin:miter;stroke-opacity:1" />
      <path
         inkscape:connector-curvature="0"
         id="path7835"
         d="m -296.9426,-471.36337 a 54.167526,54.167526 0 0 0 -0.9928,0.22112 54.167526,54.167526 0 0 0 -0.34297,0.11275 l 0,5.42877 -2.43686,0 0,1.16879 6.04702,0 0,-1.16879 -2.27439,0 0,-5.7627 z"
         style="font-style:normal;font-variant:normal;font-weight:normal;font-stretch:normal;font-size:medium;line-height:125%;font-family:'Andale Mono';-inkscape-font-specification:'Andale Mono, Normal';text-align:start;letter-spacing:0px;word-spacing:0px;writing-mode:lr-tb;text-anchor:start;fill:url(#linearGradient9382);fill-opacity:1;stroke:none;stroke-width:1px;stroke-linecap:butt;stroke-linejoin:miter;stroke-opacity:1" />
      <path
         inkscape:connector-curvature="0"
         id="path7831"
         d="m -286.92894,-472.99245 a 54.167526,54.167526 0 0 0 -0.34748,0.0139 54.167526,54.167526 0 0 0 -0.9928,0.12176 l 0,7.2564 -2.43683,0 0,1.16879 6.05152,0 0,-1.16879 -2.27441,0 0,-7.39177 z"
         style="font-style:normal;font-variant:normal;font-weight:normal;font-stretch:normal;font-size:medium;line-height:125%;font-family:'Andale Mono';-inkscape-font-specification:'Andale Mono, Normal';text-align:start;letter-spacing:0px;word-spacing:0px;writing-mode:lr-tb;text-anchor:start;fill:url(#linearGradient9384);fill-opacity:1;stroke:none;stroke-width:1px;stroke-linecap:butt;stroke-linejoin:miter;stroke-opacity:1" />
      <path
         inkscape:connector-curvature="0"
         id="path7829"
         d="m -274.64538,-472.33359 a 54.167526,54.167526 0 0 0 -1.3177,-0.19847 c 0.16289,0.69717 0.37906,1.27038 0.37906,2.35109 0,1.66851 -0.19547,2.88448 -0.58666,3.65078 -0.38586,0.76089 -0.97818,1.14171 -1.78251,1.14171 -0.79892,0 -1.39572,-0.3799 -1.78703,-1.14622 -0.38587,-0.77173 -0.57762,-1.98865 -0.57762,-3.64627 0,-1.24626 0.21973,-2.00946 0.44675,-2.75725 a 54.167526,54.167526 0 0 0 -1.25903,-0.0631 c -0.26562,0.86699 -0.61374,1.63211 -0.61374,2.82042 0,1.89131 0.32617,3.3609 0.98376,4.40439 0.65762,1.04347 1.59494,1.5659 2.80691,1.5659 1.25544,0 2.1981,-0.53585 2.83397,-1.60652 0.63587,-1.07609 0.95668,-2.53223 0.95668,-4.36377 0,-0.92523 -0.32501,-1.43079 -0.48284,-2.15255 z m -3.34392,0.92961 c -0.34239,0 -0.62822,0.11829 -0.86191,0.35198 -0.22828,0.2337 -0.34297,0.52314 -0.34297,0.87096 0,0.35326 0.1183,0.65612 0.35198,0.91156 0.23914,0.25 0.52139,0.37906 0.8529,0.37906 0.33694,0 0.6273,-0.12915 0.86644,-0.37906 0.23913,-0.25544 0.35651,-0.5583 0.35651,-0.91156 0,-0.34241 -0.11738,-0.62824 -0.35651,-0.86193 -0.23369,-0.23914 -0.52405,-0.36101 -0.86644,-0.36101 z"
         style="font-style:normal;font-variant:normal;font-weight:normal;font-stretch:normal;font-size:medium;line-height:125%;font-family:'Andale Mono';-inkscape-font-specification:'Andale Mono, Normal';text-align:start;letter-spacing:0px;word-spacing:0px;writing-mode:lr-tb;text-anchor:start;fill:url(#linearGradient6120);fill-opacity:1;stroke:none;stroke-width:1px;stroke-linecap:butt;stroke-linejoin:miter;stroke-opacity:1" />
      <path
         sodipodi:nodetypes="cccccccccccccccccccccccccccccccccccccccccccccccccccccccc"
         inkscape:connector-curvature="0"
         id="path4255"
         d="m -311.58294,-378.05916 3.78807,-9.84899 5.3033,-7.82868 0.75762,-3.53553 2.27284,-1.76777 0.25254,-2.27284 1.26269,-1.2627 0.25254,-4.79822 -1.01016,0.25254 -2.77792,-6.56599 -8.08122,-12.12183 -2.77792,-12.62691 2.27285,-7.07107 0.50507,-3.78807 1.76777,-1.26269 -0.50508,-2.27284 2.52539,0.25253 0.50507,-6.06091 2.52538,-1.51523 1.51523,0.25254 2.27285,-3.53554 2.77792,2.27285 6.31345,-2.27285 0.37881,-1.38895 3.15672,-1.13643 3.283,2.27285 6.06091,-0.50508 -2.14657,-1.6415 6.69226,1.6415 -1.76777,-2.0203 8.5863,5.55583 2.52538,4.79823 -5.3033,3.53553 3.78807,5.05077 4.04061,7.3236 -1.89404,2.52538 4.41942,6.06092 3.283,3.53553 -0.37881,2.39911 -3.03046,1.51523 0.75762,3.66181 -1.01015,2.14657 0.63134,1.13642 -0.88388,3.03046 1.6415,3.28299 -1.38896,3.91435 -4.29315,1.64149 -5.55584,0.75762 -2.52538,4.79822 1.13642,5.80838 1.26269,2.90419 4.04061,3.53553 2.52538,3.15673 3.40927,5.68211 1.13642,2.90418 z"
         style="fill:#ffffff;fill-opacity:1;fill-rule:evenodd;stroke:#003189;stroke-width:2.30999994;stroke-linecap:butt;stroke-linejoin:miter;stroke-miterlimit:4;stroke-dasharray:none;stroke-opacity:1" />
      <g
         transform="matrix(2.3104989,0,0,2.3104989,579.00775,-1575.3338)"
         id="g9441">
        <path
           style="font-style:normal;font-variant:normal;font-weight:normal;font-stretch:normal;font-size:medium;line-height:125%;font-family:'Arial Black';-inkscape-font-specification:'Arial Black, Normal';text-align:start;letter-spacing:0px;word-spacing:0px;writing-mode:lr-tb;text-anchor:start;fill:none;fill-opacity:1;stroke:#e2011c;stroke-width:1.00049043px;stroke-linecap:butt;stroke-linejoin:miter;stroke-opacity:1"
           d="m -372.41274,497.9407 -3.97197,0 0,-0.44173 q 0,-1.12756 0.22996,-1.82501 0.22994,-0.70907 0.6794,-1.29029 0.45991,-0.58122 2.04871,-2.04587 0.84665,-0.7672 0.84665,-1.40655 0,-0.63933 -0.34492,-0.98806 -0.33448,-0.36035 -1.02437,-0.36035 -0.74212,0 -1.23339,0.54635 -0.48082,0.54633 -0.6167,1.90638 l -4.0556,-0.55797 q 0.20905,-2.4876 1.62015,-3.99876 1.42155,-1.52278 4.34827,-1.52278 2.27866,0 3.6793,1.05781 1.90237,1.4298 1.90237,3.81277 0,0.98806 -0.49128,1.90638 -0.49127,0.91832 -2.00688,2.24349 -1.05572,0.92994 -1.33794,1.49952 -0.27176,0.55797 -0.27176,1.46467 z"
           id="path8307"
           inkscape:connector-curvature="0" />
        <circle
           style="color:#000000;clip-rule:nonzero;display:inline;overflow:visible;visibility:visible;opacity:1;isolation:auto;mix-blend-mode:normal;color-interpolation:sRGB;color-interpolation-filters:linearRGB;solid-color:#000000;solid-opacity:1;fill:none;fill-opacity:1;fill-rule:nonzero;stroke:#e2011c;stroke-width:1.07599998;stroke-linecap:butt;stroke-linejoin:miter;stroke-miterlimit:4;stroke-dasharray:none;stroke-dashoffset:0;stroke-opacity:1;color-rendering:auto;image-rendering:auto;shape-rendering:auto;text-rendering:auto;enable-background:accumulate"
           id="path8309"
           cx="-374.36453"
           cy="501.97656"
           r="2.2767856" />
      </g>
    </g>
  </g>
</svg>
