<?xml version="1.0" encoding="UTF-8" standalone="no"?>
<!-- Created with Inkscape (http://www.inkscape.org/) -->

<svg
   xmlns:dc="http://purl.org/dc/elements/1.1/"
   xmlns:cc="http://creativecommons.org/ns#"
   xmlns:rdf="http://www.w3.org/1999/02/22-rdf-syntax-ns#"
   xmlns:svg="http://www.w3.org/2000/svg"
   xmlns="http://www.w3.org/2000/svg"
   xmlns:xlink="http://www.w3.org/1999/xlink"
   xmlns:sodipodi="http://sodipodi.sourceforge.net/DTD/sodipodi-0.dtd"
   xmlns:inkscape="http://www.inkscape.org/namespaces/inkscape"
   width="31.27627mm"
   height="31.27627mm"
   viewBox="0 0 110.82143 110.82143"
   id="svg8912"
   version="1.1"
   inkscape:version="0.91 r13725"
   sodipodi:docname="matchID-logo.svg"
   inkscape:export-filename="./matchID-logo.png"
   inkscape:export-xdpi="600.44678"
   inkscape:export-ydpi="600.44678">
  <defs
     id="defs8914">
    <linearGradient
       inkscape:collect="always"
       xlink:href="#linearGradient6928"
       id="linearGradient6120"
       gradientUnits="userSpaceOnUse"
       gradientTransform="matrix(0.18888269,0,0,0.18888269,-576.34047,145.07451)"
       x1="1342.1211"
       y1="1866.8776"
       x2="808.50244"
       y2="1866.8776" />
    <linearGradient
       id="linearGradient6928">
      <stop
         style="stop-color:#174791;stop-opacity:1;"
         offset="0"
         id="stop6930" />
      <stop
         style="stop-color:#c2001f;stop-opacity:0.31123918"
         offset="1"
         id="stop6934" />
    </linearGradient>
    <linearGradient
       inkscape:collect="always"
       xlink:href="#linearGradient6928"
       id="linearGradient9286"
       gradientUnits="userSpaceOnUse"
       gradientTransform="matrix(0.18888269,0,0,0.18888269,-576.34047,145.07451)"
       x1="1342.1211"
       y1="1866.8776"
       x2="808.50244"
       y2="1866.8776" />
    <linearGradient
       inkscape:collect="always"
       xlink:href="#linearGradient6928"
       id="linearGradient9288"
       gradientUnits="userSpaceOnUse"
       gradientTransform="matrix(0.18888269,0,0,0.18888269,-576.34047,145.07451)"
       x1="1342.1211"
       y1="1866.8776"
       x2="808.50244"
       y2="1866.8776" />
    <linearGradient
       inkscape:collect="always"
       xlink:href="#linearGradient6928"
       id="linearGradient9290"
       gradientUnits="userSpaceOnUse"
       gradientTransform="matrix(0.18888269,0,0,0.18888269,-576.34047,145.07451)"
       x1="1342.1211"
       y1="1866.8776"
       x2="808.50244"
       y2="1866.8776" />
    <linearGradient
       inkscape:collect="always"
       xlink:href="#linearGradient6928"
       id="linearGradient9292"
       gradientUnits="userSpaceOnUse"
       gradientTransform="matrix(0.18888269,0,0,0.18888269,-576.34047,145.07451)"
       x1="1342.1211"
       y1="1866.8776"
       x2="808.50244"
       y2="1866.8776" />
    <linearGradient
       inkscape:collect="always"
       xlink:href="#linearGradient6928"
       id="linearGradient9294"
       gradientUnits="userSpaceOnUse"
       gradientTransform="matrix(0.18888269,0,0,0.18888269,-576.34047,145.07451)"
       x1="1342.1211"
       y1="1866.8776"
       x2="808.50244"
       y2="1866.8776" />
    <linearGradient
       inkscape:collect="always"
       xlink:href="#linearGradient6928"
       id="linearGradient9296"
       gradientUnits="userSpaceOnUse"
       gradientTransform="matrix(0.18888269,0,0,0.18888269,-576.34047,145.07451)"
       x1="1342.1211"
       y1="1866.8776"
       x2="808.50244"
       y2="1866.8776" />
    <linearGradient
       inkscape:collect="always"
       xlink:href="#linearGradient6928"
       id="linearGradient9298"
       gradientUnits="userSpaceOnUse"
       gradientTransform="matrix(0.18888269,0,0,0.18888269,-576.34047,145.07451)"
       x1="1342.1211"
       y1="1866.8776"
       x2="808.50244"
       y2="1866.8776" />
    <linearGradient
       inkscape:collect="always"
       xlink:href="#linearGradient6928"
       id="linearGradient9300"
       gradientUnits="userSpaceOnUse"
       gradientTransform="matrix(0.18888269,0,0,0.18888269,-576.34047,145.07451)"
       x1="1342.1211"
       y1="1866.8776"
       x2="808.50244"
       y2="1866.8776" />
    <linearGradient
       inkscape:collect="always"
       xlink:href="#linearGradient6928"
       id="linearGradient9302"
       gradientUnits="userSpaceOnUse"
       gradientTransform="matrix(0.18888269,0,0,0.18888269,-576.34047,145.07451)"
       x1="1342.1211"
       y1="1866.8776"
       x2="808.50244"
       y2="1866.8776" />
    <linearGradient
       inkscape:collect="always"
       xlink:href="#linearGradient6928"
       id="linearGradient9304"
       gradientUnits="userSpaceOnUse"
       gradientTransform="matrix(0.18888269,0,0,0.18888269,-576.34047,145.07451)"
       x1="1342.1211"
       y1="1866.8776"
       x2="808.50244"
       y2="1866.8776" />
    <linearGradient
       inkscape:collect="always"
       xlink:href="#linearGradient6928"
       id="linearGradient9306"
       gradientUnits="userSpaceOnUse"
       gradientTransform="matrix(0.18888269,0,0,0.18888269,-576.34047,145.07451)"
       x1="1342.1211"
       y1="1866.8776"
       x2="808.50244"
       y2="1866.8776" />
    <linearGradient
       inkscape:collect="always"
       xlink:href="#linearGradient6928"
       id="linearGradient9308"
       gradientUnits="userSpaceOnUse"
       gradientTransform="matrix(0.18888269,0,0,0.18888269,-576.34047,145.07451)"
       x1="1342.1211"
       y1="1866.8776"
       x2="808.50244"
       y2="1866.8776" />
    <linearGradient
       inkscape:collect="always"
       xlink:href="#linearGradient6928"
       id="linearGradient9310"
       gradientUnits="userSpaceOnUse"
       gradientTransform="matrix(0.18888269,0,0,0.18888269,-576.34047,145.07451)"
       x1="1342.1211"
       y1="1866.8776"
       x2="808.50244"
       y2="1866.8776" />
    <linearGradient
       inkscape:collect="always"
       xlink:href="#linearGradient6928"
       id="linearGradient9312"
       gradientUnits="userSpaceOnUse"
       gradientTransform="matrix(0.18888269,0,0,0.18888269,-576.34047,145.07451)"
       x1="1342.1211"
       y1="1866.8776"
       x2="808.50244"
       y2="1866.8776" />
    <linearGradient
       inkscape:collect="always"
       xlink:href="#linearGradient6928"
       id="linearGradient9314"
       gradientUnits="userSpaceOnUse"
       gradientTransform="matrix(0.18888269,0,0,0.18888269,-576.34047,145.07451)"
       x1="1342.1211"
       y1="1866.8776"
       x2="808.50244"
       y2="1866.8776" />
    <linearGradient
       inkscape:collect="always"
       xlink:href="#linearGradient6928"
       id="linearGradient9316"
       gradientUnits="userSpaceOnUse"
       gradientTransform="matrix(0.18888269,0,0,0.18888269,-576.34047,145.07451)"
       x1="1342.1211"
       y1="1866.8776"
       x2="808.50244"
       y2="1866.8776" />
    <linearGradient
       inkscape:collect="always"
       xlink:href="#linearGradient6928"
       id="linearGradient9318"
       gradientUnits="userSpaceOnUse"
       gradientTransform="matrix(0.18888269,0,0,0.18888269,-576.34047,145.07451)"
       x1="1342.1211"
       y1="1866.8776"
       x2="808.50244"
       y2="1866.8776" />
    <linearGradient
       inkscape:collect="always"
       xlink:href="#linearGradient6928"
       id="linearGradient9320"
       gradientUnits="userSpaceOnUse"
       gradientTransform="matrix(0.18888269,0,0,0.18888269,-576.34047,145.07451)"
       x1="1342.1211"
       y1="1866.8776"
       x2="808.50244"
       y2="1866.8776" />
    <linearGradient
       inkscape:collect="always"
       xlink:href="#linearGradient6928"
       id="linearGradient9322"
       gradientUnits="userSpaceOnUse"
       gradientTransform="matrix(0.18888269,0,0,0.18888269,-576.34047,145.07451)"
       x1="1342.1211"
       y1="1866.8776"
       x2="808.50244"
       y2="1866.8776" />
    <linearGradient
       inkscape:collect="always"
       xlink:href="#linearGradient6928"
       id="linearGradient9324"
       gradientUnits="userSpaceOnUse"
       gradientTransform="matrix(0.18888269,0,0,0.18888269,-576.34047,145.07451)"
       x1="1342.1211"
       y1="1866.8776"
       x2="808.50244"
       y2="1866.8776" />
    <linearGradient
       inkscape:collect="always"
       xlink:href="#linearGradient6928"
       id="linearGradient9326"
       gradientUnits="userSpaceOnUse"
       gradientTransform="matrix(0.18888269,0,0,0.18888269,-576.34047,145.07451)"
       x1="1342.1211"
       y1="1866.8776"
       x2="808.50244"
       y2="1866.8776" />
    <linearGradient
       inkscape:collect="always"
       xlink:href="#linearGradient6928"
       id="linearGradient9328"
       gradientUnits="userSpaceOnUse"
       gradientTransform="matrix(0.18888269,0,0,0.18888269,-576.34047,145.07451)"
       x1="1342.1211"
       y1="1866.8776"
       x2="808.50244"
       y2="1866.8776" />
    <linearGradient
       inkscape:collect="always"
       xlink:href="#linearGradient6928"
       id="linearGradient9330"
       gradientUnits="userSpaceOnUse"
       gradientTransform="matrix(0.18888269,0,0,0.18888269,-576.34047,145.07451)"
       x1="1342.1211"
       y1="1866.8776"
       x2="808.50244"
       y2="1866.8776" />
    <linearGradient
       inkscape:collect="always"
       xlink:href="#linearGradient6928"
       id="linearGradient9332"
       gradientUnits="userSpaceOnUse"
       gradientTransform="matrix(0.18888269,0,0,0.18888269,-576.34047,145.07451)"
       x1="1342.1211"
       y1="1866.8776"
       x2="808.50244"
       y2="1866.8776" />
    <linearGradient
       inkscape:collect="always"
       xlink:href="#linearGradient6928"
       id="linearGradient9334"
       gradientUnits="userSpaceOnUse"
       gradientTransform="matrix(0.18888269,0,0,0.18888269,-576.34047,145.07451)"
       x1="1342.1211"
       y1="1866.8776"
       x2="808.50244"
       y2="1866.8776" />
    <linearGradient
       inkscape:collect="always"
       xlink:href="#linearGradient6928"
       id="linearGradient9336"
       gradientUnits="userSpaceOnUse"
       gradientTransform="matrix(0.18888269,0,0,0.18888269,-576.34047,145.07451)"
       x1="1342.1211"
       y1="1866.8776"
       x2="808.50244"
       y2="1866.8776" />
    <linearGradient
       inkscape:collect="always"
       xlink:href="#linearGradient6928"
       id="linearGradient9338"
       gradientUnits="userSpaceOnUse"
       gradientTransform="matrix(0.18888269,0,0,0.18888269,-576.34047,145.07451)"
       x1="1342.1211"
       y1="1866.8776"
       x2="808.50244"
       y2="1866.8776" />
    <linearGradient
       inkscape:collect="always"
       xlink:href="#linearGradient6928"
       id="linearGradient9340"
       gradientUnits="userSpaceOnUse"
       gradientTransform="matrix(0.18888269,0,0,0.18888269,-576.34047,145.07451)"
       x1="1342.1211"
       y1="1866.8776"
       x2="808.50244"
       y2="1866.8776" />
    <linearGradient
       inkscape:collect="always"
       xlink:href="#linearGradient6928"
       id="linearGradient9342"
       gradientUnits="userSpaceOnUse"
       gradientTransform="matrix(0.18888269,0,0,0.18888269,-576.34047,145.07451)"
       x1="1342.1211"
       y1="1866.8776"
       x2="808.50244"
       y2="1866.8776" />
    <linearGradient
       inkscape:collect="always"
       xlink:href="#linearGradient6928"
       id="linearGradient9344"
       gradientUnits="userSpaceOnUse"
       gradientTransform="matrix(0.18888269,0,0,0.18888269,-576.34047,145.07451)"
       x1="1342.1211"
       y1="1866.8776"
       x2="808.50244"
       y2="1866.8776" />
    <linearGradient
       inkscape:collect="always"
       xlink:href="#linearGradient6928"
       id="linearGradient9346"
       gradientUnits="userSpaceOnUse"
       gradientTransform="matrix(0.18888269,0,0,0.18888269,-576.34047,145.07451)"
       x1="1342.1211"
       y1="1866.8776"
       x2="808.50244"
       y2="1866.8776" />
    <linearGradient
       inkscape:collect="always"
       xlink:href="#linearGradient6928"
       id="linearGradient9348"
       gradientUnits="userSpaceOnUse"
       gradientTransform="matrix(0.18888269,0,0,0.18888269,-576.34047,145.07451)"
       x1="1342.1211"
       y1="1866.8776"
       x2="808.50244"
       y2="1866.8776" />
    <linearGradient
       inkscape:collect="always"
       xlink:href="#linearGradient6928"
       id="linearGradient9350"
       gradientUnits="userSpaceOnUse"
       gradientTransform="matrix(0.18888269,0,0,0.18888269,-576.34047,145.07451)"
       x1="1342.1211"
       y1="1866.8776"
       x2="808.50244"
       y2="1866.8776" />
    <linearGradient
       inkscape:collect="always"
       xlink:href="#linearGradient6928"
       id="linearGradient9352"
       gradientUnits="userSpaceOnUse"
       gradientTransform="matrix(0.18888269,0,0,0.18888269,-576.34047,145.07451)"
       x1="1342.1211"
       y1="1866.8776"
       x2="808.50244"
       y2="1866.8776" />
    <linearGradient
       inkscape:collect="always"
       xlink:href="#linearGradient6928"
       id="linearGradient9354"
       gradientUnits="userSpaceOnUse"
       gradientTransform="matrix(0.18888269,0,0,0.18888269,-576.34047,145.07451)"
       x1="1342.1211"
       y1="1866.8776"
       x2="808.50244"
       y2="1866.8776" />
    <linearGradient
       inkscape:collect="always"
       xlink:href="#linearGradient6928"
       id="linearGradient9356"
       gradientUnits="userSpaceOnUse"
       gradientTransform="matrix(0.18888269,0,0,0.18888269,-576.34047,145.07451)"
       x1="1342.1211"
       y1="1866.8776"
       x2="808.50244"
       y2="1866.8776" />
    <linearGradient
       inkscape:collect="always"
       xlink:href="#linearGradient6928"
       id="linearGradient9358"
       gradientUnits="userSpaceOnUse"
       gradientTransform="matrix(0.18888269,0,0,0.18888269,-576.34047,145.07451)"
       x1="1342.1211"
       y1="1866.8776"
       x2="808.50244"
       y2="1866.8776" />
    <linearGradient
       inkscape:collect="always"
       xlink:href="#linearGradient6928"
       id="linearGradient9360"
       gradientUnits="userSpaceOnUse"
       gradientTransform="matrix(0.18888269,0,0,0.18888269,-576.34047,145.07451)"
       x1="1342.1211"
       y1="1866.8776"
       x2="808.50244"
       y2="1866.8776" />
    <linearGradient
       inkscape:collect="always"
       xlink:href="#linearGradient6928"
       id="linearGradient9362"
       gradientUnits="userSpaceOnUse"
       gradientTransform="matrix(0.18888269,0,0,0.18888269,-576.34047,145.07451)"
       x1="1342.1211"
       y1="1866.8776"
       x2="808.50244"
       y2="1866.8776" />
    <linearGradient
       inkscape:collect="always"
       xlink:href="#linearGradient6928"
       id="linearGradient9364"
       gradientUnits="userSpaceOnUse"
       gradientTransform="matrix(0.18888269,0,0,0.18888269,-576.34047,145.07451)"
       x1="1342.1211"
       y1="1866.8776"
       x2="808.50244"
       y2="1866.8776" />
    <linearGradient
       inkscape:collect="always"
       xlink:href="#linearGradient6928"
       id="linearGradient9366"
       gradientUnits="userSpaceOnUse"
       gradientTransform="matrix(0.18888269,0,0,0.18888269,-576.34047,145.07451)"
       x1="1342.1211"
       y1="1866.8776"
       x2="808.50244"
       y2="1866.8776" />
    <linearGradient
       inkscape:collect="always"
       xlink:href="#linearGradient6928"
       id="linearGradient9368"
       gradientUnits="userSpaceOnUse"
       gradientTransform="matrix(0.18888269,0,0,0.18888269,-576.34047,145.07451)"
       x1="1342.1211"
       y1="1866.8776"
       x2="808.50244"
       y2="1866.8776" />
    <linearGradient
       inkscape:collect="always"
       xlink:href="#linearGradient6928"
       id="linearGradient9370"
       gradientUnits="userSpaceOnUse"
       gradientTransform="matrix(0.18888269,0,0,0.18888269,-576.34047,145.07451)"
       x1="1342.1211"
       y1="1866.8776"
       x2="808.50244"
       y2="1866.8776" />
    <linearGradient
       inkscape:collect="always"
       xlink:href="#linearGradient6928"
       id="linearGradient9372"
       gradientUnits="userSpaceOnUse"
       gradientTransform="matrix(0.18888269,0,0,0.18888269,-576.34047,145.07451)"
       x1="1342.1211"
       y1="1866.8776"
       x2="808.50244"
       y2="1866.8776" />
    <linearGradient
       inkscape:collect="always"
       xlink:href="#linearGradient6928"
       id="linearGradient9374"
       gradientUnits="userSpaceOnUse"
       gradientTransform="matrix(0.18888269,0,0,0.18888269,-576.34047,145.07451)"
       x1="1342.1211"
       y1="1866.8776"
       x2="808.50244"
       y2="1866.8776" />
    <linearGradient
       inkscape:collect="always"
       xlink:href="#linearGradient6928"
       id="linearGradient9376"
       gradientUnits="userSpaceOnUse"
       gradientTransform="matrix(0.18888269,0,0,0.18888269,-576.34047,145.07451)"
       x1="1342.1211"
       y1="1866.8776"
       x2="808.50244"
       y2="1866.8776" />
    <linearGradient
       inkscape:collect="always"
       xlink:href="#linearGradient6928"
       id="linearGradient9378"
       gradientUnits="userSpaceOnUse"
       gradientTransform="matrix(0.18888269,0,0,0.18888269,-576.34047,145.07451)"
       x1="1342.1211"
       y1="1866.8776"
       x2="808.50244"
       y2="1866.8776" />
    <linearGradient
       inkscape:collect="always"
       xlink:href="#linearGradient6928"
       id="linearGradient9380"
       gradientUnits="userSpaceOnUse"
       gradientTransform="matrix(0.18888269,0,0,0.18888269,-576.34047,145.07451)"
       x1="1342.1211"
       y1="1866.8776"
       x2="808.50244"
       y2="1866.8776" />
    <linearGradient
       inkscape:collect="always"
       xlink:href="#linearGradient6928"
       id="linearGradient9382"
       gradientUnits="userSpaceOnUse"
       gradientTransform="matrix(0.18888269,0,0,0.18888269,-576.34047,145.07451)"
       x1="1342.1211"
       y1="1866.8776"
       x2="808.50244"
       y2="1866.8776" />
    <linearGradient
       inkscape:collect="always"
       xlink:href="#linearGradient6928"
       id="linearGradient9384"
       gradientUnits="userSpaceOnUse"
       gradientTransform="matrix(0.18888269,0,0,0.18888269,-576.34047,145.07451)"
       x1="1342.1211"
       y1="1866.8776"
       x2="808.50244"
       y2="1866.8776" />
  </defs>
  <sodipodi:namedview
     id="base"
     pagecolor="#ffffff"
     bordercolor="#666666"
     borderopacity="1.0"
     inkscape:pageopacity="0.0"
     inkscape:pageshadow="2"
     inkscape:zoom="0.70000001"
     inkscape:cx="-101.94005"
     inkscape:cy="-103.56735"
     inkscape:document-units="px"
     inkscape:current-layer="layer1"
     showgrid="false"
     inkscape:window-width="1145"
     inkscape:window-height="696"
     inkscape:window-x="393"
     inkscape:window-y="272"
     inkscape:window-maximized="0"
     fit-margin-top="0"
     fit-margin-left="0"
     fit-margin-right="0"
     fit-margin-bottom="0" />
  <metadata
     id="metadata8917">
    <rdf:RDF>
      <cc:Work
         rdf:about="">
        <dc:format>image/svg+xml</dc:format>
        <dc:type
           rdf:resource="http://purl.org/dc/dcmitype/StillImage" />
        <dc:title></dc:title>
      </cc:Work>
    </rdf:RDF>
  </metadata>
  <g
     inkscape:label="Calque 1"
     inkscape:groupmode="layer"
     id="layer1"
     transform="translate(338.85706,474.35964)">
    <g
       id="g9445"
       transform="matrix(2.3104989,0,0,2.3104989,582.03821,-1567.9349)">
      <circle
         r="23.444082"
         cy="497.28912"
         cx="-374.58774"
         id="path3520-2"
         style="color:#000000;clip-rule:nonzero;display:inline;overflow:visible;visibility:visible;opacity:1;isolation:auto;mix-blend-mode:normal;color-interpolation:sRGB;color-interpolation-filters:linearRGB;solid-color:#000000;solid-opacity:1;fill:#ffffff;fill-opacity:1;fill-rule:nonzero;stroke:#e2011c;stroke-width:1.07612181;stroke-linecap:butt;stroke-linejoin:miter;stroke-miterlimit:4;stroke-dasharray:none;stroke-dashoffset:0;stroke-opacity:1;color-rendering:auto;image-rendering:auto;shape-rendering:auto;text-rendering:auto;enable-background:accumulate" />
      <path
         inkscape:connector-curvature="0"
         id="path8193"
         d="m -367.8919,510.71707 c -0.14819,0 -0.27386,0.0493 -0.375,0.15039 -0.0988,0.10115 -0.14844,0.22837 -0.14844,0.37891 0,0.1529 0.0512,0.28397 0.15234,0.39453 0.1035,0.1082 0.22761,0.16211 0.3711,0.16211 0.14584,0 0.26955,-0.0539 0.37304,-0.16211 0.1035,-0.11056 0.15625,-0.24163 0.15625,-0.39453 0,-0.14819 -0.0528,-0.27386 -0.15625,-0.375 -0.10114,-0.1035 -0.22485,-0.1543 -0.37304,-0.1543 z"
         style="font-style:normal;font-variant:normal;font-weight:normal;font-stretch:normal;font-size:medium;line-height:125%;font-family:'Andale Mono';-inkscape-font-specification:'Andale Mono, Normal';text-align:start;letter-spacing:0px;word-spacing:0px;writing-mode:lr-tb;text-anchor:start;fill:url(#linearGradient9286);fill-opacity:1;stroke:none;stroke-width:1px;stroke-linecap:butt;stroke-linejoin:miter;stroke-opacity:1" />
      <path
         inkscape:connector-curvature="0"
         id="path8151"
         d="m -367.87823,508.66043 c -0.54101,0 -0.95095,0.23152 -1.22852,0.69726 -0.2752,0.46339 -0.41211,1.09363 -0.41211,1.88868 0,0.81857 0.14312,1.45267 0.42774,1.90429 0.28462,0.45163 0.68835,0.67774 1.21289,0.67774 0.54337,0 0.95331,-0.23193 1.22851,-0.69532 0.27522,-0.46574 0.41211,-1.09401 0.41211,-1.88671 0,-0.81857 -0.14311,-1.45463 -0.42773,-1.90625 -0.28227,-0.45398 -0.68599,-0.67969 -1.21289,-0.67969 z m 4.33203,0 c -0.54101,0 -0.949,0.23152 -1.22656,0.69726 -0.27522,0.46339 -0.41407,1.09363 -0.41407,1.88868 0,0.81857 0.14312,1.45267 0.42774,1.90429 0.28462,0.45163 0.68834,0.67774 1.21289,0.67774 0.54336,0 0.9533,-0.23193 1.22852,-0.69532 0.2752,-0.46574 0.4121,-1.09401 0.4121,-1.88671 0,-0.81857 -0.14116,-1.45463 -0.42578,-1.90625 -0.28226,-0.45398 -0.68795,-0.67969 -1.21484,-0.67969 z m -4.33203,0.51367 c 0.34813,0 0.60643,0.16483 0.77344,0.49414 0.16936,0.32696 0.2539,0.85365 0.2539,1.57813 0,0.72213 -0.0846,1.24841 -0.2539,1.58007 -0.16701,0.32931 -0.42531,0.49414 -0.77344,0.49414 -0.34577,0 -0.60408,-0.16638 -0.77344,-0.49804 -0.16701,-0.33402 -0.25,-0.85874 -0.25,-1.57617 0,-0.70802 0.0846,-1.23004 0.25391,-1.56641 0.16936,-0.33637 0.42611,-0.50586 0.76953,-0.50586 z m 4.33203,0 c 0.34813,0 0.60643,0.16483 0.77344,0.49414 0.16936,0.32696 0.2539,0.85365 0.2539,1.57813 0,0.72213 -0.0845,1.24841 -0.2539,1.58007 -0.16701,0.32931 -0.42531,0.49414 -0.77344,0.49414 -0.34578,0 -0.60212,-0.16638 -0.77148,-0.49804 -0.16701,-0.33402 -0.25196,-0.85874 -0.25196,-1.57617 0,-0.70802 0.0865,-1.23004 0.25586,-1.56641 0.16936,-0.33637 0.42415,-0.50586 0.76758,-0.50586 z m -0.0137,1.54297 c -0.14819,0 -0.2719,0.0493 -0.37305,0.15039 -0.0988,0.10115 -0.14844,0.22837 -0.14844,0.37891 0,0.1529 0.0492,0.28397 0.1504,0.39453 0.1035,0.1082 0.22761,0.16211 0.37109,0.16211 0.14584,0 0.2715,-0.0539 0.375,-0.16211 0.10349,-0.11056 0.1543,-0.24163 0.1543,-0.39453 0,-0.14819 -0.0508,-0.27386 -0.1543,-0.375 -0.10115,-0.1035 -0.22681,-0.1543 -0.375,-0.1543 z"
         style="font-style:normal;font-variant:normal;font-weight:normal;font-stretch:normal;font-size:medium;line-height:125%;font-family:'Andale Mono';-inkscape-font-specification:'Andale Mono, Normal';text-align:start;letter-spacing:0px;word-spacing:0px;writing-mode:lr-tb;text-anchor:start;fill:url(#linearGradient9288);fill-opacity:1;stroke:none;stroke-width:1px;stroke-linecap:butt;stroke-linejoin:miter;stroke-opacity:1" />
      <path
         inkscape:connector-curvature="0"
         id="path7855"
         d="m -393.87433,508.66043 c -0.39394,0 -0.64008,0.26124 -0.89453,0.50781 a 23.444082,23.444082 0 0 0 0.24805,0.42969 c 0.16571,-0.23731 0.35821,-0.42383 0.64648,-0.42383 0.34814,0 0.60448,0.16483 0.77149,0.49414 0.16936,0.32696 0.25391,0.85365 0.25391,1.57813 0,0.28297 -0.0736,0.39624 -0.0996,0.61914 a 23.444082,23.444082 0 0 0 0.46289,0.52734 c 0.10199,-0.3607 0.25195,-0.66476 0.25195,-1.14648 0,-0.81857 -0.14312,-1.45463 -0.42774,-1.90625 -0.28226,-0.45398 -0.68599,-0.67969 -1.21289,-0.67969 z m 4.33204,0 c -0.54102,0 -0.95096,0.23152 -1.22852,0.69726 -0.27521,0.46339 -0.41211,1.09363 -0.41211,1.88868 0,0.81857 0.14312,1.45267 0.42774,1.90429 0.28462,0.45163 0.68834,0.67774 1.21289,0.67774 0.54336,0 0.9533,-0.23193 1.22851,-0.69532 0.27521,-0.46574 0.41211,-1.09401 0.41211,-1.88671 0,-0.81857 -0.14311,-1.45463 -0.42773,-1.90625 -0.28227,-0.45398 -0.686,-0.67969 -1.21289,-0.67969 z m 0,0.51367 c 0.34812,0 0.60643,0.16483 0.77343,0.49414 0.16936,0.32696 0.25391,0.85365 0.25391,1.57813 0,0.72213 -0.0845,1.24841 -0.25391,1.58007 -0.167,0.32931 -0.42531,0.49414 -0.77343,0.49414 -0.34578,0 -0.60408,-0.16638 -0.77344,-0.49804 -0.16701,-0.33402 -0.25,-0.85874 -0.25,-1.57617 0,-0.70802 0.0845,-1.23004 0.2539,-1.56641 0.16936,-0.33637 0.42611,-0.50586 0.76954,-0.50586 z m -0.0137,1.54297 c -0.14819,0 -0.27386,0.0493 -0.375,0.15039 -0.0988,0.10115 -0.14844,0.22837 -0.14844,0.37891 0,0.1529 0.0512,0.28397 0.15234,0.39453 0.1035,0.1082 0.22762,0.16211 0.3711,0.16211 0.14584,0 0.26954,-0.0539 0.37304,-0.16211 0.1035,-0.11056 0.15625,-0.24163 0.15625,-0.39453 0,-0.14819 -0.0528,-0.27386 -0.15625,-0.375 -0.10114,-0.1035 -0.22485,-0.1543 -0.37304,-0.1543 z"
         style="font-style:normal;font-variant:normal;font-weight:normal;font-stretch:normal;font-size:medium;line-height:125%;font-family:'Andale Mono';-inkscape-font-specification:'Andale Mono, Normal';text-align:start;letter-spacing:0px;word-spacing:0px;writing-mode:lr-tb;text-anchor:start;fill:url(#linearGradient9290);fill-opacity:1;stroke:none;stroke-width:1px;stroke-linecap:butt;stroke-linejoin:miter;stroke-opacity:1" />
      <path
         inkscape:connector-curvature="0"
         id="path8163"
         d="m -376.59308,508.72683 -1.07617,0.55469 0,0.57813 0.99414,-0.49805 0,3.86719 -1.05468,0 0,0.5039 2.61914,0 0,-0.5039 -0.98438,0 0,-4.50196 -0.49805,0 z m 4.33204,0 -1.07618,0.55469 0,0.57813 0.9961,-0.49805 0,3.86719 -1.05469,0 0,0.5039 2.61719,0 0,-0.5039 -0.98438,0 0,-4.50196 -0.49804,0 z"
         style="font-style:normal;font-variant:normal;font-weight:normal;font-stretch:normal;font-size:medium;line-height:125%;font-family:'Andale Mono';-inkscape-font-specification:'Andale Mono, Normal';text-align:start;letter-spacing:0px;word-spacing:0px;writing-mode:lr-tb;text-anchor:start;fill:url(#linearGradient9292);fill-opacity:1;stroke:none;stroke-width:1px;stroke-linecap:butt;stroke-linejoin:miter;stroke-opacity:1" />
      <path
         inkscape:connector-curvature="0"
         id="path8161"
         d="m -385.25909,508.72683 -1.07617,0.55469 0,0.57813 0.99609,-0.49805 0,3.86719 -1.05664,0 0,0.5039 2.61914,0 0,-0.5039 -0.98437,0 0,-4.50196 -0.49805,0 z m 4.33203,0 -1.07422,0.55469 0,0.57813 0.99414,-0.49805 0,3.86719 -1.05469,0 0,0.5039 2.61719,0 0,-0.5039 -0.98437,0 0,-4.50196 -0.49805,0 z"
         style="font-style:normal;font-variant:normal;font-weight:normal;font-stretch:normal;font-size:medium;line-height:125%;font-family:'Andale Mono';-inkscape-font-specification:'Andale Mono, Normal';text-align:start;letter-spacing:0px;word-spacing:0px;writing-mode:lr-tb;text-anchor:start;fill:url(#linearGradient9294);fill-opacity:1;stroke:none;stroke-width:1px;stroke-linecap:butt;stroke-linejoin:miter;stroke-opacity:1" />
      <path
         inkscape:connector-curvature="0"
         id="path8135"
         d="m -354.89386,501.68387 c -0.14819,0 -0.27385,0.0512 -0.375,0.15234 -0.0988,0.10115 -0.14648,0.22641 -0.14648,0.37695 0,0.1529 0.0492,0.28398 0.15039,0.39453 0.1035,0.1082 0.22761,0.16407 0.37109,0.16407 0.14584,0 0.26955,-0.0559 0.37305,-0.16407 0.1035,-0.11055 0.15625,-0.24163 0.15625,-0.39453 0,-0.14819 -0.0528,-0.2719 -0.15625,-0.37304 -0.10115,-0.1035 -0.22486,-0.15625 -0.37305,-0.15625 z"
         style="font-style:normal;font-variant:normal;font-weight:normal;font-stretch:normal;font-size:medium;line-height:125%;font-family:'Andale Mono';-inkscape-font-specification:'Andale Mono, Normal';text-align:start;letter-spacing:0px;word-spacing:0px;writing-mode:lr-tb;text-anchor:start;fill:url(#linearGradient9296);fill-opacity:1;stroke:none;stroke-width:1px;stroke-linecap:butt;stroke-linejoin:miter;stroke-opacity:1" />
      <path
         inkscape:connector-curvature="0"
         id="path8133"
         d="m -367.8919,501.68387 c -0.14819,0 -0.27386,0.0512 -0.375,0.15234 -0.0988,0.10115 -0.14844,0.22641 -0.14844,0.37695 0,0.1529 0.0512,0.28398 0.15234,0.39453 0.1035,0.1082 0.22761,0.16407 0.3711,0.16407 0.14584,0 0.26955,-0.0559 0.37304,-0.16407 0.1035,-0.11055 0.15625,-0.24163 0.15625,-0.39453 0,-0.14819 -0.0528,-0.2719 -0.15625,-0.37304 -0.10114,-0.1035 -0.22485,-0.15625 -0.37304,-0.15625 z"
         style="font-style:normal;font-variant:normal;font-weight:normal;font-stretch:normal;font-size:medium;line-height:125%;font-family:'Andale Mono';-inkscape-font-specification:'Andale Mono, Normal';text-align:start;letter-spacing:0px;word-spacing:0px;writing-mode:lr-tb;text-anchor:start;fill:url(#linearGradient9298);fill-opacity:1;stroke:none;stroke-width:1px;stroke-linecap:butt;stroke-linejoin:miter;stroke-opacity:1" />
      <path
         inkscape:connector-curvature="0"
         id="path8131"
         d="m -389.55597,501.68387 c -0.14818,0 -0.27385,0.0512 -0.375,0.15234 -0.0988,0.10115 -0.14843,0.22641 -0.14843,0.37695 0,0.1529 0.0512,0.28398 0.15234,0.39453 0.1035,0.1082 0.22761,0.16407 0.37109,0.16407 0.14584,0 0.26955,-0.0559 0.37305,-0.16407 0.10349,-0.11055 0.15625,-0.24163 0.15625,-0.39453 0,-0.14819 -0.0528,-0.2719 -0.15625,-0.37304 -0.10115,-0.1035 -0.22485,-0.15625 -0.37305,-0.15625 z"
         style="font-style:normal;font-variant:normal;font-weight:normal;font-stretch:normal;font-size:medium;line-height:125%;font-family:'Andale Mono';-inkscape-font-specification:'Andale Mono, Normal';text-align:start;letter-spacing:0px;word-spacing:0px;writing-mode:lr-tb;text-anchor:start;fill:url(#linearGradient9300);fill-opacity:1;stroke:none;stroke-width:1px;stroke-linecap:butt;stroke-linejoin:miter;stroke-opacity:1" />
      <path
         inkscape:connector-curvature="0"
         id="path8095"
         d="m -367.87823,499.62723 c -0.54101,0 -0.95095,0.23347 -1.22852,0.69921 -0.2752,0.46339 -0.41211,1.09167 -0.41211,1.88672 0,0.81858 0.14312,1.45463 0.42774,1.90625 0.28462,0.45163 0.68835,0.67578 1.21289,0.67578 0.54337,0 0.95331,-0.22997 1.22851,-0.69336 0.27522,-0.46574 0.41211,-1.09597 0.41211,-1.88867 0,-0.81857 -0.14311,-1.45267 -0.42773,-1.90429 -0.28227,-0.45398 -0.68599,-0.68164 -1.21289,-0.68164 z m 8.66601,0 c -0.541,0 -0.95095,0.23347 -1.22851,0.69921 -0.27522,0.46339 -0.41211,1.09167 -0.41211,1.88672 0,0.81858 0.14116,1.45463 0.42578,1.90625 0.28462,0.45163 0.6903,0.67578 1.21484,0.67578 0.54337,0 0.95136,-0.22997 1.22657,-0.69336 0.27521,-0.46574 0.41406,-1.09597 0.41406,-1.88867 0,-0.81857 -0.14312,-1.45267 -0.42774,-1.90429 -0.28226,-0.45398 -0.68599,-0.68164 -1.21289,-0.68164 z m -4.38281,0.0664 -1.07617,0.55468 0,0.57813 0.99414,-0.49805 0,3.86719 -1.05469,0 0,0.50586 2.61914,0 0,-0.50586 -0.98437,0 0,-4.50195 -0.49805,0 z m -4.2832,0.44921 c 0.34813,0 0.60643,0.16484 0.77344,0.49415 0.16936,0.32695 0.2539,0.85168 0.2539,1.57617 0,0.72212 -0.0846,1.24841 -0.2539,1.58008 -0.16701,0.3293 -0.42531,0.49414 -0.77344,0.49414 -0.34577,0 -0.60408,-0.16444 -0.77344,-0.4961 -0.16701,-0.33401 -0.25,-0.8607 -0.25,-1.57812 0,-0.70802 0.0846,-1.23004 0.25391,-1.56641 0.16936,-0.33637 0.42611,-0.50391 0.76953,-0.50391 z m 8.66601,0 c 0.34814,0 0.60448,0.16484 0.77149,0.49415 0.16936,0.32695 0.2539,0.85168 0.2539,1.57617 0,0.72212 -0.0845,1.24841 -0.2539,1.58008 -0.16701,0.3293 -0.42335,0.49414 -0.77149,0.49414 -0.34577,0 -0.60407,-0.16444 -0.77343,-0.4961 -0.16701,-0.33401 -0.25,-0.8607 -0.25,-1.57812 0,-0.70802 0.0845,-1.23004 0.2539,-1.56641 0.16936,-0.33637 0.42611,-0.50391 0.76953,-0.50391 z m -0.0137,1.54102 c -0.14818,0 -0.27385,0.0512 -0.375,0.15234 -0.0988,0.10115 -0.14844,0.22641 -0.14844,0.37696 0,0.15289 0.0512,0.28397 0.15235,0.39453 0.10349,0.1082 0.22761,0.16406 0.37109,0.16406 0.14584,0 0.26956,-0.0559 0.37305,-0.16406 0.1035,-0.11056 0.1543,-0.24164 0.1543,-0.39453 0,-0.1482 -0.0508,-0.2719 -0.1543,-0.37305 -0.10114,-0.10349 -0.22485,-0.15625 -0.37305,-0.15625 z"
         style="font-style:normal;font-variant:normal;font-weight:normal;font-stretch:normal;font-size:medium;line-height:125%;font-family:'Andale Mono';-inkscape-font-specification:'Andale Mono, Normal';text-align:start;letter-spacing:0px;word-spacing:0px;writing-mode:lr-tb;text-anchor:start;fill:url(#linearGradient9302);fill-opacity:1;stroke:none;stroke-width:1px;stroke-linecap:butt;stroke-linejoin:miter;stroke-opacity:1" />
      <path
         inkscape:connector-curvature="0"
         id="path8093"
         d="m -389.54229,499.62723 c -0.54102,0 -0.95096,0.23347 -1.22852,0.69921 -0.27521,0.46339 -0.41211,1.09167 -0.41211,1.88672 0,0.81858 0.14312,1.45463 0.42774,1.90625 0.28462,0.45163 0.68834,0.67578 1.21289,0.67578 0.54336,0 0.9533,-0.22997 1.22851,-0.69336 0.27521,-0.46574 0.41211,-1.09597 0.41211,-1.88867 0,-0.81857 -0.14311,-1.45267 -0.42773,-1.90429 -0.28227,-0.45398 -0.686,-0.68164 -1.21289,-0.68164 z m 17.33203,0 c -0.54102,0 -0.95096,0.23347 -1.22852,0.69921 -0.2752,0.46339 -0.41211,1.09167 -0.41211,1.88672 0,0.81858 0.14117,1.45463 0.42578,1.90625 0.28462,0.45163 0.6903,0.67578 1.21485,0.67578 0.54336,0 0.95135,-0.22997 1.22656,-0.69336 0.27521,-0.46574 0.41406,-1.09597 0.41406,-1.88867 0,-0.81857 -0.14312,-1.45267 -0.42773,-1.90429 -0.28227,-0.45398 -0.68599,-0.68164 -1.21289,-0.68164 z m -13.04883,0.0664 -1.07617,0.55468 0,0.57813 0.99609,-0.49805 0,3.86719 -1.05664,0 0,0.50586 2.61914,0 0,-0.50586 -0.98437,0 0,-4.50195 -0.49805,0 z m -4.2832,0.44921 c 0.34812,0 0.60643,0.16484 0.77343,0.49415 0.16936,0.32695 0.25391,0.85168 0.25391,1.57617 0,0.72212 -0.0845,1.24841 -0.25391,1.58008 -0.167,0.3293 -0.42531,0.49414 -0.77343,0.49414 -0.34578,0 -0.60408,-0.16444 -0.77344,-0.4961 -0.16701,-0.33401 -0.25,-0.8607 -0.25,-1.57812 0,-0.70802 0.0845,-1.23004 0.2539,-1.56641 0.16936,-0.33637 0.42611,-0.50391 0.76954,-0.50391 z m 17.33203,0 c 0.34812,0 0.60448,0.16484 0.77148,0.49415 0.16936,0.32695 0.25391,0.85168 0.25391,1.57617 0,0.72212 -0.0846,1.24841 -0.25391,1.58008 -0.167,0.3293 -0.42336,0.49414 -0.77148,0.49414 -0.34578,0 -0.60408,-0.16444 -0.77344,-0.4961 -0.16701,-0.33401 -0.25,-0.8607 -0.25,-1.57812 0,-0.70802 0.0845,-1.23004 0.25391,-1.56641 0.16936,-0.33637 0.4261,-0.50391 0.76953,-0.50391 z m -0.0156,1.54102 c -0.1482,0 -0.2719,0.0512 -0.37305,0.15234 -0.0988,0.10115 -0.14844,0.22641 -0.14844,0.37696 0,0.15289 0.0512,0.28397 0.15235,0.39453 0.1035,0.1082 0.22565,0.16406 0.36914,0.16406 0.14583,0 0.2715,-0.0559 0.375,-0.16406 0.1035,-0.11056 0.15429,-0.24164 0.15429,-0.39453 0,-0.1482 -0.0508,-0.2719 -0.15429,-0.37305 -0.10115,-0.10349 -0.22682,-0.15625 -0.375,-0.15625 z"
         style="font-style:normal;font-variant:normal;font-weight:normal;font-stretch:normal;font-size:medium;line-height:125%;font-family:'Andale Mono';-inkscape-font-specification:'Andale Mono, Normal';text-align:start;letter-spacing:0px;word-spacing:0px;writing-mode:lr-tb;text-anchor:start;fill:url(#linearGradient9304);fill-opacity:1;stroke:none;stroke-width:1px;stroke-linecap:butt;stroke-linejoin:miter;stroke-opacity:1" />
      <path
         inkscape:connector-curvature="0"
         id="path8113"
         d="m -380.92706,499.69363 -1.07422,0.55469 0,0.57812 0.99414,-0.49804 0,3.86718 -1.05469,0 0,0.50586 2.61719,0 0,-0.50586 -0.98437,0 0,-4.50195 -0.49805,0 z m 4.33398,0 -1.07617,0.55469 0,0.57812 0.99414,-0.49804 0,3.86718 -1.05468,0 0,0.50586 2.61914,0 0,-0.50586 -0.98438,0 0,-4.50195 -0.49805,0 z"
         style="font-style:normal;font-variant:normal;font-weight:normal;font-stretch:normal;font-size:medium;line-height:125%;font-family:'Andale Mono';-inkscape-font-specification:'Andale Mono, Normal';text-align:start;letter-spacing:0px;word-spacing:0px;writing-mode:lr-tb;text-anchor:start;fill:url(#linearGradient9306);fill-opacity:1;stroke:none;stroke-width:1px;stroke-linecap:butt;stroke-linejoin:miter;stroke-opacity:1" />
      <path
         inkscape:connector-curvature="0"
         id="path8111"
         d="m -393.92511,499.69363 -1.07617,0.55469 0,0.57812 0.9961,-0.49804 0,3.86718 -1.05469,0 0,0.50586 2.61719,0 0,-0.50586 -0.98438,0 0,-4.50195 -0.49805,0 z"
         style="font-style:normal;font-variant:normal;font-weight:normal;font-stretch:normal;font-size:medium;line-height:125%;font-family:'Andale Mono';-inkscape-font-specification:'Andale Mono, Normal';text-align:start;letter-spacing:0px;word-spacing:0px;writing-mode:lr-tb;text-anchor:start;fill:url(#linearGradient9308);fill-opacity:1;stroke:none;stroke-width:1px;stroke-linecap:butt;stroke-linejoin:miter;stroke-opacity:1" />
      <path
         inkscape:connector-curvature="0"
         id="path8097"
         d="m -354.88018,499.62723 c -0.54102,0 -0.95096,0.23347 -1.22852,0.69921 -0.27521,0.46339 -0.41211,1.09167 -0.41211,1.88672 0,0.81858 0.14311,1.45463 0.42773,1.90625 0.28462,0.45163 0.68835,0.67578 1.2129,0.67578 0.54336,0 0.9533,-0.22997 1.22851,-0.69336 0.27521,-0.46574 0.41211,-1.09597 0.41211,-1.88867 0,-0.81857 -0.14116,-1.45267 -0.42578,-1.90429 -0.28227,-0.45398 -0.68795,-0.68164 -1.21484,-0.68164 z m 0,0.51562 c 0.34812,0 0.60643,0.16483 0.77343,0.49414 0.16936,0.32696 0.25391,0.85169 0.25391,1.57617 0,0.72213 -0.0845,1.24841 -0.25391,1.58008 -0.167,0.32931 -0.42531,0.49414 -0.77343,0.49414 -0.34578,0 -0.60408,-0.16443 -0.77344,-0.49609 -0.16701,-0.33402 -0.25,-0.8607 -0.25,-1.57813 0,-0.70802 0.0845,-1.23004 0.2539,-1.5664 0.16936,-0.33637 0.42611,-0.50391 0.76954,-0.50391 z"
         style="font-style:normal;font-variant:normal;font-weight:normal;font-stretch:normal;font-size:medium;line-height:125%;font-family:'Andale Mono';-inkscape-font-specification:'Andale Mono, Normal';text-align:start;letter-spacing:0px;word-spacing:0px;writing-mode:lr-tb;text-anchor:start;fill:url(#linearGradient9310);fill-opacity:1;stroke:none;stroke-width:1px;stroke-linecap:butt;stroke-linejoin:miter;stroke-opacity:1" />
      <path
         inkscape:connector-curvature="0"
         id="path8083"
         d="m -367.8919,492.65066 c -0.14819,0 -0.27386,0.0512 -0.375,0.15235 -0.0988,0.10114 -0.14844,0.2264 -0.14844,0.37695 0,0.15289 0.0512,0.28593 0.15234,0.39648 0.1035,0.1082 0.22761,0.16211 0.3711,0.16211 0.14584,0 0.26955,-0.0539 0.37304,-0.16211 0.1035,-0.11055 0.15625,-0.24359 0.15625,-0.39648 0,-0.14819 -0.0528,-0.2719 -0.15625,-0.37305 -0.10114,-0.10349 -0.22485,-0.15625 -0.37304,-0.15625 z"
         style="font-style:normal;font-variant:normal;font-weight:normal;font-stretch:normal;font-size:medium;line-height:125%;font-family:'Andale Mono';-inkscape-font-specification:'Andale Mono, Normal';text-align:start;letter-spacing:0px;word-spacing:0px;writing-mode:lr-tb;text-anchor:start;fill:url(#linearGradient9312);fill-opacity:1;stroke:none;stroke-width:1px;stroke-linecap:butt;stroke-linejoin:miter;stroke-opacity:1" />
      <path
         inkscape:connector-curvature="0"
         id="path8081"
         d="m -389.55597,492.65066 c -0.14818,0 -0.27385,0.0512 -0.375,0.15235 -0.0988,0.10114 -0.14843,0.2264 -0.14843,0.37695 0,0.15289 0.0512,0.28593 0.15234,0.39648 0.1035,0.1082 0.22761,0.16211 0.37109,0.16211 0.14584,0 0.26955,-0.0539 0.37305,-0.16211 0.10349,-0.11055 0.15625,-0.24359 0.15625,-0.39648 0,-0.14819 -0.0528,-0.2719 -0.15625,-0.37305 -0.10115,-0.10349 -0.22485,-0.15625 -0.37305,-0.15625 z"
         style="font-style:normal;font-variant:normal;font-weight:normal;font-stretch:normal;font-size:medium;line-height:125%;font-family:'Andale Mono';-inkscape-font-specification:'Andale Mono, Normal';text-align:start;letter-spacing:0px;word-spacing:0px;writing-mode:lr-tb;text-anchor:start;fill:url(#linearGradient9314);fill-opacity:1;stroke:none;stroke-width:1px;stroke-linecap:butt;stroke-linejoin:miter;stroke-opacity:1" />
      <path
         inkscape:connector-curvature="0"
         id="path8043"
         d="m -367.87823,490.59402 c -0.54101,0 -0.95095,0.23348 -1.22852,0.69922 -0.2752,0.46339 -0.41211,1.09167 -0.41211,1.88672 0,0.81857 0.14312,1.45462 0.42774,1.90625 0.28462,0.45163 0.68835,0.67773 1.21289,0.67773 0.54337,0 0.95331,-0.23192 1.22851,-0.69531 0.27522,-0.46574 0.41211,-1.09598 0.41211,-1.88867 0,-0.81857 -0.14311,-1.45267 -0.42773,-1.9043 -0.28227,-0.45398 -0.68599,-0.68164 -1.21289,-0.68164 z m 12.99805,0 c -0.54102,0 -0.95096,0.23348 -1.22852,0.69922 -0.27521,0.46339 -0.41211,1.09167 -0.41211,1.88672 0,0.81857 0.14311,1.45462 0.42773,1.90625 0.28462,0.45163 0.68835,0.67773 1.2129,0.67773 0.54336,0 0.9533,-0.23192 1.22851,-0.69531 0.27521,-0.46574 0.41211,-1.09598 0.41211,-1.88867 0,-0.81857 -0.14116,-1.45267 -0.42578,-1.9043 -0.28227,-0.45398 -0.68795,-0.68164 -1.21484,-0.68164 z m -8.71485,0.0684 -1.07617,0.55274 0,0.58007 0.99414,-0.49804 0,3.86718 -1.05469,0 0,0.50391 2.61914,0 0,-0.50391 -0.98437,0 0,-4.50195 -0.49805,0 z m -4.2832,0.44727 c 0.34813,0 0.60643,0.16483 0.77344,0.49414 0.16936,0.32696 0.2539,0.85168 0.2539,1.57617 0,0.72213 -0.0846,1.25036 -0.2539,1.58203 -0.16701,0.32931 -0.42531,0.49414 -0.77344,0.49414 -0.34577,0 -0.60408,-0.16638 -0.77344,-0.49805 -0.16701,-0.33401 -0.25,-0.86069 -0.25,-1.57812 0,-0.70802 0.0846,-1.23004 0.25391,-1.56641 0.16936,-0.33636 0.42611,-0.5039 0.76953,-0.5039 z m 12.99805,0 c 0.34812,0 0.60643,0.16483 0.77343,0.49414 0.16936,0.32696 0.25391,0.85168 0.25391,1.57617 0,0.72213 -0.0845,1.25036 -0.25391,1.58203 -0.167,0.32931 -0.42531,0.49414 -0.77343,0.49414 -0.34578,0 -0.60408,-0.16638 -0.77344,-0.49805 -0.16701,-0.33401 -0.25,-0.86069 -0.25,-1.57812 0,-0.70802 0.0845,-1.23004 0.2539,-1.56641 0.16936,-0.33636 0.42611,-0.5039 0.76954,-0.5039 z m -0.0137,1.54101 c -0.14819,0 -0.27385,0.0512 -0.375,0.15235 -0.0988,0.10114 -0.14648,0.2264 -0.14648,0.37695 0,0.15289 0.0492,0.28593 0.15039,0.39648 0.1035,0.1082 0.22761,0.16211 0.37109,0.16211 0.14584,0 0.26955,-0.0539 0.37305,-0.16211 0.1035,-0.11055 0.15625,-0.24359 0.15625,-0.39648 0,-0.14819 -0.0528,-0.2719 -0.15625,-0.37305 -0.10115,-0.10349 -0.22486,-0.15625 -0.37305,-0.15625 z"
         style="font-style:normal;font-variant:normal;font-weight:normal;font-stretch:normal;font-size:medium;line-height:125%;font-family:'Andale Mono';-inkscape-font-specification:'Andale Mono, Normal';text-align:start;letter-spacing:0px;word-spacing:0px;writing-mode:lr-tb;text-anchor:start;fill:url(#linearGradient9316);fill-opacity:1;stroke:none;stroke-width:1px;stroke-linecap:butt;stroke-linejoin:miter;stroke-opacity:1" />
      <path
         inkscape:connector-curvature="0"
         id="path8041"
         d="m -389.54229,490.59402 c -0.54102,0 -0.95096,0.23348 -1.22852,0.69922 -0.27521,0.46339 -0.41211,1.09167 -0.41211,1.88672 0,0.81857 0.14312,1.45462 0.42774,1.90625 0.28462,0.45163 0.68834,0.67773 1.21289,0.67773 0.54336,0 0.9533,-0.23192 1.22851,-0.69531 0.27521,-0.46574 0.41211,-1.09598 0.41211,-1.88867 0,-0.81857 -0.14311,-1.45267 -0.42773,-1.9043 -0.28227,-0.45398 -0.686,-0.68164 -1.21289,-0.68164 z m 8.66601,0 c -0.54101,0 -0.95095,0.23348 -1.22851,0.69922 -0.27522,0.46339 -0.41211,1.09167 -0.41211,1.88672 0,0.81857 0.14116,1.45462 0.42578,1.90625 0.28462,0.45163 0.6903,0.67773 1.21484,0.67773 0.54336,0 0.95135,-0.23192 1.22656,-0.69531 0.27521,-0.46574 0.41407,-1.09598 0.41407,-1.88867 0,-0.81857 -0.14312,-1.45267 -0.42774,-1.9043 -0.28226,-0.45398 -0.68599,-0.68164 -1.21289,-0.68164 z m -4.38281,0.0684 -1.07617,0.55274 0,0.58007 0.99609,-0.49804 0,3.86718 -1.05664,0 0,0.50391 2.61914,0 0,-0.50391 -0.98437,0 0,-4.50195 -0.49805,0 z m -4.2832,0.44727 c 0.34812,0 0.60643,0.16483 0.77343,0.49414 0.16936,0.32696 0.25391,0.85168 0.25391,1.57617 0,0.72213 -0.0845,1.25036 -0.25391,1.58203 -0.167,0.32931 -0.42531,0.49414 -0.77343,0.49414 -0.34578,0 -0.60408,-0.16638 -0.77344,-0.49805 -0.16701,-0.33401 -0.25,-0.86069 -0.25,-1.57812 0,-0.70802 0.0845,-1.23004 0.2539,-1.56641 0.16936,-0.33636 0.42611,-0.5039 0.76954,-0.5039 z m 8.66601,0 c 0.34813,0 0.60448,0.16483 0.77149,0.49414 0.16936,0.32696 0.2539,0.85168 0.2539,1.57617 0,0.72213 -0.0846,1.25036 -0.2539,1.58203 -0.16701,0.32931 -0.42336,0.49414 -0.77149,0.49414 -0.34578,0 -0.60408,-0.16638 -0.77344,-0.49805 -0.167,-0.33401 -0.25,-0.86069 -0.25,-1.57812 0,-0.70802 0.0845,-1.23004 0.25391,-1.56641 0.16936,-0.33636 0.42611,-0.5039 0.76953,-0.5039 z m -0.0137,1.54101 c -0.14819,0 -0.27385,0.0512 -0.375,0.15235 -0.0988,0.10114 -0.14844,0.2264 -0.14844,0.37695 0,0.15289 0.0512,0.28593 0.15235,0.39648 0.1035,0.1082 0.22761,0.16211 0.37109,0.16211 0.14584,0 0.26955,-0.0539 0.37305,-0.16211 0.1035,-0.11055 0.15625,-0.24359 0.15625,-0.39648 0,-0.14819 -0.0528,-0.2719 -0.15625,-0.37305 -0.10115,-0.10349 -0.22486,-0.15625 -0.37305,-0.15625 z"
         style="font-style:normal;font-variant:normal;font-weight:normal;font-stretch:normal;font-size:medium;line-height:125%;font-family:'Andale Mono';-inkscape-font-specification:'Andale Mono, Normal';text-align:start;letter-spacing:0px;word-spacing:0px;writing-mode:lr-tb;text-anchor:start;fill:url(#linearGradient9318);fill-opacity:1;stroke:none;stroke-width:1px;stroke-linecap:butt;stroke-linejoin:miter;stroke-opacity:1" />
      <path
         inkscape:connector-curvature="0"
         id="path8057"
         d="m -359.263,490.66238 -1.07617,0.55274 0,0.58007 0.99609,-0.49804 0,3.86718 -1.05468,0 0,0.50391 2.61718,0 0,-0.50391 -0.98437,0 0,-4.50195 -0.49805,0 z"
         style="font-style:normal;font-variant:normal;font-weight:normal;font-stretch:normal;font-size:medium;line-height:125%;font-family:'Andale Mono';-inkscape-font-specification:'Andale Mono, Normal';text-align:start;letter-spacing:0px;word-spacing:0px;writing-mode:lr-tb;text-anchor:start;fill:url(#linearGradient9320);fill-opacity:1;stroke:none;stroke-width:1px;stroke-linecap:butt;stroke-linejoin:miter;stroke-opacity:1" />
      <path
         inkscape:connector-curvature="0"
         id="path8055"
         d="m -376.59308,490.66238 -1.07617,0.55274 0,0.58007 0.99414,-0.49804 0,3.86718 -1.05468,0 0,0.50391 2.61914,0 0,-0.50391 -0.98438,0 0,-4.50195 -0.49805,0 z m 4.33204,0 -1.07618,0.55274 0,0.58007 0.9961,-0.49804 0,3.86718 -1.05469,0 0,0.50391 2.61719,0 0,-0.50391 -0.98438,0 0,-4.50195 -0.49804,0 z"
         style="font-style:normal;font-variant:normal;font-weight:normal;font-stretch:normal;font-size:medium;line-height:125%;font-family:'Andale Mono';-inkscape-font-specification:'Andale Mono, Normal';text-align:start;letter-spacing:0px;word-spacing:0px;writing-mode:lr-tb;text-anchor:start;fill:url(#linearGradient9322);fill-opacity:1;stroke:none;stroke-width:1px;stroke-linecap:butt;stroke-linejoin:miter;stroke-opacity:1" />
      <path
         inkscape:connector-curvature="0"
         id="path8053"
         d="m -393.92511,490.66238 -1.07617,0.55274 0,0.58007 0.9961,-0.49804 0,3.86718 -1.05469,0 0,0.50391 2.61719,0 0,-0.50391 -0.98438,0 0,-4.50195 -0.49805,0 z"
         style="font-style:normal;font-variant:normal;font-weight:normal;font-stretch:normal;font-size:medium;line-height:125%;font-family:'Andale Mono';-inkscape-font-specification:'Andale Mono, Normal';text-align:start;letter-spacing:0px;word-spacing:0px;writing-mode:lr-tb;text-anchor:start;fill:url(#linearGradient9324);fill-opacity:1;stroke:none;stroke-width:1px;stroke-linecap:butt;stroke-linejoin:miter;stroke-opacity:1" />
      <path
         inkscape:connector-curvature="0"
         id="path8029"
         d="m -363.55987,483.61941 c -0.14819,0 -0.2719,0.0512 -0.37305,0.15235 -0.0988,0.10114 -0.14844,0.2264 -0.14844,0.37695 0,0.15289 0.0492,0.28398 0.15039,0.39453 0.1035,0.1082 0.22762,0.16211 0.3711,0.16211 0.14584,0 0.2715,-0.0539 0.375,-0.16211 0.10349,-0.11055 0.15429,-0.24164 0.15429,-0.39453 0,-0.14819 -0.0508,-0.27385 -0.15429,-0.375 -0.10115,-0.10349 -0.22681,-0.1543 -0.375,-0.1543 z"
         style="font-style:normal;font-variant:normal;font-weight:normal;font-stretch:normal;font-size:medium;line-height:125%;font-family:'Andale Mono';-inkscape-font-specification:'Andale Mono, Normal';text-align:start;letter-spacing:0px;word-spacing:0px;writing-mode:lr-tb;text-anchor:start;fill:url(#linearGradient9326);fill-opacity:1;stroke:none;stroke-width:1px;stroke-linecap:butt;stroke-linejoin:miter;stroke-opacity:1" />
      <path
         inkscape:connector-curvature="0"
         id="path8027"
         d="m -376.55792,483.61941 c -0.14819,0 -0.27386,0.0512 -0.375,0.15235 -0.0988,0.10114 -0.14648,0.2264 -0.14648,0.37695 0,0.15289 0.0493,0.28398 0.15039,0.39453 0.1035,0.1082 0.2276,0.16211 0.37109,0.16211 0.14584,0 0.26955,-0.0539 0.37305,-0.16211 0.1035,-0.11055 0.15625,-0.24164 0.15625,-0.39453 0,-0.14819 -0.0528,-0.27385 -0.15625,-0.375 -0.10115,-0.10349 -0.22486,-0.1543 -0.37305,-0.1543 z"
         style="font-style:normal;font-variant:normal;font-weight:normal;font-stretch:normal;font-size:medium;line-height:125%;font-family:'Andale Mono';-inkscape-font-specification:'Andale Mono, Normal';text-align:start;letter-spacing:0px;word-spacing:0px;writing-mode:lr-tb;text-anchor:start;fill:url(#linearGradient9328);fill-opacity:1;stroke:none;stroke-width:1px;stroke-linecap:butt;stroke-linejoin:miter;stroke-opacity:1" />
      <path
         inkscape:connector-curvature="0"
         id="path8025"
         d="m -389.55597,483.61941 c -0.14818,0 -0.27385,0.0512 -0.375,0.15235 -0.0988,0.10114 -0.14843,0.2264 -0.14843,0.37695 0,0.15289 0.0512,0.28398 0.15234,0.39453 0.1035,0.1082 0.22761,0.16211 0.37109,0.16211 0.14584,0 0.26955,-0.0539 0.37305,-0.16211 0.10349,-0.11055 0.15625,-0.24164 0.15625,-0.39453 0,-0.14819 -0.0528,-0.27385 -0.15625,-0.375 -0.10115,-0.10349 -0.22485,-0.1543 -0.37305,-0.1543 z"
         style="font-style:normal;font-variant:normal;font-weight:normal;font-stretch:normal;font-size:medium;line-height:125%;font-family:'Andale Mono';-inkscape-font-specification:'Andale Mono, Normal';text-align:start;letter-spacing:0px;word-spacing:0px;writing-mode:lr-tb;text-anchor:start;fill:url(#linearGradient9330);fill-opacity:1;stroke:none;stroke-width:1px;stroke-linecap:butt;stroke-linejoin:miter;stroke-opacity:1" />
      <path
         inkscape:connector-curvature="0"
         id="path7983"
         d="m -376.54425,481.56277 c -0.541,0 -0.94899,0.23153 -1.22656,0.69727 -0.27521,0.46339 -0.41406,1.09362 -0.41406,1.88867 0,0.81857 0.14311,1.45267 0.42773,1.9043 0.28462,0.45162 0.68835,0.67773 1.21289,0.67773 0.54337,0 0.95331,-0.23193 1.22852,-0.69531 0.27521,-0.46574 0.41211,-1.09402 0.41211,-1.88672 0,-0.81857 -0.14116,-1.45462 -0.42578,-1.90625 -0.28227,-0.45398 -0.68795,-0.67969 -1.21485,-0.67969 z m 4.33399,0 c -0.54102,0 -0.95096,0.23153 -1.22852,0.69727 -0.2752,0.46339 -0.41211,1.09362 -0.41211,1.88867 0,0.81857 0.14117,1.45267 0.42578,1.9043 0.28462,0.45162 0.6903,0.67773 1.21485,0.67773 0.54336,0 0.95135,-0.23193 1.22656,-0.69531 0.27521,-0.46574 0.41406,-1.09402 0.41406,-1.88672 0,-0.81857 -0.14312,-1.45462 -0.42773,-1.90625 -0.28227,-0.45398 -0.68599,-0.67969 -1.21289,-0.67969 z m -4.33399,0.51367 c 0.34814,0 0.60643,0.16484 0.77344,0.49414 0.16936,0.32696 0.25391,0.85364 0.25391,1.57813 0,0.72213 -0.0845,1.24842 -0.25391,1.58008 -0.16701,0.32931 -0.4253,0.49414 -0.77344,0.49414 -0.34577,0 -0.60212,-0.16638 -0.77148,-0.49805 -0.16701,-0.33401 -0.25195,-0.85874 -0.25195,-1.57617 0,-0.70802 0.0845,-1.23004 0.2539,-1.56641 0.16936,-0.33636 0.42611,-0.50586 0.76953,-0.50586 z m 4.33399,0 c 0.34812,0 0.60448,0.16484 0.77148,0.49414 0.16936,0.32696 0.25391,0.85364 0.25391,1.57813 0,0.72213 -0.0846,1.24842 -0.25391,1.58008 -0.167,0.32931 -0.42336,0.49414 -0.77148,0.49414 -0.34578,0 -0.60408,-0.16638 -0.77344,-0.49805 -0.16701,-0.33401 -0.25,-0.85874 -0.25,-1.57617 0,-0.70802 0.0845,-1.23004 0.25391,-1.56641 0.16936,-0.33636 0.4261,-0.50586 0.76953,-0.50586 z m -0.0156,1.54297 c -0.1482,0 -0.2719,0.0512 -0.37305,0.15235 -0.0988,0.10114 -0.14844,0.2264 -0.14844,0.37695 0,0.15289 0.0512,0.28398 0.15235,0.39453 0.1035,0.1082 0.22565,0.16211 0.36914,0.16211 0.14583,0 0.2715,-0.0539 0.375,-0.16211 0.1035,-0.11055 0.15429,-0.24164 0.15429,-0.39453 0,-0.14819 -0.0508,-0.27385 -0.15429,-0.375 -0.10115,-0.10349 -0.22682,-0.1543 -0.375,-0.1543 z"
         style="font-style:normal;font-variant:normal;font-weight:normal;font-stretch:normal;font-size:medium;line-height:125%;font-family:'Andale Mono';-inkscape-font-specification:'Andale Mono, Normal';text-align:start;letter-spacing:0px;word-spacing:0px;writing-mode:lr-tb;text-anchor:start;fill:url(#linearGradient9332);fill-opacity:1;stroke:none;stroke-width:1px;stroke-linecap:butt;stroke-linejoin:miter;stroke-opacity:1" />
      <path
         inkscape:connector-curvature="0"
         id="path7981"
         d="m -389.54229,481.56277 c -0.54102,0 -0.95096,0.23153 -1.22852,0.69727 -0.27521,0.46339 -0.41211,1.09362 -0.41211,1.88867 0,0.81857 0.14312,1.45267 0.42774,1.9043 0.28462,0.45162 0.68834,0.67773 1.21289,0.67773 0.54336,0 0.9533,-0.23193 1.22851,-0.69531 0.27521,-0.46574 0.41211,-1.09402 0.41211,-1.88672 0,-0.81857 -0.14311,-1.45462 -0.42773,-1.90625 -0.28227,-0.45398 -0.686,-0.67969 -1.21289,-0.67969 z m 4.33203,0 c -0.54102,0 -0.94901,0.23153 -1.22657,0.69727 -0.27521,0.46339 -0.41406,1.09362 -0.41406,1.88867 0,0.81857 0.14312,1.45267 0.42774,1.9043 0.28462,0.45162 0.68834,0.67773 1.21289,0.67773 0.54336,0 0.9533,-0.23193 1.22851,-0.69531 0.27521,-0.46574 0.41211,-1.09402 0.41211,-1.88672 0,-0.81857 -0.14116,-1.45462 -0.42578,-1.90625 -0.28227,-0.45398 -0.68795,-0.67969 -1.21484,-0.67969 z m -4.33203,0.51367 c 0.34812,0 0.60643,0.16484 0.77343,0.49414 0.16936,0.32696 0.25391,0.85364 0.25391,1.57813 0,0.72213 -0.0845,1.24842 -0.25391,1.58008 -0.167,0.32931 -0.42531,0.49414 -0.77343,0.49414 -0.34578,0 -0.60408,-0.16638 -0.77344,-0.49805 -0.16701,-0.33401 -0.25,-0.85874 -0.25,-1.57617 0,-0.70802 0.0845,-1.23004 0.2539,-1.56641 0.16936,-0.33636 0.42611,-0.50586 0.76954,-0.50586 z m 4.33203,0 c 0.34812,0 0.60643,0.16484 0.77343,0.49414 0.16936,0.32696 0.25391,0.85364 0.25391,1.57813 0,0.72213 -0.0845,1.24842 -0.25391,1.58008 -0.167,0.32931 -0.42531,0.49414 -0.77343,0.49414 -0.34578,0 -0.60213,-0.16638 -0.77149,-0.49805 -0.167,-0.33401 -0.25,-0.85874 -0.25,-1.57617 0,-0.70802 0.0845,-1.23004 0.25391,-1.56641 0.16936,-0.33636 0.42415,-0.50586 0.76758,-0.50586 z m -0.0137,1.54297 c -0.1482,0 -0.2719,0.0512 -0.37305,0.15235 -0.0988,0.10114 -0.14844,0.2264 -0.14844,0.37695 0,0.15289 0.0492,0.28398 0.15039,0.39453 0.1035,0.1082 0.22761,0.16211 0.3711,0.16211 0.14583,0 0.2715,-0.0539 0.375,-0.16211 0.10349,-0.11055 0.15429,-0.24164 0.15429,-0.39453 0,-0.14819 -0.0508,-0.27385 -0.15429,-0.375 -0.10115,-0.10349 -0.22682,-0.1543 -0.375,-0.1543 z"
         style="font-style:normal;font-variant:normal;font-weight:normal;font-stretch:normal;font-size:medium;line-height:125%;font-family:'Andale Mono';-inkscape-font-specification:'Andale Mono, Normal';text-align:start;letter-spacing:0px;word-spacing:0px;writing-mode:lr-tb;text-anchor:start;fill:url(#linearGradient9334);fill-opacity:1;stroke:none;stroke-width:1px;stroke-linecap:butt;stroke-linejoin:miter;stroke-opacity:1" />
      <path
         inkscape:connector-curvature="0"
         id="path7997"
         d="m -367.92706,481.62918 -1.07617,0.55469 0,0.57812 0.99414,-0.49805 0,3.86719 -1.05469,0 0,0.50391 2.61719,0 0,-0.50391 -0.98438,0 0,-4.50195 -0.49609,0 z"
         style="font-style:normal;font-variant:normal;font-weight:normal;font-stretch:normal;font-size:medium;line-height:125%;font-family:'Andale Mono';-inkscape-font-specification:'Andale Mono, Normal';text-align:start;letter-spacing:0px;word-spacing:0px;writing-mode:lr-tb;text-anchor:start;fill:url(#linearGradient9336);fill-opacity:1;stroke:none;stroke-width:1px;stroke-linecap:butt;stroke-linejoin:miter;stroke-opacity:1" />
      <path
         inkscape:connector-curvature="0"
         id="path7995"
         d="m -380.92706,481.62918 -1.07422,0.55469 0,0.57812 0.99414,-0.49805 0,3.86719 -1.05469,0 0,0.50391 2.61719,0 0,-0.50391 -0.98437,0 0,-4.50195 -0.49805,0 z"
         style="font-style:normal;font-variant:normal;font-weight:normal;font-stretch:normal;font-size:medium;line-height:125%;font-family:'Andale Mono';-inkscape-font-specification:'Andale Mono, Normal';text-align:start;letter-spacing:0px;word-spacing:0px;writing-mode:lr-tb;text-anchor:start;fill:url(#linearGradient9338);fill-opacity:1;stroke:none;stroke-width:1px;stroke-linecap:butt;stroke-linejoin:miter;stroke-opacity:1" />
      <path
         inkscape:connector-curvature="0"
         id="path7985"
         d="m -363.5462,481.56277 c -0.54101,0 -0.949,0.23153 -1.22656,0.69727 -0.27522,0.46339 -0.41407,1.09362 -0.41407,1.88867 0,0.81857 0.14312,1.45267 0.42774,1.9043 0.28462,0.45162 0.68834,0.67773 1.21289,0.67773 0.54336,0 0.9533,-0.23193 1.22852,-0.69531 0.2752,-0.46574 0.4121,-1.09402 0.4121,-1.88672 0,-0.81857 -0.14116,-1.45462 -0.42578,-1.90625 -0.28226,-0.45398 -0.68795,-0.67969 -1.21484,-0.67969 z m 4.2832,0.0664 -1.07617,0.55469 0,0.57812 0.99609,-0.49804 0,3.86718 -1.05468,0 0,0.50391 2.61718,0 0,-0.50391 -0.98437,0 0,-4.50195 -0.49805,0 z m -4.2832,0.44727 c 0.34813,0 0.60643,0.16483 0.77344,0.49414 0.16936,0.32696 0.2539,0.85364 0.2539,1.57812 0,0.72214 -0.0845,1.24842 -0.2539,1.58008 -0.16701,0.32931 -0.42531,0.49414 -0.77344,0.49414 -0.34578,0 -0.60212,-0.16638 -0.77148,-0.49805 -0.16701,-0.33401 -0.25196,-0.85874 -0.25196,-1.57617 0,-0.70802 0.0865,-1.23004 0.25586,-1.5664 0.16936,-0.33637 0.42415,-0.50586 0.76758,-0.50586 z"
         style="font-style:normal;font-variant:normal;font-weight:normal;font-stretch:normal;font-size:medium;line-height:125%;font-family:'Andale Mono';-inkscape-font-specification:'Andale Mono, Normal';text-align:start;letter-spacing:0px;word-spacing:0px;writing-mode:lr-tb;text-anchor:start;fill:url(#linearGradient9340);fill-opacity:1;stroke:none;stroke-width:1px;stroke-linecap:butt;stroke-linejoin:miter;stroke-opacity:1" />
      <path
         inkscape:connector-curvature="0"
         id="path7923"
         d="m -367.43097,474.97683 a 23.444082,23.444082 0 0 0 -0.22851,-0.084 23.444082,23.444082 0 0 0 -0.34961,-0.0898 l 0,2.29492 -1.05469,0 0,0.50586 2.61719,0 0,-0.50586 -0.98438,0 0,-2.1211 z"
         style="font-style:normal;font-variant:normal;font-weight:normal;font-stretch:normal;font-size:medium;line-height:125%;font-family:'Andale Mono';-inkscape-font-specification:'Andale Mono, Normal';text-align:start;letter-spacing:0px;word-spacing:0px;writing-mode:lr-tb;text-anchor:start;fill:url(#linearGradient9342);fill-opacity:1;stroke:none;stroke-width:1px;stroke-linecap:butt;stroke-linejoin:miter;stroke-opacity:1" />
      <path
         inkscape:connector-curvature="0"
         id="path7919"
         d="m -362.6087,477.16824 a 23.444082,23.444082 0 0 0 -0.46094,-0.2832 c -0.14597,0.12512 -0.26201,0.30469 -0.47656,0.30469 -0.34578,0 -0.60212,-0.16443 -0.77148,-0.4961 -0.0513,-0.10254 -0.0424,-0.34556 -0.0781,-0.48437 a 23.444082,23.444082 0 0 0 -0.61133,-0.29688 c 0.0695,0.3873 0.0824,0.84659 0.24804,1.10938 0.28462,0.45162 0.68835,0.67773 1.21289,0.67773 0.41477,0 0.6788,-0.26117 0.9375,-0.53125 z"
         style="font-style:normal;font-variant:normal;font-weight:normal;font-stretch:normal;font-size:medium;line-height:125%;font-family:'Andale Mono';-inkscape-font-specification:'Andale Mono, Normal';text-align:start;letter-spacing:0px;word-spacing:0px;writing-mode:lr-tb;text-anchor:start;fill:url(#linearGradient9344);fill-opacity:1;stroke:none;stroke-width:1px;stroke-linecap:butt;stroke-linejoin:miter;stroke-opacity:1" />
      <path
         inkscape:connector-curvature="0"
         id="path7915"
         d="m -354.8294,484.67801 a 23.444082,23.444082 0 0 0 -0.0312,-0.0566 23.444082,23.444082 0 0 0 -0.47852,-0.66993 c -0.0266,0.0651 -0.0762,0.11855 -0.0762,0.19727 0,0.15289 0.0492,0.28398 0.15039,0.39453 0.1035,0.1082 0.22761,0.16211 0.37109,0.16211 0.0251,0 0.0407,-0.0242 0.0645,-0.0273 z"
         style="font-style:normal;font-variant:normal;font-weight:normal;font-stretch:normal;font-size:medium;line-height:125%;font-family:'Andale Mono';-inkscape-font-specification:'Andale Mono, Normal';text-align:start;letter-spacing:0px;word-spacing:0px;writing-mode:lr-tb;text-anchor:start;fill:url(#linearGradient9346);fill-opacity:1;stroke:none;stroke-width:1px;stroke-linecap:butt;stroke-linejoin:miter;stroke-opacity:1" />
      <path
         inkscape:connector-curvature="0"
         id="path7911"
         d="m -353.95245,486.20535 a 23.444082,23.444082 0 0 0 -0.24219,-0.42187 c -0.16642,0.25925 -0.37668,0.43945 -0.68554,0.43945 -0.34578,0 -0.60408,-0.16638 -0.77344,-0.49805 -0.16701,-0.33401 -0.25,-0.85874 -0.25,-1.57617 0,-0.36289 0.0864,-0.53752 0.13086,-0.80273 a 23.444082,23.444082 0 0 0 -0.43946,-0.61329 c -0.15448,0.40993 -0.30859,0.81997 -0.30859,1.41602 0,0.81857 0.14311,1.45267 0.42773,1.9043 0.28462,0.45162 0.68835,0.67773 1.2129,0.67773 0.41038,0 0.67012,-0.26099 0.92773,-0.52539 z"
         style="font-style:normal;font-variant:normal;font-weight:normal;font-stretch:normal;font-size:medium;line-height:125%;font-family:'Andale Mono';-inkscape-font-specification:'Andale Mono, Normal';text-align:start;letter-spacing:0px;word-spacing:0px;writing-mode:lr-tb;text-anchor:start;fill:url(#linearGradient9348);fill-opacity:1;stroke:none;stroke-width:1px;stroke-linecap:butt;stroke-linejoin:miter;stroke-opacity:1" />
      <path
         inkscape:connector-curvature="0"
         id="path7899"
         d="m -355.01104,510.15848 a 23.444082,23.444082 0 0 0 0.58007,-0.94727 l 0,-0.48438 -0.49804,0 -1.07617,0.55469 0,0.57813 0.99414,-0.49805 0,0.79688 z"
         style="font-style:normal;font-variant:normal;font-weight:normal;font-stretch:normal;font-size:medium;line-height:125%;font-family:'Andale Mono';-inkscape-font-specification:'Andale Mono, Normal';text-align:start;letter-spacing:0px;word-spacing:0px;writing-mode:lr-tb;text-anchor:start;fill:url(#linearGradient9350);fill-opacity:1;stroke:none;stroke-width:1px;stroke-linecap:butt;stroke-linejoin:miter;stroke-opacity:1" />
      <path
         inkscape:connector-curvature="0"
         id="path7897"
         d="m -357.90362,513.73269 0.12304,0 0,-0.13281 a 23.444082,23.444082 0 0 1 -0.12304,0.13281 z"
         style="font-style:normal;font-variant:normal;font-weight:normal;font-stretch:normal;font-size:medium;line-height:125%;font-family:'Andale Mono';-inkscape-font-specification:'Andale Mono, Normal';text-align:start;letter-spacing:0px;word-spacing:0px;writing-mode:lr-tb;text-anchor:start;fill:url(#linearGradient9352);fill-opacity:1;stroke:none;stroke-width:1px;stroke-linecap:butt;stroke-linejoin:miter;stroke-opacity:1" />
      <path
         inkscape:connector-curvature="0"
         id="path7895"
         d="m -357.90362,513.73269 a 23.444082,23.444082 0 0 0 0.12304,-0.13281 l 0,-0.37109 -0.98437,0 0,-4.50196 -0.49805,0 -1.07617,0.55469 0,0.57813 0.99609,-0.49805 0,3.86719 -1.05468,0 0,0.5039 2.49414,0 z"
         style="font-style:normal;font-variant:normal;font-weight:normal;font-stretch:normal;font-size:medium;line-height:125%;font-family:'Andale Mono';-inkscape-font-specification:'Andale Mono, Normal';text-align:start;letter-spacing:0px;word-spacing:0px;writing-mode:lr-tb;text-anchor:start;fill:url(#linearGradient9354);fill-opacity:1;stroke:none;stroke-width:1px;stroke-linecap:butt;stroke-linejoin:miter;stroke-opacity:1" />
      <path
         inkscape:connector-curvature="0"
         id="path7891"
         d="m -364.81183,518.56668 a 23.444082,23.444082 0 0 0 0.85743,-0.38477 23.444082,23.444082 0 0 0 0.63476,-0.36328 c -0.0898,-0.0158 -0.12833,-0.12695 -0.22656,-0.12695 -0.54101,0 -0.949,0.23348 -1.22656,0.69922 -0.0257,0.0432 -0.0158,0.12971 -0.0391,0.17578 z"
         style="font-style:normal;font-variant:normal;font-weight:normal;font-stretch:normal;font-size:medium;line-height:125%;font-family:'Andale Mono';-inkscape-font-specification:'Andale Mono, Normal';text-align:start;letter-spacing:0px;word-spacing:0px;writing-mode:lr-tb;text-anchor:start;fill:url(#linearGradient9356);fill-opacity:1;stroke:none;stroke-width:1px;stroke-linecap:butt;stroke-linejoin:miter;stroke-opacity:1" />
      <path
         inkscape:connector-curvature="0"
         id="path7887"
         d="m -368.00909,519.77762 a 23.444082,23.444082 0 0 0 0.57812,-0.19141 l 0,-1.82617 -0.49609,0 -1.07617,0.55273 0,0.57813 0.99414,-0.4961 0,1.38282 z"
         style="font-style:normal;font-variant:normal;font-weight:normal;font-stretch:normal;font-size:medium;line-height:125%;font-family:'Andale Mono';-inkscape-font-specification:'Andale Mono, Normal';text-align:start;letter-spacing:0px;word-spacing:0px;writing-mode:lr-tb;text-anchor:start;fill:url(#linearGradient9358);fill-opacity:1;stroke:none;stroke-width:1px;stroke-linecap:butt;stroke-linejoin:miter;stroke-opacity:1" />
      <path
         inkscape:connector-curvature="0"
         id="path7883"
         d="m -372.34112,520.60379 a 23.444082,23.444082 0 0 0 0.57812,-0.0703 l 0,-2.77344 -0.49804,0 -1.07618,0.55273 0,0.57813 0.9961,-0.49609 0,2.20898 z"
         style="font-style:normal;font-variant:normal;font-weight:normal;font-stretch:normal;font-size:medium;line-height:125%;font-family:'Andale Mono';-inkscape-font-specification:'Andale Mono, Normal';text-align:start;letter-spacing:0px;word-spacing:0px;writing-mode:lr-tb;text-anchor:start;fill:url(#linearGradient9360);fill-opacity:1;stroke:none;stroke-width:1px;stroke-linecap:butt;stroke-linejoin:miter;stroke-opacity:1" />
      <path
         inkscape:connector-curvature="0"
         id="path7879"
         d="m -376.95245,520.6116 a 23.444082,23.444082 0 0 0 0.0234,0.004 23.444082,23.444082 0 0 0 0.75195,0.0371 c 0.0928,-0.1069 0.14844,-0.2303 0.14844,-0.375 0,-0.14819 -0.0528,-0.2719 -0.15625,-0.37305 -0.10115,-0.1035 -0.22486,-0.15625 -0.37305,-0.15625 -0.14819,0 -0.27386,0.0512 -0.375,0.15234 -0.0988,0.10115 -0.14648,0.22642 -0.14648,0.37696 0,0.12883 0.0554,0.23492 0.12695,0.33398 z"
         style="font-style:normal;font-variant:normal;font-weight:normal;font-stretch:normal;font-size:medium;line-height:125%;font-family:'Andale Mono';-inkscape-font-specification:'Andale Mono, Normal';text-align:start;letter-spacing:0px;word-spacing:0px;writing-mode:lr-tb;text-anchor:start;fill:url(#linearGradient9362);fill-opacity:1;stroke:none;stroke-width:1px;stroke-linecap:butt;stroke-linejoin:miter;stroke-opacity:1" />
      <path
         inkscape:connector-curvature="0"
         id="path7875"
         d="m -378.14972,520.43191 a 23.444082,23.444082 0 0 0 0.6211,0.0937 c -0.004,-0.1033 -0.0391,-0.13532 -0.0391,-0.24804 0,-0.70802 0.0845,-1.23004 0.2539,-1.56641 0.16936,-0.33637 0.42612,-0.50391 0.76954,-0.50391 0.34813,0 0.60643,0.16483 0.77343,0.49414 0.16936,0.32696 0.25391,0.8517 0.25391,1.57618 0,0.18538 -0.0533,0.24647 -0.0644,0.40625 a 23.444082,23.444082 0 0 0 0.58203,0.0273 c 0.0145,-0.16492 0.0957,-0.25152 0.0957,-0.4336 0,-0.81857 -0.14116,-1.45267 -0.42578,-1.90429 -0.28227,-0.45398 -0.68795,-0.68164 -1.21485,-0.68164 -0.541,0 -0.94899,0.23347 -1.22656,0.69921 -0.2752,0.46339 -0.41406,1.09168 -0.41406,1.88672 0,0.0663 0.0333,0.0904 0.0352,0.1543 z"
         style="font-style:normal;font-variant:normal;font-weight:normal;font-stretch:normal;font-size:medium;line-height:125%;font-family:'Andale Mono';-inkscape-font-specification:'Andale Mono, Normal';text-align:start;letter-spacing:0px;word-spacing:0px;writing-mode:lr-tb;text-anchor:start;fill:url(#linearGradient9364);fill-opacity:1;stroke:none;stroke-width:1px;stroke-linecap:butt;stroke-linejoin:miter;stroke-opacity:1" />
      <path
         inkscape:connector-curvature="0"
         id="path7871"
         d="m -381.03839,519.80887 a 23.444082,23.444082 0 0 0 0.53906,0.13671 c -0.0102,-0.0117 -0.006,-0.0299 -0.0176,-0.041 -0.10114,-0.10351 -0.22486,-0.15625 -0.37304,-0.15625 -0.0587,0 -0.0969,0.0445 -0.14844,0.0605 z"
         style="font-style:normal;font-variant:normal;font-weight:normal;font-stretch:normal;font-size:medium;line-height:125%;font-family:'Andale Mono';-inkscape-font-specification:'Andale Mono, Normal';text-align:start;letter-spacing:0px;word-spacing:0px;writing-mode:lr-tb;text-anchor:start;fill:url(#linearGradient9366);fill-opacity:1;stroke:none;stroke-width:1px;stroke-linecap:butt;stroke-linejoin:miter;stroke-opacity:1" />
      <path
         inkscape:connector-curvature="0"
         id="path7867"
         d="m -382.32354,519.3909 a 23.444082,23.444082 0 0 0 0.53515,0.19531 c 0.0417,-0.30387 0.048,-0.68708 0.14258,-0.875 0.16936,-0.33637 0.42611,-0.50391 0.76953,-0.50391 0.34813,0 0.60448,0.16483 0.77149,0.49414 0.15069,0.29093 0.20997,0.79688 0.22656,1.40235 a 23.444082,23.444082 0 0 0 0.63281,0.16211 23.444082,23.444082 0 0 0 0.008,0.002 c -0.002,-0.81253 -0.14261,-1.44521 -0.42578,-1.89453 -0.28226,-0.45398 -0.68599,-0.68164 -1.21289,-0.68164 -0.54101,0 -0.95096,0.23347 -1.22852,0.69921 -0.14587,0.24563 -0.15038,0.66145 -0.21875,1 z"
         style="font-style:normal;font-variant:normal;font-weight:normal;font-stretch:normal;font-size:medium;line-height:125%;font-family:'Andale Mono';-inkscape-font-specification:'Andale Mono, Normal';text-align:start;letter-spacing:0px;word-spacing:0px;writing-mode:lr-tb;text-anchor:start;fill:url(#linearGradient9368);fill-opacity:1;stroke:none;stroke-width:1px;stroke-linecap:butt;stroke-linejoin:miter;stroke-opacity:1" />
      <path
         inkscape:connector-curvature="0"
         id="path7863"
         d="m -385.638,517.95535 a 23.444082,23.444082 0 0 0 0.87696,0.42383 l 0,-0.61914 -0.49805,0 -0.37891,0.19531 z"
         style="font-style:normal;font-variant:normal;font-weight:normal;font-stretch:normal;font-size:medium;line-height:125%;font-family:'Andale Mono';-inkscape-font-specification:'Andale Mono, Normal';text-align:start;letter-spacing:0px;word-spacing:0px;writing-mode:lr-tb;text-anchor:start;fill:url(#linearGradient9370);fill-opacity:1;stroke:none;stroke-width:1px;stroke-linecap:butt;stroke-linejoin:miter;stroke-opacity:1" />
      <path
         inkscape:connector-curvature="0"
         id="path7859"
         d="m -393.72198,510.78738 a 23.444082,23.444082 0 0 0 0.34961,0.48828 c 5.6e-4,-0.0112 0.0117,-0.0179 0.0117,-0.0293 0,-0.14818 -0.0508,-0.27385 -0.1543,-0.375 -0.0557,-0.057 -0.13675,-0.0586 -0.20703,-0.084 z"
         style="font-style:normal;font-variant:normal;font-weight:normal;font-stretch:normal;font-size:medium;line-height:125%;font-family:'Andale Mono';-inkscape-font-specification:'Andale Mono, Normal';text-align:start;letter-spacing:0px;word-spacing:0px;writing-mode:lr-tb;text-anchor:start;fill:url(#linearGradient9372);fill-opacity:1;stroke:none;stroke-width:1px;stroke-linecap:butt;stroke-linejoin:miter;stroke-opacity:1" />
      <path
         inkscape:connector-curvature="0"
         id="path7851"
         d="m -397.86847,499.81863 a 23.444082,23.444082 0 0 0 0.0723,0.58789 c 0.11765,0.082 0.28335,0.0767 0.36133,0.23047 0.16936,0.32696 0.25391,0.85169 0.25391,1.57617 0,0.3544 -0.0842,0.51519 -0.125,0.77539 a 23.444082,23.444082 0 0 0 0.1289,0.57227 23.444082,23.444082 0 0 0 0.18164,0.54883 c 0.003,-0.006 0.0122,-0.002 0.0156,-0.008 0.27521,-0.46574 0.41211,-1.09598 0.41211,-1.88867 0,-0.81858 -0.14116,-1.45267 -0.42578,-1.9043 -0.20323,-0.32687 -0.54463,-0.39852 -0.875,-0.49024 z"
         style="font-style:normal;font-variant:normal;font-weight:normal;font-stretch:normal;font-size:medium;line-height:125%;font-family:'Andale Mono';-inkscape-font-specification:'Andale Mono, Normal';text-align:start;letter-spacing:0px;word-spacing:0px;writing-mode:lr-tb;text-anchor:start;fill:url(#linearGradient9374);fill-opacity:1;stroke:none;stroke-width:1px;stroke-linecap:butt;stroke-linejoin:miter;stroke-opacity:1" />
      <path
         inkscape:connector-curvature="0"
         id="path7847"
         d="m -397.75909,493.91824 a 23.444082,23.444082 0 0 0 -0.15625,1.03125 23.444082,23.444082 0 0 0 -0.0352,0.71875 l 1.17578,0 0,-0.50391 -0.98437,0 0,-1.24609 z"
         style="font-style:normal;font-variant:normal;font-weight:normal;font-stretch:normal;font-size:medium;line-height:125%;font-family:'Andale Mono';-inkscape-font-specification:'Andale Mono, Normal';text-align:start;letter-spacing:0px;word-spacing:0px;writing-mode:lr-tb;text-anchor:start;fill:url(#linearGradient9376);fill-opacity:1;stroke:none;stroke-width:1px;stroke-linecap:butt;stroke-linejoin:miter;stroke-opacity:1" />
      <path
         inkscape:connector-curvature="0"
         id="path7843"
         d="m -393.42706,483.38113 a 23.444082,23.444082 0 0 0 -0.50977,0.66992 23.444082,23.444082 0 0 0 -0.0684,0.11133 l 0,1.96875 -1.05468,0 0,0.50391 2.61718,0 0,-0.50391 -0.98437,0 0,-2.75 z"
         style="font-style:normal;font-variant:normal;font-weight:normal;font-stretch:normal;font-size:medium;line-height:125%;font-family:'Andale Mono';-inkscape-font-specification:'Andale Mono, Normal';text-align:start;letter-spacing:0px;word-spacing:0px;writing-mode:lr-tb;text-anchor:start;fill:url(#linearGradient9378);fill-opacity:1;stroke:none;stroke-width:1px;stroke-linecap:butt;stroke-linejoin:miter;stroke-opacity:1" />
      <path
         inkscape:connector-curvature="0"
         id="path7839"
         d="m -384.76104,476.18777 a 23.444082,23.444082 0 0 0 -0.46094,0.20703 23.444082,23.444082 0 0 0 -0.11719,0.0664 l 0,0.63672 -1.05664,0 0,0.50586 2.61914,0 0,-0.50586 -0.98437,0 0,-0.91015 z"
         style="font-style:normal;font-variant:normal;font-weight:normal;font-stretch:normal;font-size:medium;line-height:125%;font-family:'Andale Mono';-inkscape-font-specification:'Andale Mono, Normal';text-align:start;letter-spacing:0px;word-spacing:0px;writing-mode:lr-tb;text-anchor:start;fill:url(#linearGradient9380);fill-opacity:1;stroke:none;stroke-width:1px;stroke-linecap:butt;stroke-linejoin:miter;stroke-opacity:1" />
      <path
         inkscape:connector-curvature="0"
         id="path7835"
         d="m -380.42901,474.60379 a 23.444082,23.444082 0 0 0 -0.42969,0.0957 23.444082,23.444082 0 0 0 -0.14844,0.0488 l 0,2.34961 -1.05469,0 0,0.50586 2.61719,0 0,-0.50586 -0.98437,0 0,-2.49414 z"
         style="font-style:normal;font-variant:normal;font-weight:normal;font-stretch:normal;font-size:medium;line-height:125%;font-family:'Andale Mono';-inkscape-font-specification:'Andale Mono, Normal';text-align:start;letter-spacing:0px;word-spacing:0px;writing-mode:lr-tb;text-anchor:start;fill:url(#linearGradient9382);fill-opacity:1;stroke:none;stroke-width:1px;stroke-linecap:butt;stroke-linejoin:miter;stroke-opacity:1" />
      <path
         inkscape:connector-curvature="0"
         id="path7831"
         d="m -376.09503,473.89871 a 23.444082,23.444082 0 0 0 -0.15039,0.006 23.444082,23.444082 0 0 0 -0.42969,0.0527 l 0,3.14062 -1.05468,0 0,0.50586 2.61914,0 0,-0.50586 -0.98438,0 0,-3.19921 z"
         style="font-style:normal;font-variant:normal;font-weight:normal;font-stretch:normal;font-size:medium;line-height:125%;font-family:'Andale Mono';-inkscape-font-specification:'Andale Mono, Normal';text-align:start;letter-spacing:0px;word-spacing:0px;writing-mode:lr-tb;text-anchor:start;fill:url(#linearGradient9384);fill-opacity:1;stroke:none;stroke-width:1px;stroke-linecap:butt;stroke-linejoin:miter;stroke-opacity:1" />
      <path
         inkscape:connector-curvature="0"
         id="path7829"
         d="m -370.77862,474.18387 a 23.444082,23.444082 0 0 0 -0.57031,-0.0859 c 0.0705,0.30174 0.16406,0.54983 0.16406,1.01757 0,0.72214 -0.0846,1.24842 -0.25391,1.58008 -0.167,0.32932 -0.42336,0.49414 -0.77148,0.49414 -0.34578,0 -0.60408,-0.16442 -0.77344,-0.49609 -0.16701,-0.33401 -0.25,-0.8607 -0.25,-1.57813 0,-0.53939 0.0951,-0.86971 0.19336,-1.19336 a 23.444082,23.444082 0 0 0 -0.54492,-0.0273 c -0.11496,0.37524 -0.26563,0.70639 -0.26563,1.2207 0,0.81857 0.14117,1.45462 0.42578,1.90625 0.28462,0.45162 0.6903,0.67773 1.21485,0.67773 0.54336,0 0.95135,-0.23192 1.22656,-0.69531 0.27521,-0.46574 0.41406,-1.09597 0.41406,-1.88867 0,-0.40045 -0.14067,-0.61926 -0.20898,-0.93164 z m -1.44727,0.40234 c -0.14819,0 -0.2719,0.0512 -0.37304,0.15234 -0.0988,0.10115 -0.14844,0.22642 -0.14844,0.37696 0,0.15289 0.0512,0.28397 0.15234,0.39453 0.1035,0.1082 0.22566,0.16406 0.36914,0.16406 0.14583,0 0.2715,-0.0559 0.375,-0.16406 0.1035,-0.11056 0.1543,-0.24164 0.1543,-0.39453 0,-0.1482 -0.0508,-0.27191 -0.1543,-0.37305 -0.10114,-0.1035 -0.22681,-0.15625 -0.375,-0.15625 z"
         style="font-style:normal;font-variant:normal;font-weight:normal;font-stretch:normal;font-size:medium;line-height:125%;font-family:'Andale Mono';-inkscape-font-specification:'Andale Mono, Normal';text-align:start;letter-spacing:0px;word-spacing:0px;writing-mode:lr-tb;text-anchor:start;fill:url(#linearGradient6120);fill-opacity:1;stroke:none;stroke-width:1px;stroke-linecap:butt;stroke-linejoin:miter;stroke-opacity:1" />
      <path
         inkscape:connector-curvature="0"
         id="path3381"
         d="m -387.76001,514.27258 2.17589,-5.90598 4.86984,-4.76623 0.62168,-2.38312 -0.20723,-2.69395 -1.34697,0.62168 -2.59034,-0.93252 -0.72531,-2.90118 1.03615,-1.86505 -1.86505,-3.8337 0.7253,-7.46018 4.86983,-4.559 6.0096,-1.13975 5.07706,0.93252 2.07228,1.55421 -0.31084,0.62168 2.07227,2.48673 1.34698,3.52286 -0.36265,1.65782 2.48673,3.47106 0.0518,0.98432 -1.29517,0.77711 0.0518,0.36264 1.19155,1.19156 -0.31084,1.13975 -0.82891,0.56987 0,0.77711 1.5024,3.0566 0,8.08187 1.13975,1.76143 -1.5542,-0.51807 1.91685,2.48672 -4.71443,-0.93252 -2.64214,-2.53853 -0.77711,-2.84938 -1.24335,2.95299 -1.03615,2.48673 1.60602,1.24337 1.08794,2.48672 z"
         style="fill:#ffffff;fill-opacity:1;fill-rule:evenodd;stroke:#003189;stroke-width:1;stroke-linecap:butt;stroke-linejoin:miter;stroke-miterlimit:4;stroke-dasharray:none;stroke-opacity:1" />
      <g
         transform="translate(0,-2)"
         id="g9441">
        <path
           style="font-style:normal;font-variant:normal;font-weight:normal;font-stretch:normal;font-size:medium;line-height:125%;font-family:'Arial Black';-inkscape-font-specification:'Arial Black, Normal';text-align:start;letter-spacing:0px;word-spacing:0px;writing-mode:lr-tb;text-anchor:start;fill:none;fill-opacity:1;stroke:#e2011c;stroke-width:1.00049043px;stroke-linecap:butt;stroke-linejoin:miter;stroke-opacity:1"
           d="m -372.41274,497.9407 -3.97197,0 0,-0.44173 q 0,-1.12756 0.22996,-1.82501 0.22994,-0.70907 0.6794,-1.29029 0.45991,-0.58122 2.04871,-2.04587 0.84665,-0.7672 0.84665,-1.40655 0,-0.63933 -0.34492,-0.98806 -0.33448,-0.36035 -1.02437,-0.36035 -0.74212,0 -1.23339,0.54635 -0.48082,0.54633 -0.6167,1.90638 l -4.0556,-0.55797 q 0.20905,-2.4876 1.62015,-3.99876 1.42155,-1.52278 4.34827,-1.52278 2.27866,0 3.6793,1.05781 1.90237,1.4298 1.90237,3.81277 0,0.98806 -0.49128,1.90638 -0.49127,0.91832 -2.00688,2.24349 -1.05572,0.92994 -1.33794,1.49952 -0.27176,0.55797 -0.27176,1.46467 z"
           id="path8307"
           inkscape:connector-curvature="0" />
        <circle
           style="color:#000000;clip-rule:nonzero;display:inline;overflow:visible;visibility:visible;opacity:1;isolation:auto;mix-blend-mode:normal;color-interpolation:sRGB;color-interpolation-filters:linearRGB;solid-color:#000000;solid-opacity:1;fill:none;fill-opacity:1;fill-rule:nonzero;stroke:#e2011c;stroke-width:1.07599998;stroke-linecap:butt;stroke-linejoin:miter;stroke-miterlimit:4;stroke-dasharray:none;stroke-dashoffset:0;stroke-opacity:1;color-rendering:auto;image-rendering:auto;shape-rendering:auto;text-rendering:auto;enable-background:accumulate"
           id="path8309"
           cx="-374.36453"
           cy="501.97656"
           r="2.2767856" />
      </g>
    </g>
  </g>
</svg>
